<svg width="32" height="33" viewBox="0 0 32 33" fill="none" xmlns="http://www.w3.org/2000/svg">
<path d="M28 9.43848H26V8.43848C26 7.64283 25.6839 6.87977 25.1213 6.31716C24.5587 5.75455 23.7956 5.43848 23 5.43848H5C4.20435 5.43848 3.44129 5.75455 2.87868 6.31716C2.31607 6.87977 2 7.64283 2 8.43848V20.4385C2 21.2341 2.31607 21.9972 2.87868 22.5598C3.44129 23.1224 4.20435 23.4385 5 23.4385H19V24.4385C19 25.2341 19.3161 25.9972 19.8787 26.5598C20.4413 27.1224 21.2044 27.4385 22 27.4385H28C28.7956 27.4385 29.5587 27.1224 30.1213 26.5598C30.6839 25.9972 31 25.2341 31 24.4385V12.4385C31 11.6428 30.6839 10.8798 30.1213 10.3172C29.5587 9.75455 28.7956 9.43848 28 9.43848ZM29 24.4385C29 24.7037 28.8946 24.958 28.7071 25.1456C28.5196 25.3331 28.2652 25.4385 28 25.4385H22C21.7348 25.4385 21.4804 25.3331 21.2929 25.1456C21.1054 24.958 21 24.7037 21 24.4385V12.4385C21 12.1733 21.1054 11.9189 21.2929 11.7314C21.4804 11.5438 21.7348 11.4385 22 11.4385H28C28.2652 11.4385 28.5196 11.5438 28.7071 11.7314C28.8946 11.9189 29 12.1733 29 12.4385V24.4385ZM17 26.4385C17 26.7037 16.8946 26.958 16.7071 27.1456C16.5196 27.3331 16.2652 27.4385 16 27.4385H11C10.7348 27.4385 10.4804 27.3331 10.2929 27.1456C10.1054 26.958 10 26.7037 10 26.4385C10 26.1733 10.1054 25.9189 10.2929 25.7314C10.4804 25.5438 10.7348 25.4385 11 25.4385H16C16.2652 25.4385 16.5196 25.5438 16.7071 25.7314C16.8946 25.9189 17 26.1733 17 26.4385ZM27 14.4385C27 14.7037 26.8946 14.958 26.7071 15.1456C26.5196 15.3331 26.2652 15.4385 26 15.4385H24C23.7348 15.4385 23.4804 15.3331 23.2929 15.1456C23.1054 14.958 23 14.7037 23 14.4385C23 14.1733 23.1054 13.9189 23.2929 13.7314C23.4804 13.5438 23.7348 13.4385 24 13.4385H26C26.2652 13.4385 26.5196 13.5438 26.7071 13.7314C26.8946 13.9189 27 14.1733 27 14.4385Z" fill="url(#paint0_linear_976_18112)"/>
<defs>
<linearGradient id="paint0_linear_976_18112" x1="6.24695" y1="8.6603" x2="21.228" y2="28.4081" gradientUnits="userSpaceOnUse">
<stop stop-color="#0D2E5C"/>
<stop offset="1" stop-color="#030D1C"/>
</linearGradient>
</defs>
</svg>
