<svg width="33" height="33" viewBox="0 0 33 33" fill="none" xmlns="http://www.w3.org/2000/svg">
<path d="M27.2256 8.43996L22.2256 3.43996C22.1326 3.34713 22.0223 3.27351 21.9009 3.22332C21.7795 3.17314 21.6494 3.14736 21.5181 3.14746H11.5181C10.9876 3.14746 10.4789 3.35817 10.1039 3.73325C9.72878 4.10832 9.51807 4.61703 9.51807 5.14746V7.14746H7.51807C6.98763 7.14746 6.47893 7.35817 6.10385 7.73325C5.72878 8.10832 5.51807 8.61703 5.51807 9.14746V27.1475C5.51807 27.6779 5.72878 28.1866 6.10385 28.5617C6.47893 28.9367 6.98763 29.1475 7.51807 29.1475H21.5181C22.0485 29.1475 22.5572 28.9367 22.9323 28.5617C23.3074 28.1866 23.5181 27.6779 23.5181 27.1475V25.1475H25.5181C26.0485 25.1475 26.5572 24.9367 26.9323 24.5617C27.3074 24.1866 27.5181 23.6779 27.5181 23.1475V9.14746C27.5182 9.0161 27.4924 8.88601 27.4422 8.76461C27.392 8.64322 27.3184 8.5329 27.2256 8.43996ZM21.5181 27.1475H7.51807V9.14746H17.1043L21.5181 13.5612V24.1275C21.5181 24.135 21.5181 24.1412 21.5181 24.1475C21.5181 24.1537 21.5181 24.16 21.5181 24.1675V27.1475ZM25.5181 23.1475H23.5181V13.1475C23.5182 13.0161 23.4924 12.886 23.4422 12.7646C23.392 12.6432 23.3184 12.5329 23.2256 12.44L18.2256 7.43996C18.1326 7.34713 18.0223 7.27351 17.9009 7.22332C17.7795 7.17314 17.6494 7.14736 17.5181 7.14746H11.5181V5.14746H21.1043L25.5181 9.56121V23.1475ZM18.5181 19.1475C18.5181 19.4127 18.4127 19.667 18.2252 19.8546C18.0376 20.0421 17.7833 20.1475 17.5181 20.1475H11.5181C11.2529 20.1475 10.9985 20.0421 10.811 19.8546C10.6234 19.667 10.5181 19.4127 10.5181 19.1475C10.5181 18.8822 10.6234 18.6279 10.811 18.4404C10.9985 18.2528 11.2529 18.1475 11.5181 18.1475H17.5181C17.7833 18.1475 18.0376 18.2528 18.2252 18.4404C18.4127 18.6279 18.5181 18.8822 18.5181 19.1475ZM18.5181 23.1475C18.5181 23.4127 18.4127 23.667 18.2252 23.8546C18.0376 24.0421 17.7833 24.1475 17.5181 24.1475H11.5181C11.2529 24.1475 10.9985 24.0421 10.811 23.8546C10.6234 23.667 10.5181 23.4127 10.5181 23.1475C10.5181 22.8822 10.6234 22.6279 10.811 22.4404C10.9985 22.2528 11.2529 22.1475 11.5181 22.1475H17.5181C17.7833 22.1475 18.0376 22.2528 18.2252 22.4404C18.4127 22.6279 18.5181 22.8822 18.5181 23.1475Z" fill="url(#paint0_linear_976_18121)"/>
<defs>
<linearGradient id="paint0_linear_976_18121" x1="8.73989" y1="6.95507" x2="26.8711" y2="22.2969" gradientUnits="userSpaceOnUse">
<stop stop-color="#0D2E5C"/>
<stop offset="1" stop-color="#030D1C"/>
</linearGradient>
</defs>
</svg>
