<svg width="32" height="33" viewBox="0 0 32 33" fill="none" xmlns="http://www.w3.org/2000/svg">
<path d="M19.0338 5.17996C19.0677 5.05305 19.1263 4.93407 19.2063 4.82983C19.2862 4.72558 19.3859 4.6381 19.4997 4.5724C19.6134 4.5067 19.739 4.46405 19.8693 4.44691C19.9995 4.42976 20.1319 4.43844 20.2588 4.47246C22.1126 4.95615 23.804 5.92527 25.1587 7.28001C26.5135 8.63475 27.4826 10.3261 27.9663 12.18C28.0003 12.3069 28.009 12.4392 27.9918 12.5695C27.9747 12.6997 27.932 12.8253 27.8663 12.9391C27.8006 13.0528 27.7131 13.1525 27.6089 13.2325C27.5047 13.3124 27.3857 13.371 27.2588 13.405C27.1743 13.4271 27.0873 13.4385 27 13.4387C26.7796 13.4387 26.5655 13.3659 26.3907 13.2316C26.216 13.0974 26.0905 12.9091 26.0338 12.6962C25.6393 11.1829 24.8483 9.8021 23.7425 8.69624C22.6366 7.59038 21.2559 6.79945 19.7425 6.40496C19.6155 6.37115 19.4964 6.31263 19.392 6.23274C19.2876 6.15286 19.2 6.05318 19.1342 5.9394C19.0683 5.82563 19.0256 5.69999 19.0084 5.56968C18.9911 5.43937 18.9998 5.30693 19.0338 5.17996ZM18.7425 10.405C20.4663 10.865 21.5738 11.9725 22.0338 13.6962C22.0905 13.9091 22.216 14.0974 22.3907 14.2316C22.5655 14.3659 22.7796 14.4387 23 14.4387C23.0873 14.4385 23.1743 14.4271 23.2588 14.405C23.3857 14.371 23.5047 14.3124 23.6089 14.2325C23.7131 14.1525 23.8006 14.0528 23.8663 13.9391C23.932 13.8253 23.9747 13.6997 23.9918 13.5695C24.009 13.4392 24.0003 13.3069 23.9663 13.18C23.3263 10.785 21.6538 9.11246 19.2588 8.47246C19.1319 8.43856 18.9995 8.42999 18.8693 8.44723C18.7391 8.46447 18.6136 8.50719 18.4999 8.57295C18.3862 8.6387 18.2866 8.72621 18.2067 8.83047C18.1268 8.93473 18.0683 9.0537 18.0344 9.18059C18.0005 9.30748 17.9919 9.4398 18.0092 9.57C18.0264 9.70021 18.0691 9.82574 18.1349 9.93943C18.2006 10.0531 18.2881 10.1528 18.3924 10.2326C18.4967 10.3125 18.6156 10.3711 18.7425 10.405ZM28.985 22.3237C28.7621 24.0175 27.9303 25.5722 26.6449 26.6975C25.3595 27.8229 23.7084 28.4418 22 28.4387C12.075 28.4387 4.00001 20.3637 4.00001 10.4387C3.99695 8.73033 4.61587 7.07924 5.74118 5.79383C6.86649 4.50842 8.42122 3.6766 10.115 3.45371C10.5433 3.40141 10.9771 3.48904 11.3515 3.70351C11.7259 3.91798 12.0209 4.24779 12.1925 4.64371L14.8325 10.5375V10.5525C14.9639 10.8555 15.0181 11.1864 14.9904 11.5156C14.9627 11.8447 14.8539 12.1619 14.6738 12.4387C14.6513 12.4725 14.6275 12.5037 14.6025 12.535L12 15.62C12.9363 17.5225 14.9263 19.495 16.8538 20.4337L19.8963 17.845C19.9261 17.8198 19.9574 17.7965 19.99 17.775C20.2666 17.5905 20.5849 17.4778 20.916 17.4473C21.2471 17.4167 21.5806 17.4692 21.8863 17.6L21.9025 17.6075L27.7913 20.2462C28.1879 20.4172 28.5185 20.7119 28.7337 21.0864C28.9489 21.4609 29.037 21.895 28.985 22.3237ZM27 22.0737C27 22.0737 26.9913 22.0737 26.9863 22.0737L21.1113 19.4425L18.0675 22.0312C18.038 22.0562 18.0071 22.0796 17.975 22.1012C17.6872 22.2932 17.3545 22.4073 17.0094 22.4323C16.6644 22.4572 16.3187 22.3923 16.0063 22.2437C13.665 21.1125 11.3313 18.7962 10.1988 16.48C10.0488 16.1698 9.9815 15.8261 10.0034 15.4823C10.0253 15.1385 10.1357 14.8061 10.3238 14.5175C10.345 14.4836 10.3688 14.4514 10.395 14.4212L13 11.3325L10.375 5.45746C10.3745 5.45247 10.3745 5.44745 10.375 5.44246C9.16283 5.60059 8.04986 6.19517 7.24453 7.11486C6.43919 8.03454 5.99674 9.21626 6.00001 10.4387C6.00464 14.6808 7.69184 18.7477 10.6914 21.7473C13.691 24.7469 17.758 26.4341 22 26.4387C23.2217 26.4429 24.4031 26.002 25.3233 25.1984C26.2436 24.3948 26.8396 23.2836 27 22.0725V22.0737Z" fill="url(#paint0_linear_956_1369)"/>
<defs>
<linearGradient id="paint0_linear_956_1369" x1="7.6611" y1="7.10009" x2="25.3386" y2="24.7775" gradientUnits="userSpaceOnUse">
<stop stop-color="#0D2E5C"/>
<stop offset="1" stop-color="#030D1C"/>
</linearGradient>
</defs>
</svg>
