<svg width="311" height="314" viewBox="0 0 311 314" fill="none" xmlns="http://www.w3.org/2000/svg">
<path d="M23.9366 235.94C21.3618 234.307 18.4102 233.302 15.3958 232.988C14.0142 232.863 12.507 232.863 11.3766 233.742C11.1254 233.93 10.937 234.181 10.937 234.495C10.9998 234.684 11.1882 234.872 11.3138 234.998C14.8306 237.635 20.1058 238.012 23.9366 235.94Z" fill="#E0E0E0"/>
<path d="M23.7482 235.688C21.8014 234.181 19.8546 232.674 18.2218 230.853C16.589 229.032 15.2702 226.834 14.7678 224.447C14.6422 223.694 14.5794 222.877 15.019 222.312C19.4778 225.766 22.869 230.225 23.7482 235.688Z" fill="#E0E0E0"/>
<path d="M23.9363 235.939C23.6223 233.553 23.4967 231.041 24.0619 228.717C24.6271 226.331 25.8831 224.07 27.8927 222.751C28.6463 224.51 28.3323 226.582 27.7671 228.403C26.9507 231.292 25.6319 233.993 23.9363 236.442" fill="#E0E0E0"/>
<path d="M28.2066 243.664C25.569 243.978 23.3082 245.36 21.3614 247.118C19.4146 248.876 18.033 251.263 17.4678 253.838C20.0426 253.649 22.1778 251.891 23.8106 249.818C25.3806 247.809 26.4482 245.548 28.2066 243.664Z" fill="#E0E0E0"/>
<path d="M29.1487 244.857C27.0135 239.645 27.8299 233.428 31.0955 228.906C32.6027 234.181 32.0375 240.21 29.1487 244.857Z" fill="#E0E0E0"/>
<path d="M34.8636 251.64C32.4772 251.514 30.0908 252.079 28.0184 253.273C25.946 254.466 24.2504 256.287 23.1828 258.359C23.0572 258.673 22.9316 258.987 23.12 259.301C23.3084 259.553 23.6224 259.553 23.8736 259.553C26.1972 259.427 28.2068 258.045 29.9024 256.475C31.598 254.843 33.0424 253.021 34.8636 251.64Z" fill="#E0E0E0"/>
<path d="M34.6751 251.263C33.4819 247.369 33.3563 243.099 34.4867 239.142C34.9263 237.572 35.6171 235.94 37.0615 235.186C37.1871 235.123 37.3127 235.06 37.4383 235.123C37.5639 235.186 37.6267 235.312 37.6895 235.437C38.1919 236.505 38.3803 237.761 38.3175 238.891C38.2547 240.084 38.0035 241.278 37.7523 242.408C37.3127 244.543 37.0615 246.867 35.8683 248.751C35.6171 249.19 35.3659 249.693 35.1147 250.132C34.8635 250.635 34.8635 250.76 34.6751 251.137" fill="#E0E0E0"/>
<path d="M49.7473 253.524C48.6169 249.253 49.8101 244.104 52.5105 240.65C52.6989 240.399 52.9501 240.147 53.2641 240.147C53.7665 240.21 53.8921 240.838 53.8921 241.341C53.6409 245.674 52.1965 249.944 49.7473 253.524Z" fill="#E0E0E0"/>
<path d="M51.0659 254.466C56.2155 255.785 62.1187 254.529 66.4519 251.326C63.9399 250.007 60.9255 249.693 58.1623 250.321C55.3363 250.949 52.8243 252.205 51.0659 254.466Z" fill="#E0E0E0"/>
<path d="M52.2593 251.639C55.1481 246.929 60.6745 243.852 66.2009 243.601C65.5729 245.862 63.7517 247.62 61.6165 248.625C59.5441 249.693 57.2205 250.132 54.8969 250.572C54.0177 250.76 52.8245 250.949 52.2593 251.639Z" fill="#E0E0E0"/>
<path d="M49.9984 237.886C50.752 235.186 51.5684 232.485 51.7568 229.722C51.9452 226.959 51.5684 224.007 50.124 221.621C47.4236 226.833 47.1724 232.925 49.8728 238.138" fill="#E0E0E0"/>
<path d="M59.1045 233.302C62.2445 227.587 68.7129 223.003 75.1813 222.375C72.6693 228.592 65.8241 233.428 59.1045 233.302Z" fill="#E0E0E0"/>
<path d="M57.0947 234.432C61.8047 235.123 65.8239 238.138 70.2199 239.959C71.1619 240.336 72.1667 240.65 73.1715 240.524C74.1763 240.398 75.1811 239.708 75.4323 238.703C75.6207 237.886 75.2439 237.007 74.6787 236.379C74.1135 235.751 73.2971 235.374 72.5435 235.06C67.7707 233.051 62.6211 232.988 57.5971 234.244" fill="#E0E0E0"/>
<path d="M54.3943 237.761C55.4619 238.075 55.8387 238.64 56.6551 239.331C59.5439 241.78 62.9351 243.538 66.5775 244.418C66.9543 244.543 67.4567 244.543 67.6451 244.229C67.8335 243.915 67.5823 243.538 67.3939 243.287C65.8867 241.403 63.6887 240.084 61.3651 239.205C59.0415 238.326 57.0947 237.321 54.3315 237.572" fill="#E0E0E0"/>
<path d="M51.3174 217.791C55.1482 221.37 60.549 223.191 65.7614 222.689C66.0126 222.689 66.2638 222.626 66.3894 222.438C66.7662 222.061 66.3266 221.433 65.887 221.119C61.6794 217.853 56.5298 216.472 51.3174 217.791Z" fill="#E0E0E0"/>
<path d="M54.9595 216.472C60.0463 212.704 66.9543 211.511 72.9831 213.52C70.7223 215.781 67.5823 216.974 64.3795 217.288C61.2395 217.602 58.0367 217.225 54.9595 216.472Z" fill="#E0E0E0"/>
<path d="M53.5153 207.303C53.0757 203.095 53.3897 199.704 53.0757 195.497C53.0757 195.183 52.9501 194.743 52.6361 194.617C52.1965 194.429 51.8197 194.994 51.6941 195.434C50.4381 199.327 51.1289 203.849 53.5153 207.24" fill="#E0E0E0"/>
<path d="M53.2012 207.805C56.09 206.047 58.2252 203.723 60.2348 200.96C61.6164 199.076 62.8096 196.815 62.4956 194.491C60.5488 194.429 58.7276 195.496 57.4088 197.003C56.1528 198.511 55.3992 200.332 54.834 202.216C54.2688 204.037 53.892 205.921 53.2012 207.805Z" fill="#E0E0E0"/>
<path d="M60.1092 205.858C66.3892 203.535 72.2924 200.081 77.3792 195.685C75.3068 194.868 72.9832 195.371 70.9108 196.187C66.2008 198.071 62.37 201.274 60.0464 205.796" fill="#E0E0E0"/>
<path d="M55.1479 210.066C58.3507 210.443 61.5536 210.631 64.7564 210.129C67.8336 209.626 70.7851 208.37 73.674 207.177C73.9251 207.052 74.1763 206.926 74.302 206.738C74.4275 206.486 74.3019 206.172 74.1135 205.984C73.9251 205.796 73.6112 205.733 73.3599 205.607C70.2199 204.728 66.7659 205.168 63.6887 206.172C60.5487 207.24 57.9739 208.433 55.1479 210.066Z" fill="#E0E0E0"/>
<path d="M36.9359 217.979C34.7379 213.583 34.9263 208.496 36.8103 203.975C38.1291 205.984 38.3175 208.559 38.0663 210.945C37.8151 213.332 37.1243 215.781 37.0615 218.23" fill="#E0E0E0"/>
<path d="M28.2698 213.583C22.869 213.457 17.4054 215.781 13.7002 219.8C16.4006 220.24 19.2266 219.549 21.6758 218.293C24.125 217.1 26.323 215.404 28.521 213.709" fill="#E0E0E0"/>
<path d="M22.4292 211.636C19.7916 211.448 17.2168 211.071 14.642 211.887C12.0672 212.641 9.74357 214.462 8.73877 216.911C11.2508 217.162 13.7628 216.597 16.0236 215.53C18.2844 214.462 20.3568 213.018 22.4292 211.636Z" fill="#E0E0E0"/>
<path d="M31.0956 211.699C28.7092 210.129 26.26 208.559 23.4968 207.868C20.7336 207.24 17.468 207.679 15.584 209.815C17.8448 211.133 20.5452 211.322 23.1828 211.259C25.8204 211.259 29.0232 211.196 31.4724 212.075" fill="#E0E0E0"/>
<path d="M31.0954 211.824C27.0134 207.805 25.4434 200.583 27.0762 195.12C30.3418 200.018 31.7862 206.047 31.0954 211.824Z" fill="#E0E0E0"/>
<path d="M42.3369 200.458C43.0905 198.636 43.6557 196.815 44.3465 194.994C45.0373 193.173 45.9165 191.352 47.1725 189.907C48.4913 188.463 50.3125 187.395 52.2593 187.27C51.0661 192.796 47.3609 197.694 42.4625 200.458" fill="#E0E0E0"/>
<path d="M40.2643 202.844C39.0083 201.086 37.5011 198.699 35.8055 197.381C34.0471 196.062 31.8491 195.308 29.7139 195.811C31.8491 199.641 35.9311 202.342 40.2643 202.844Z" fill="#E0E0E0"/>
<path d="M40.7041 200.646C39.8877 198.511 39.0085 196.376 38.6945 194.115C38.3805 191.854 38.5689 189.468 39.6993 187.458C41.9601 191.666 42.6509 196.25 40.8297 200.646" fill="#E0E0E0"/>
<path d="M42.3369 187.458C43.5929 183.251 47.4237 180.173 51.6313 178.729C52.1337 178.541 52.6989 178.415 53.2641 178.478C53.8293 178.541 54.3317 178.917 54.4573 179.483C54.5829 180.173 54.0177 180.864 53.4525 181.304C50.1869 184.13 46.4189 186.202 42.3369 187.458Z" fill="#E0E0E0"/>
<path d="M42.3995 184.004C42.5879 181.304 42.7135 178.54 43.5927 175.966C44.4719 173.391 46.1675 171.004 48.6167 169.874C49.0563 172.637 47.8003 175.338 46.3559 177.661C44.9115 179.985 43.1531 182.246 42.2739 184.883" fill="#E0E0E0"/>
<path d="M42.3369 185.888C41.2693 182.811 41.2065 178.917 39.3225 176.28C38.0665 174.396 35.9941 173.14 34.8637 171.193C34.1101 173.014 34.3613 175.149 35.1149 176.97C35.8685 178.792 37.1245 180.362 38.5061 181.806C39.8877 183.25 41.0809 184.381 42.3369 185.888Z" fill="#E0E0E0"/>
<path d="M42.3368 276.006C42.274 276.006 42.2112 255.596 42.1484 230.413C42.1484 205.23 42.2112 184.82 42.274 184.82C42.3368 184.82 42.3996 205.23 42.4624 230.413C42.4624 255.596 42.3996 276.006 42.3368 276.006Z" fill="#E0E0E0"/>
<path d="M60.1719 214.839C60.1719 214.839 59.9207 214.964 59.4183 215.153C58.8531 215.341 58.1623 215.592 57.2831 215.844C55.5247 216.472 53.0755 217.351 50.3751 218.418C47.7375 219.549 45.2883 220.491 43.8439 221.684C43.1531 222.312 42.7135 222.94 42.5251 223.442C42.3367 223.945 42.2739 224.196 42.2739 224.196C42.2739 224.196 42.2739 224.133 42.2739 224.008C42.2739 223.882 42.3367 223.694 42.3995 223.442C42.5879 222.94 42.9647 222.249 43.6555 221.621C44.3463 220.993 45.3511 220.365 46.4815 219.863C47.6119 219.36 48.8679 218.795 50.1867 218.23C52.8243 217.162 55.3363 216.283 57.0947 215.718C57.9739 215.467 58.7275 215.216 59.2299 215.09C59.9207 214.902 60.1719 214.839 60.1719 214.839Z" fill="#E0E0E0"/>
<path d="M65.8239 200.772C65.6355 200.96 65.4471 201.149 65.1959 201.4C64.5679 201.965 63.7515 202.719 62.7467 203.598C60.6115 205.482 57.7855 208.057 54.5827 210.82C51.3799 213.646 48.6795 216.346 46.7327 218.356C45.7907 219.361 45.0371 220.24 44.5347 220.805C44.2835 221.056 44.0951 221.307 43.9695 221.496C43.8439 221.621 43.7811 221.747 43.7183 221.747C43.7183 221.747 43.7811 221.621 43.9067 221.496C44.0323 221.307 44.2207 221.056 44.4719 220.805C44.9743 220.177 45.6651 219.298 46.6071 218.293C48.4911 216.221 51.1915 213.457 54.3943 210.631C57.5971 207.805 60.4859 205.293 62.6211 203.472C63.6259 202.593 64.5051 201.839 65.1331 201.337C65.3843 201.086 65.6355 200.897 65.8239 200.772Z" fill="#E0E0E0"/>
<path d="M51.1289 213.708C51.0661 213.645 51.6941 212.138 52.3849 210.191C53.0757 208.245 53.3897 206.612 53.4525 206.612C53.5153 206.612 53.3269 208.307 52.6361 210.254C52.3221 211.259 51.9453 212.075 51.6313 212.703C51.3801 213.331 51.1917 213.708 51.1289 213.708Z" fill="#E0E0E0"/>
<path d="M42.3367 226.08C42.3367 226.08 42.1483 225.892 41.8343 225.515C41.5203 225.075 41.0807 224.573 40.5783 223.882C39.5107 222.5 38.0663 220.616 36.4335 218.607C34.8007 216.534 33.2935 214.713 32.2259 213.394C31.7235 212.766 31.2839 212.201 30.9699 211.824C30.6559 211.447 30.5303 211.259 30.5303 211.196C30.5303 211.196 30.7187 211.385 31.0327 211.699C31.3467 212.076 31.8491 212.578 32.4143 213.206C33.5447 214.525 35.0519 216.346 36.6847 218.418C38.3175 220.491 39.7619 222.375 40.7667 223.756C41.2691 224.447 41.6459 225.012 41.9599 225.452C42.2111 225.829 42.3995 226.017 42.3367 226.08Z" fill="#E0E0E0"/>
<path d="M38.4429 221.056C38.3801 221.119 37.3753 219.863 36.8101 217.979C36.4333 216.66 36.3705 215.467 36.4333 214.902H36.5589C36.4961 215.153 36.4333 215.279 36.4333 215.279C36.4333 215.279 36.4333 215.153 36.4333 214.902H36.5589C36.6217 215.467 36.6845 216.597 37.0613 217.916C37.6265 219.675 38.5057 220.993 38.4429 221.056Z" fill="#E0E0E0"/>
<path d="M33.4193 214.65C33.3565 214.713 33.0425 214.273 32.2889 213.959C31.5353 213.645 30.4049 213.583 29.0861 213.708C27.8301 213.771 26.6997 214.022 25.8833 214.211C25.0669 214.399 24.5645 214.587 24.5645 214.525C24.5645 214.462 25.0041 214.273 25.8205 214.022C26.6369 213.771 27.7673 213.52 29.0233 213.394C30.2793 213.269 31.5353 213.394 32.2889 213.771C33.1053 214.148 33.4193 214.65 33.4193 214.65Z" fill="#E0E0E0"/>
<path d="M32.2259 213.143C32.2259 213.206 31.5351 212.892 30.4675 212.515C29.3999 212.138 27.8299 211.762 26.0715 211.636C24.3131 211.51 22.7431 211.636 21.6127 211.887C20.4823 212.075 19.7915 212.327 19.7915 212.264C19.7915 212.264 19.9799 212.201 20.2311 212.076C20.5451 211.95 20.9847 211.824 21.5499 211.699C22.6803 211.448 24.3131 211.259 26.0715 211.385C27.8299 211.51 29.3999 211.95 30.4675 212.39C31.0327 212.578 31.4095 212.829 31.7235 212.955C32.0375 213.018 32.2259 213.143 32.2259 213.143Z" fill="#E0E0E0"/>
<path d="M42.3366 206.612C42.2738 206.612 41.7086 204.665 41.0806 202.153C40.4526 199.704 40.013 197.632 40.0758 197.632C40.1386 197.632 40.7038 199.579 41.3318 202.091C41.9598 204.603 42.3994 206.612 42.3366 206.612Z" fill="#E0E0E0"/>
<path d="M42.3995 206.612C42.3367 206.612 41.96 205.293 40.9552 203.975C40.0132 202.593 38.82 201.902 38.8828 201.839C38.8828 201.839 39.1968 201.902 39.6992 202.279C40.1388 202.593 40.704 203.158 41.2064 203.849C42.2112 205.231 42.4623 206.612 42.3995 206.612Z" fill="#E0E0E0"/>
<path d="M42.3367 265.142C42.2739 265.142 42.2739 264.639 42.0227 263.76C41.7715 262.881 41.3947 261.688 40.6411 260.243C39.2595 257.354 36.6847 253.712 33.4191 250.07C31.7863 248.248 30.2163 246.49 28.8975 244.794C27.5787 243.099 26.4483 241.529 25.6947 240.147C24.8783 238.766 24.3759 237.51 24.0619 236.693C23.9363 236.254 23.8107 235.94 23.7479 235.688C23.6851 235.437 23.6851 235.312 23.6851 235.312C23.6851 235.312 23.8735 235.751 24.1875 236.63C24.5015 237.447 25.0667 238.64 25.8831 240.022C26.6995 241.403 27.8299 242.973 29.1487 244.606C30.4675 246.239 32.0375 247.997 33.6703 249.818C36.9359 253.461 39.5107 257.166 40.8923 260.118C41.5831 261.562 41.9599 262.818 42.2111 263.697C42.3367 264.137 42.3995 264.514 42.3995 264.702C42.3367 265.016 42.3367 265.142 42.3367 265.142Z" fill="#E0E0E0"/>
<path d="M58.4762 246.93C58.4762 246.93 58.1622 247.118 57.6598 247.432C57.0946 247.746 56.341 248.186 55.4618 248.876C54.5826 249.567 53.5778 250.446 52.573 251.514C51.5682 252.582 50.5006 253.838 49.433 255.156C47.2978 257.794 45.351 260.18 44.1578 262.064C43.5298 263.006 43.0902 263.76 42.839 264.325C42.525 264.89 42.3994 265.204 42.3994 265.204C42.3994 265.204 42.3994 265.142 42.4622 264.953C42.525 264.828 42.5878 264.576 42.7762 264.262C43.0274 263.697 43.467 262.881 44.0322 261.939C45.1626 259.992 47.1722 257.606 49.3074 254.968C50.375 253.649 51.4426 252.393 52.4474 251.326C53.4522 250.258 54.5198 249.379 55.399 248.751C56.2782 248.06 57.0946 247.62 57.6598 247.369C57.911 247.244 58.1622 247.118 58.3506 247.055C58.4134 246.93 58.4762 246.93 58.4762 246.93Z" fill="#E0E0E0"/>
<path d="M58.7906 252.833C58.7906 252.896 58.0998 252.959 57.0322 253.084C55.9018 253.21 54.3946 253.398 52.8246 253.901C51.2546 254.403 49.873 255.219 49.0566 255.91C48.1774 256.601 47.8006 257.166 47.7378 257.103C47.7378 257.103 47.8006 256.915 47.989 256.664C48.1774 256.413 48.4914 256.099 48.931 255.722C49.8102 254.968 51.129 254.152 52.7618 253.587C54.3946 253.084 55.9646 252.896 57.095 252.833C58.0998 252.833 58.7906 252.833 58.7906 252.833Z" fill="#E0E0E0"/>
<path d="M48.177 256.475C48.1142 256.413 48.8678 255.219 49.4958 253.524C50.061 251.828 50.2494 250.384 50.3122 250.384C50.375 250.384 50.375 250.761 50.3122 251.326C50.2494 251.891 50.1238 252.707 49.8098 253.587C49.4958 254.466 49.119 255.157 48.805 255.659C48.4282 256.224 48.177 256.475 48.177 256.475Z" fill="#E0E0E0"/>
<path d="M63.6886 231.104C63.6886 231.104 63.563 231.167 63.3746 231.23C63.1234 231.355 62.8722 231.481 62.5582 231.607C62.1814 231.795 61.7418 231.983 61.2394 232.235C60.737 232.486 60.1718 232.737 59.5438 233.114C59.2298 233.302 58.9158 233.491 58.539 233.679C58.225 233.867 57.8482 234.119 57.5342 234.307C56.8434 234.747 56.0898 235.249 55.3362 235.814C53.829 236.945 52.259 238.326 50.7518 239.833C49.2446 241.403 47.9258 243.036 46.8582 244.606C46.3558 245.423 45.8534 246.113 45.4138 246.867C45.2254 247.244 44.9742 247.558 44.7858 247.935C44.5974 248.249 44.409 248.625 44.2834 248.939C43.9066 249.567 43.7182 250.133 43.467 250.698C43.2158 251.2 43.0274 251.64 42.9018 252.017C42.7762 252.331 42.6506 252.645 42.525 252.896C42.4622 253.084 42.3994 253.21 42.3994 253.21C42.3994 253.21 42.3994 253.084 42.4622 252.896C42.525 252.645 42.6506 252.393 42.7762 252.017C42.9018 251.64 43.0902 251.2 43.2786 250.635C43.5298 250.133 43.7182 249.505 44.095 248.877C44.2834 248.563 44.409 248.249 44.5974 247.872C44.7858 247.495 44.9742 247.181 45.2254 246.804C45.6022 246.051 46.1674 245.297 46.6698 244.543C47.7374 242.973 49.0562 241.341 50.5634 239.771C52.0706 238.201 53.7034 236.819 55.2106 235.689C55.9642 235.123 56.7178 234.621 57.4714 234.181C57.8482 233.993 58.1622 233.742 58.539 233.553C58.853 233.365 59.2298 233.177 59.5438 232.988C60.1718 232.611 60.737 232.36 61.3022 232.109C61.8046 231.858 62.2442 231.669 62.621 231.544C62.9978 231.418 63.249 231.293 63.5002 231.23C63.563 231.104 63.6886 231.041 63.6886 231.104Z" fill="#E0E0E0"/>
<path d="M50.9404 239.645C50.9404 239.645 51.066 239.142 51.6312 238.577C52.1964 238.012 53.264 237.509 54.4572 237.509C55.6504 237.447 56.718 237.823 57.4088 238.075C58.0996 238.389 58.5392 238.577 58.5392 238.64C58.5392 238.703 58.0996 238.514 57.346 238.263C56.5924 238.012 55.5876 237.761 54.4572 237.761C53.3268 237.823 52.322 238.263 51.7568 238.703C51.1916 239.205 51.0032 239.645 50.9404 239.645Z" fill="#E0E0E0"/>
<path d="M48.9938 241.591C48.931 241.529 49.6218 240.461 49.8102 238.954C49.9986 237.447 49.559 236.253 49.6218 236.253C49.6846 236.253 49.8102 236.505 49.9358 237.007C50.0614 237.509 50.187 238.2 50.0614 239.017C49.9986 239.833 49.6846 240.461 49.4334 240.901C49.245 241.403 49.0566 241.591 48.9938 241.591Z" fill="#E0E0E0"/>
<path d="M28.2695 268.093C28.7091 275.88 31.0327 283.856 34.6751 291.832H50.3751C53.8291 283.856 56.0271 275.943 56.4039 268.093H28.2695Z" fill="#E0E0E0"/>
<path d="M53.8292 280.716C53.8292 280.779 48.6796 280.842 42.274 280.842C35.8684 280.842 30.7188 280.779 30.7188 280.716C30.7188 280.653 35.8684 280.59 42.274 280.59C48.6796 280.528 53.8292 280.653 53.8292 280.716Z" fill="#FAFAFA"/>
<path d="M53.5149 283.542C53.5149 283.605 48.6793 283.668 42.6505 283.668C36.6845 283.668 31.7861 283.605 31.7861 283.542C31.7861 283.479 36.6217 283.417 42.6505 283.417C48.6793 283.354 53.5149 283.479 53.5149 283.542Z" fill="#FAFAFA"/>
<path d="M34.9266 273.18C34.9894 273.18 35.0522 274.813 35.0522 276.823C35.0522 278.832 34.9894 280.465 34.9266 280.465C34.8638 280.465 34.801 278.832 34.801 276.823C34.7382 274.813 34.801 273.18 34.9266 273.18Z" fill="#FAFAFA"/>
<path d="M43.3414 273.18C43.4042 273.18 43.467 274.876 43.467 276.948C43.467 279.021 43.4042 280.716 43.3414 280.716C43.2786 280.716 43.2158 279.021 43.2158 276.948C43.2158 274.876 43.2786 273.18 43.3414 273.18Z" fill="#FAFAFA"/>
<path d="M51.2545 273.117C51.3173 273.117 51.3801 274.813 51.3801 276.948C51.3801 279.083 51.3173 280.779 51.2545 280.779C51.1917 280.779 51.1289 279.083 51.1289 276.948C51.0661 274.876 51.1917 273.117 51.2545 273.117Z" fill="#FAFAFA"/>
<path d="M55.9016 273.18C55.9016 273.243 49.81 273.305 42.3368 273.305C34.8636 273.305 28.772 273.243 28.772 273.18C28.772 273.117 34.8636 273.054 42.3368 273.054C49.81 273.054 55.9016 273.117 55.9016 273.18Z" fill="#FAFAFA"/>
<path d="M53.0069 49.88L25.5879 54.1963L29.9042 81.6153L57.3232 77.2989L53.0069 49.88Z" stroke="#E0E0E0" stroke-width="0.5" stroke-miterlimit="10"/>
<path d="M80.3843 45.5514L52.9653 49.8677L57.2816 77.2866L84.7006 72.9703L80.3843 45.5514Z" stroke="#E0E0E0" stroke-width="0.5" stroke-miterlimit="10"/>
<path d="M107.954 41.2164L80.5347 45.5327L84.851 72.9517L112.27 68.6354L107.954 41.2164Z" stroke="#E0E0E0" stroke-width="0.5" stroke-miterlimit="10"/>
<path d="M135.212 36.9498L107.793 41.2661L112.109 68.6851L139.528 64.3688L135.212 36.9498Z" stroke="#E0E0E0" stroke-width="0.5" stroke-miterlimit="10"/>
<path d="M25.6321 54.5103L23.4341 57.2735L27.0765 80.2583L29.9025 81.577L25.6321 54.5103Z" stroke="#E0E0E0" stroke-width="0.5" stroke-miterlimit="10"/>
<path d="M76.0557 18.1739L48.6367 22.4902L52.953 49.9092L80.372 45.5929L76.0557 18.1739Z" stroke="#E0E0E0" stroke-width="0.5" stroke-miterlimit="10"/>
<path d="M48.4912 22.4824L46.356 25.3712L50.0612 48.8584L52.8872 50.1772L48.4912 22.4824Z" stroke="#E0E0E0" stroke-width="0.5" stroke-miterlimit="10" stroke-linecap="round" stroke-linejoin="round"/>
<path d="M76.0605 18.0234L79.0121 20.0958L82.7173 43.5202L80.3937 45.7182L76.0605 18.0234Z" stroke="#E0E0E0" stroke-width="0.5" stroke-miterlimit="10" stroke-linecap="round" stroke-linejoin="round"/>
<path d="M76.0605 18.1492L73.2345 15.9512L49.9985 19.6564L48.6797 22.4824L76.0605 18.1492Z" stroke="#E0E0E0" stroke-width="0.5" stroke-miterlimit="10" stroke-linecap="round" stroke-linejoin="round"/>
<path d="M61.623 104.743L89.042 100.427L84.7257 73.0078L57.3067 77.3241L61.623 104.743Z" stroke="#E0E0E0" stroke-width="0.5" stroke-miterlimit="10"/>
<path d="M89.1856 100.417L91.3836 97.5282L87.6784 74.041L84.7896 72.7222L89.1856 100.417Z" stroke="#E0E0E0" stroke-width="0.5" stroke-miterlimit="10" stroke-linecap="round" stroke-linejoin="round"/>
<path d="M61.6793 104.876L58.6649 102.804L55.0225 79.3164L57.2833 77.1812L61.6793 104.876Z" stroke="#E0E0E0" stroke-width="0.5" stroke-miterlimit="10" stroke-linecap="round" stroke-linejoin="round"/>
<path d="M61.6167 104.75L64.4427 106.885L87.6787 103.243L88.9975 100.417L61.6167 104.75Z" stroke="#E0E0E0" stroke-width="0.5" stroke-miterlimit="10" stroke-linecap="round" stroke-linejoin="round"/>
<path d="M238.964 199.139C240.345 198.26 241.853 197.632 243.423 197.192L244.365 192.796L251.838 192.67L252.905 197.066C254.475 197.443 255.983 198.071 257.427 198.825L261.195 196.376L266.533 201.588L264.209 205.419C265.089 206.8 265.717 208.308 266.156 209.878L270.552 210.82L270.678 218.293L266.282 219.36C265.905 220.93 265.277 222.438 264.523 223.882L266.973 227.65L261.76 232.988L257.929 230.664C256.548 231.544 255.041 232.172 253.471 232.611L252.529 237.007L245.055 237.133L243.988 232.737C242.418 232.36 240.911 231.732 239.466 230.978L235.698 233.428L230.36 228.215L232.684 224.384C231.805 223.003 231.177 221.496 230.737 219.926L226.341 218.984L226.215 211.51L230.611 210.443C230.988 208.873 231.616 207.366 232.37 205.921L229.921 202.153L235.133 196.815L238.964 199.139ZM242.92 209.061C239.843 212.264 239.969 217.288 243.109 220.365C246.311 223.442 251.335 223.317 254.413 220.177C257.49 216.974 257.364 211.95 254.224 208.873C251.084 205.796 245.997 205.858 242.92 209.061Z" fill="#EBEBEB"/>
<path d="M267.098 27.946C268.166 27.318 269.296 26.8156 270.426 26.5016L271.117 23.236L276.644 23.1104L277.46 26.376C278.653 26.69 279.784 27.1296 280.851 27.6948L283.677 25.8736L287.696 29.7044L285.938 32.5932C286.566 33.6608 287.068 34.7912 287.382 35.9216L290.648 36.6124L290.774 42.1388L287.508 42.9552C287.194 44.1484 286.754 45.2788 286.189 46.3464L288.01 49.1724L284.18 53.1915L281.291 51.4332C280.223 52.0612 279.093 52.5635 277.962 52.8775L277.272 56.1432L271.745 56.2687L270.929 53.0032C269.736 52.6892 268.605 52.2496 267.538 51.6844L264.712 53.5055L260.692 49.6747L262.451 46.7859C261.823 45.7184 261.32 44.5879 261.006 43.4575L257.741 42.7668L257.615 37.2404L260.881 36.424C261.195 35.2308 261.634 34.1004 262.2 33.0328L260.378 30.2068L264.209 26.1876L267.098 27.946ZM270.05 35.3564C267.789 37.7428 267.852 41.5107 270.175 43.7715C272.562 46.0323 276.33 45.9696 278.59 43.646C280.851 41.2596 280.788 37.4916 278.465 35.2308C276.078 32.9072 272.31 32.97 270.05 35.3564Z" fill="#F5F5F5"/>
<path d="M271.808 240.273C272.436 239.896 273.189 239.582 273.88 239.394L274.32 237.321L277.774 237.258L278.276 239.331C279.03 239.519 279.721 239.77 280.411 240.147L282.17 239.017L284.682 241.403L283.614 243.224C283.991 243.852 284.305 244.606 284.493 245.297L286.566 245.736L286.629 249.19L284.556 249.693C284.368 250.446 284.117 251.137 283.74 251.828L284.87 253.586L282.484 256.098L280.663 255.031C280.035 255.408 279.281 255.722 278.59 255.91L278.151 257.982L274.697 258.045L274.194 255.973C273.441 255.784 272.75 255.533 272.059 255.156L270.301 256.287L267.789 253.9L268.856 252.079C268.479 251.451 268.165 250.698 267.977 250.007L265.905 249.567L265.842 246.113L267.914 245.611C268.103 244.857 268.354 244.166 268.731 243.476L267.6 241.717L269.987 239.205L271.808 240.273ZM273.692 244.857C272.247 246.364 272.31 248.688 273.755 250.132C275.262 251.577 277.585 251.514 279.03 250.07C280.474 248.562 280.411 246.239 278.967 244.794C277.46 243.35 275.073 243.413 273.692 244.857Z" fill="#EBEBEB"/>
<path d="M119.958 170.879C120.586 170.502 121.339 170.188 122.03 169.999L122.47 167.927L125.924 167.864L126.426 169.937C127.18 170.125 127.87 170.376 128.561 170.753L130.32 169.623L132.832 172.009L131.764 173.83C132.141 174.458 132.455 175.212 132.643 175.903L134.716 176.342L134.779 179.796L132.706 180.299C132.518 181.052 132.267 181.743 131.89 182.434L133.02 184.192L130.634 186.704L128.813 185.637C128.185 186.013 127.431 186.327 126.74 186.516L126.301 188.588L122.847 188.651L122.344 186.516C121.591 186.327 120.9 186.076 120.209 185.699L118.451 186.83L115.939 184.443L117.006 182.622C116.629 181.994 116.315 181.241 116.127 180.55L114.055 180.11L113.992 176.656L116.064 176.154C116.253 175.4 116.504 174.709 116.881 174.019L115.75 172.26L118.137 169.748L119.958 170.879ZM121.842 175.463C120.397 176.97 120.46 179.294 121.905 180.738C123.412 182.183 125.735 182.12 127.18 180.675C128.624 179.168 128.561 176.845 127.117 175.4C125.61 173.956 123.223 174.019 121.842 175.463Z" fill="#EBEBEB"/>
<path d="M293.976 292.02C293.976 292.083 232.307 292.208 156.256 292.208C80.1423 292.208 18.4727 292.146 18.4727 292.02C18.4727 291.894 80.1423 291.832 156.256 291.832C232.307 291.832 293.976 291.894 293.976 292.02Z" fill="#263238"/>
<path d="M233.814 238.891L159.522 238.828C150.604 238.828 143.319 231.857 143.319 223.317L143.382 44.7763C143.382 36.2355 150.604 29.2646 159.585 29.2646L233.877 29.3274C242.795 29.3274 250.079 36.2983 250.079 44.8391L250.017 223.379C250.017 231.92 242.732 238.891 233.814 238.891Z" fill="#455A64"/>
<path d="M233.751 35.6074H219.37H177.294H172.207H159.584C153.304 35.6074 148.218 40.443 148.218 46.4718L148.155 220.742C148.155 226.771 153.242 231.606 159.459 231.606L233.626 231.669C239.906 231.669 244.992 226.833 244.992 220.805L245.118 46.4718C245.118 40.5058 240.031 35.6074 233.751 35.6074Z" fill="white"/>
<path d="M233.124 116.557H174.72V170.125H233.124V116.557Z" fill="#F39B27"/>
<g opacity="0.3">
<path d="M233.124 116.557H174.72V170.125H233.124V116.557Z" fill="black"/>
</g>
<path d="M209.448 116.557H160.213V170.125H209.448V116.557Z" fill="#F39B27"/>
<path d="M209.448 170.188C209.385 170.188 209.26 158.193 209.26 143.372C209.26 128.551 209.323 116.557 209.448 116.557C209.511 116.557 209.637 128.551 209.637 143.372C209.574 158.193 209.511 170.188 209.448 170.188Z" fill="#263238"/>
<path d="M233.124 143.372C233.124 143.435 227.66 143.56 220.941 143.56C214.221 143.56 208.757 143.498 208.757 143.372C208.757 143.309 214.221 143.184 220.941 143.184C227.723 143.246 233.124 143.309 233.124 143.372Z" fill="#263238"/>
<path d="M227.66 166.671H224.583C224.457 166.671 224.332 166.546 224.332 166.42C224.332 166.295 224.457 166.169 224.583 166.169H227.409V163.343C227.409 163.217 227.534 163.092 227.66 163.092C227.786 163.092 227.911 163.217 227.911 163.343V166.42C227.911 166.546 227.786 166.671 227.66 166.671Z" fill="white"/>
<path d="M227.66 159.826C227.534 159.826 227.409 159.7 227.409 159.575V156.372H224.457C224.332 156.372 224.206 156.246 224.206 156.121C224.206 155.995 224.332 155.87 224.457 155.87H227.597C227.723 155.87 227.848 155.995 227.848 156.121V159.575C227.911 159.763 227.786 159.826 227.66 159.826Z" fill="white"/>
<path d="M217.424 159.952C217.298 159.952 217.172 159.826 217.172 159.701V156.184C217.172 156.058 217.298 155.933 217.424 155.933H220.564C220.689 155.933 220.815 156.058 220.815 156.184C220.815 156.309 220.689 156.435 220.564 156.435H217.675V159.701C217.675 159.826 217.549 159.952 217.424 159.952Z" fill="white"/>
<path d="M220.501 166.671H217.424C217.298 166.671 217.172 166.546 217.172 166.42V163.531C217.172 163.406 217.298 163.28 217.424 163.28C217.549 163.28 217.675 163.406 217.675 163.531V166.169H220.501C220.626 166.169 220.752 166.295 220.752 166.42C220.752 166.546 220.626 166.671 220.501 166.671Z" fill="white"/>
<path d="M224.52 164.473H220.626C220.501 164.473 220.375 164.348 220.375 164.222V158.256C220.375 158.13 220.501 158.005 220.626 158.005H224.52C224.645 158.005 224.771 158.13 224.771 158.256V164.222C224.771 164.348 224.645 164.473 224.52 164.473ZM220.877 164.034H224.269V158.57H220.877V164.034Z" fill="white"/>
<path d="M222.95 163.28C222.95 163.468 222.824 163.594 222.636 163.594C222.447 163.594 222.322 163.468 222.322 163.28C222.322 163.092 222.447 162.966 222.636 162.966C222.824 162.903 222.95 163.092 222.95 163.28Z" fill="white"/>
<path d="M223.013 159.449H222.134C222.008 159.449 221.882 159.324 221.882 159.198C221.882 159.072 222.008 158.947 222.134 158.947H223.013C223.138 158.947 223.264 159.072 223.264 159.198C223.264 159.324 223.138 159.449 223.013 159.449Z" fill="white"/>
<path d="M193.874 146.135H169.068C168.251 146.135 167.561 145.445 167.561 144.628C167.561 143.812 168.251 143.121 169.068 143.121H193.874C194.69 143.121 195.381 143.812 195.381 144.628C195.381 145.507 194.753 146.135 193.874 146.135Z" fill="white"/>
<path d="M175.787 150.782H169.068C168.251 150.782 167.561 150.092 167.561 149.275C167.561 148.459 168.251 147.768 169.068 147.768H175.787C176.604 147.768 177.295 148.459 177.295 149.275C177.295 150.154 176.604 150.782 175.787 150.782Z" fill="white"/>
<path d="M174.72 156.058C174.72 156.121 173.338 156.246 171.643 156.246C169.947 156.246 168.565 156.184 168.565 156.058C168.565 155.932 169.947 155.87 171.643 155.87C173.338 155.87 174.72 155.932 174.72 156.058Z" fill="white"/>
<path d="M194.062 166.608H193.12C192.429 166.608 191.864 166.043 191.864 165.352V164.41C191.864 163.719 192.429 163.154 193.12 163.154H194.062C194.753 163.154 195.318 163.719 195.318 164.41V165.352C195.318 166.043 194.753 166.608 194.062 166.608Z" fill="white"/>
<path d="M198.898 166.608H197.956C197.265 166.608 196.7 166.043 196.7 165.352V164.41C196.7 163.719 197.265 163.154 197.956 163.154H198.898C199.589 163.154 200.154 163.719 200.154 164.41V165.352C200.154 166.043 199.589 166.608 198.898 166.608Z" fill="white"/>
<path d="M203.671 166.545H202.729C202.038 166.545 201.473 165.98 201.473 165.289V164.347C201.473 163.657 202.038 163.091 202.729 163.091H203.671C204.361 163.091 204.927 163.657 204.927 164.347V165.289C204.927 165.98 204.361 166.545 203.671 166.545Z" fill="white"/>
<path d="M186.777 126.354H167.686V134.078H186.777V126.354Z" fill="white"/>
<path d="M292.972 95.8953H267.789C266.659 95.8953 265.717 94.9533 265.717 93.8229C265.717 92.6925 266.659 91.7505 267.789 91.7505H292.972C294.102 91.7505 295.044 92.6925 295.044 93.8229C295.044 94.9533 294.165 95.8953 292.972 95.8953Z" fill="#E0E0E0"/>
<path d="M292.972 103.997H267.789C266.659 103.997 265.717 103.055 265.717 101.924C265.717 100.794 266.659 99.8521 267.789 99.8521H292.972C294.102 99.8521 295.044 100.794 295.044 101.924C295.044 103.055 294.165 103.997 292.972 103.997Z" fill="#E0E0E0"/>
<path d="M275.388 111.909H267.789C266.659 111.909 265.717 110.967 265.717 109.837C265.717 108.707 266.659 107.765 267.789 107.765H275.388C276.518 107.765 277.46 108.707 277.46 109.837C277.46 111.03 276.581 111.909 275.388 111.909Z" fill="#E0E0E0"/>
<path d="M261.384 86.4125C261.447 86.4753 254.915 93.4461 246.814 101.924C238.713 110.465 232.119 117.31 232.056 117.247C231.993 117.185 238.525 110.214 246.626 101.736C254.664 93.1949 261.321 86.3497 261.384 86.4125Z" fill="#263238"/>
<path d="M235.761 117.059C235.761 118.504 234.631 119.634 233.186 119.634C231.742 119.634 230.611 118.504 230.611 117.059C230.611 115.615 231.742 114.484 233.186 114.484C234.568 114.484 235.761 115.615 235.761 117.059Z" fill="#263238"/>
<path d="M160.212 148.773C161.635 148.773 162.787 147.62 162.787 146.198C162.787 144.776 161.635 143.624 160.212 143.624C158.79 143.624 157.638 144.776 157.638 146.198C157.638 147.62 158.79 148.773 160.212 148.773Z" fill="#263238"/>
<path d="M234.129 165.478C235.551 165.478 236.703 164.325 236.703 162.903C236.703 161.481 235.551 160.328 234.129 160.328C232.706 160.328 231.554 161.481 231.554 162.903C231.554 164.325 232.706 165.478 234.129 165.478Z" fill="#263238"/>
<path d="M227.22 69.0798H169.57C167.874 69.0798 166.43 67.6982 166.43 65.9398C166.43 64.2442 167.811 62.7998 169.57 62.7998H227.22C228.916 62.7998 230.36 64.1814 230.36 65.9398C230.297 67.6354 228.916 69.0798 227.22 69.0798Z" fill="#E0E0E0"/>
<path d="M215.351 81.9538H181.376C179.681 81.9538 178.236 80.5722 178.236 78.8138C178.236 77.1182 179.618 75.6738 181.376 75.6738H215.351C217.047 75.6738 218.491 77.0554 218.491 78.8138C218.491 80.5722 217.11 81.9538 215.351 81.9538Z" fill="#E0E0E0"/>
<path d="M272.938 77.8091H265.779V84.9683H272.938V77.8091Z" fill="#F39B27"/>
<path d="M135.784 88.4221H110.601C109.47 88.4221 108.528 87.4801 108.528 86.3497C108.528 85.2193 109.47 84.2773 110.601 84.2773H135.784C136.914 84.2773 137.856 85.2193 137.856 86.3497C137.856 87.5429 136.914 88.4221 135.784 88.4221Z" fill="#E0E0E0"/>
<path d="M135.784 96.5232H110.601C109.47 96.5232 108.528 95.5812 108.528 94.4508C108.528 93.3204 109.47 92.3784 110.601 92.3784H135.784C136.914 92.3784 137.856 93.3204 137.856 94.4508C137.856 95.644 136.914 96.5232 135.784 96.5232Z" fill="#E0E0E0"/>
<path d="M118.2 104.499H110.601C109.47 104.499 108.528 103.557 108.528 102.427C108.528 101.296 109.47 100.354 110.601 100.354H118.2C119.33 100.354 120.272 101.296 120.272 102.427C120.272 103.557 119.33 104.499 118.2 104.499Z" fill="#E0E0E0"/>
<path d="M115.751 70.3359H108.591V77.4951H115.751V70.3359Z" fill="#F39B27"/>
<path d="M297.619 173.956H272.436C271.306 173.956 270.364 173.014 270.364 171.883C270.364 170.753 271.306 169.811 272.436 169.811H297.619C298.749 169.811 299.691 170.753 299.691 171.883C299.691 173.077 298.749 173.956 297.619 173.956Z" fill="#E0E0E0"/>
<path d="M297.619 182.057H272.436C271.306 182.057 270.364 181.115 270.364 179.985C270.364 178.854 271.306 177.912 272.436 177.912H297.619C298.749 177.912 299.691 178.854 299.691 179.985C299.691 181.178 298.749 182.057 297.619 182.057Z" fill="#E0E0E0"/>
<path d="M280.035 190.032H272.436C271.306 190.032 270.364 189.09 270.364 187.96C270.364 186.83 271.306 185.888 272.436 185.888H280.035C281.165 185.888 282.107 186.83 282.107 187.96C282.107 189.09 281.165 190.032 280.035 190.032Z" fill="#E0E0E0"/>
<path d="M277.523 157.628H270.364V164.787H277.523V157.628Z" fill="#F39B27"/>
<path d="M264.775 162.903C264.775 162.903 264.398 162.966 263.707 162.966C262.953 162.966 262.011 162.966 260.818 163.029C258.369 163.029 254.978 163.092 251.273 163.092C247.567 163.092 244.176 163.092 241.727 163.029C240.534 163.029 239.592 162.966 238.838 162.966C238.147 162.966 237.771 162.903 237.771 162.903C237.771 162.903 238.147 162.84 238.838 162.84C239.592 162.84 240.534 162.84 241.727 162.778C244.176 162.778 247.567 162.715 251.273 162.715C254.978 162.715 258.369 162.715 260.818 162.778C262.011 162.778 262.953 162.84 263.707 162.84C264.398 162.903 264.775 162.903 264.775 162.903Z" fill="#263238"/>
<path d="M126.175 112.286C126.238 112.223 133.9 119.759 143.32 129.179C152.74 138.599 160.276 146.261 160.213 146.324C160.15 146.386 152.488 138.85 143.068 129.43C133.648 120.01 126.112 112.349 126.175 112.286Z" fill="#263238"/>
<path d="M154.687 107.89C154.498 107.89 154.373 107.765 154.373 107.576V98.2818C154.373 98.0934 154.498 97.9678 154.687 97.9678H163.981C164.169 97.9678 164.295 98.0934 164.295 98.2818C164.295 98.4702 164.169 98.5958 163.981 98.5958H155.001V107.576C155.001 107.765 154.875 107.89 154.687 107.89Z" fill="#F39B27"/>
<path d="M236.703 107.953C236.515 107.953 236.389 107.828 236.389 107.639V98.6588H227.409C227.22 98.6588 227.095 98.5332 227.095 98.3448C227.095 98.1564 227.22 98.0308 227.409 98.0308H236.703C236.892 98.0308 237.017 98.1564 237.017 98.3448V107.639C237.017 107.765 236.892 107.953 236.703 107.953Z" fill="#F39B27"/>
<path d="M236.703 185.637H227.409C227.22 185.637 227.095 185.511 227.095 185.323C227.095 185.134 227.22 185.009 227.409 185.009H236.389V176.028C236.389 175.84 236.515 175.714 236.703 175.714C236.892 175.714 237.017 175.84 237.017 176.028V185.323C237.017 185.448 236.892 185.637 236.703 185.637Z" fill="#F39B27"/>
<path d="M163.981 185.511H154.687C154.498 185.511 154.373 185.386 154.373 185.197V175.903C154.373 175.714 154.498 175.589 154.687 175.589C154.875 175.589 155.001 175.714 155.001 175.903V184.883H163.981C164.169 184.883 164.295 185.009 164.295 185.197C164.295 185.386 164.169 185.511 163.981 185.511Z" fill="#F39B27"/>
<path d="M198.319 224.063C202.224 222.431 204.066 217.944 202.435 214.04C200.804 210.135 196.316 208.293 192.412 209.924C188.508 211.555 186.665 216.043 188.296 219.947C189.928 223.851 194.415 225.694 198.319 224.063Z" fill="#E0E0E0"/>
<path d="M159.082 51.7469C160.778 50.0513 162.536 48.3557 164.232 46.6601C164.672 46.2205 164.672 45.4041 164.232 44.9645C163.73 44.5249 163.039 44.5249 162.536 44.9645C160.841 46.6601 159.082 48.3557 157.387 50.0513C156.947 50.4909 156.947 51.3073 157.387 51.7469C157.889 52.1865 158.643 52.2493 159.082 51.7469Z" fill="#E0E0E0"/>
<path d="M164.232 50.1141C162.537 48.4185 160.841 46.6601 159.145 44.9645C158.706 44.5249 157.889 44.5249 157.45 44.9645C157.01 45.4669 157.01 46.1577 157.45 46.6601C159.145 48.3557 160.841 50.1141 162.537 51.8097C162.976 52.2493 163.793 52.2493 164.232 51.8097C164.672 51.3073 164.672 50.6165 164.232 50.1141Z" fill="#E0E0E0"/>
<path d="M245.244 170.125C245.244 170.188 223.515 170.313 196.636 170.313C169.821 170.313 148.029 170.251 148.029 170.125C148.029 170.062 169.758 169.937 196.636 169.937C223.515 169.937 245.244 169.999 245.244 170.125Z" fill="#263238"/>
<path d="M76.2494 272.426L75.8726 291.392L100.867 291.957C100.804 289.696 87.9302 284.861 87.9302 284.861L88.6838 272.677L76.2494 272.426Z" fill="#455A64"/>
<g opacity="0.6">
<path d="M80.2684 283.667C79.766 283.793 79.452 284.295 79.5148 284.735C79.5776 285.175 80.1428 285.551 80.6452 285.426C81.1476 285.3 81.5872 284.735 81.3988 284.295C81.2732 283.856 80.5824 283.479 80.1428 283.667" fill="white"/>
</g>
<g opacity="0.6">
<path d="M75.8726 291.392L75.9982 289.508L99.925 290.764C99.925 290.764 101.055 291.266 100.867 291.957L75.8726 291.392Z" fill="white"/>
</g>
<path d="M88.3697 284.798C88.3697 284.924 87.7417 284.924 87.1137 285.301C86.4857 285.615 86.1717 286.117 86.0461 286.117C85.9205 286.117 86.1089 285.426 86.8625 284.987C87.6789 284.547 88.4325 284.673 88.3697 284.798Z" fill="#263238"/>
<path d="M91.0074 285.865C91.0074 285.991 90.505 286.179 90.0654 286.619C89.6258 287.059 89.5002 287.624 89.3746 287.624C89.249 287.624 89.1862 286.933 89.7514 286.368C90.2538 285.803 91.0074 285.74 91.0074 285.865Z" fill="#263238"/>
<path d="M92.3892 288.88C92.2636 288.88 92.138 288.315 92.452 287.687C92.766 287.059 93.3312 286.808 93.394 286.933C93.4568 287.059 93.08 287.373 92.8288 287.875C92.5776 288.378 92.5148 288.88 92.3892 288.88Z" fill="#263238"/>
<path d="M88.2439 281.972C88.1811 282.097 87.616 281.909 86.9252 281.909C86.2344 281.909 85.6692 282.16 85.6064 282.035C85.5436 281.972 86.046 281.532 86.8624 281.532C87.7416 281.532 88.3067 281.909 88.2439 281.972Z" fill="#263238"/>
<path d="M87.7419 279.209C87.7419 279.271 87.2395 279.334 86.4859 279.146C86.1091 279.083 85.6695 278.957 85.1671 278.706C84.9159 278.581 84.6647 278.455 84.4763 278.329C84.3507 278.267 84.2251 278.204 84.0995 278.015C83.9739 277.89 83.9111 277.576 84.0367 277.387C84.1623 277.199 84.4135 277.136 84.6019 277.136C84.7903 277.136 84.9159 277.199 85.0415 277.199C85.2927 277.262 85.6067 277.387 85.7951 277.45C86.2975 277.639 86.6743 277.953 86.9255 278.204C87.4907 278.706 87.6791 279.146 87.6163 279.209C87.5535 279.271 87.3023 278.895 86.7371 278.455C86.4231 278.267 86.0463 278.015 85.6067 277.827C85.3555 277.764 85.1671 277.639 84.9159 277.576C84.6647 277.513 84.4135 277.513 84.3507 277.576C84.3507 277.639 84.3507 277.639 84.3507 277.701C84.4135 277.764 84.5391 277.827 84.6019 277.89C84.7903 278.015 85.0415 278.141 85.2299 278.267C85.6695 278.455 86.0463 278.643 86.4231 278.706C87.2395 279.083 87.7419 279.146 87.7419 279.209Z" fill="#263238"/>
<path d="M87.5533 279.334C87.4905 279.334 87.3021 278.957 87.2393 278.204C87.2393 277.827 87.3021 277.387 87.4277 276.885C87.4905 276.634 87.6161 276.383 87.7417 276.194C87.8673 275.943 88.0557 275.629 88.5581 275.629C88.8093 275.629 88.9977 275.817 89.0605 275.943C89.1233 276.131 89.1233 276.257 89.1861 276.383C89.2489 276.634 89.1861 276.948 89.1861 277.199C89.1233 277.701 88.8721 278.141 88.6209 278.392C88.1185 279.02 87.6161 279.146 87.6161 279.083C87.5533 279.02 87.9929 278.832 88.3697 278.204C88.5581 277.89 88.7465 277.513 88.8093 277.073C88.8093 276.885 88.8721 276.634 88.8093 276.383C88.7465 276.131 88.6837 275.943 88.5581 275.943C88.4325 275.943 88.2441 276.131 88.1185 276.32C87.9929 276.508 87.8673 276.759 87.8045 276.948C87.6161 277.387 87.5533 277.764 87.5533 278.141C87.4905 278.895 87.6161 279.334 87.5533 279.334Z" fill="#263238"/>
<path d="M57.2835 273.996L54.8971 292.836L30.0283 289.759C30.4679 287.561 43.8443 284.609 43.8443 284.609L44.8491 272.426L57.2835 273.996Z" fill="#455A64"/>
<g opacity="0.6">
<path d="M51.6942 284.547C52.1338 284.735 52.4478 285.3 52.2594 285.74C52.071 286.179 51.5058 286.431 51.0662 286.242C50.6266 286.054 50.2498 285.426 50.501 284.986C50.6894 284.547 51.443 284.295 51.8198 284.547" fill="white"/>
</g>
<g opacity="0.6">
<path d="M54.8973 292.836L55.0857 290.952L31.2217 288.691C31.2217 288.691 30.0913 289.005 30.0913 289.759L54.8973 292.836Z" fill="white"/>
</g>
<path d="M43.5305 284.484C43.5305 284.61 44.0957 284.735 44.6609 285.175C45.2261 285.614 45.4773 286.117 45.6029 286.117C45.7285 286.117 45.6029 285.426 44.9121 284.861C44.2213 284.296 43.4677 284.358 43.5305 284.484Z" fill="#263238"/>
<path d="M40.7671 285.175C40.7043 285.3 41.2067 285.551 41.5835 286.054C41.9603 286.556 42.0231 287.121 42.0859 287.121C42.2115 287.184 42.3371 286.493 41.8975 285.803C41.5207 285.175 40.7671 285.049 40.7671 285.175Z" fill="#263238"/>
<path d="M38.946 287.938C39.0716 288.001 39.3228 287.435 39.0716 286.745C38.8204 286.054 38.318 285.74 38.2552 285.865C38.1924 285.928 38.5064 286.305 38.6948 286.87C38.8204 287.435 38.8204 287.875 38.946 287.938Z" fill="#263238"/>
<path d="M44.0327 281.72C44.0955 281.846 44.6607 281.72 45.3515 281.846C46.0423 281.972 46.5447 282.223 46.6075 282.16C46.6703 282.097 46.2307 281.595 45.4143 281.469C44.5979 281.344 44.0327 281.595 44.0327 281.72Z" fill="#263238"/>
<path d="M44.9747 279.02C44.9747 279.083 45.4143 279.209 46.2307 279.146C46.6075 279.146 47.1099 279.083 47.5495 278.958C47.8007 278.895 48.0519 278.769 48.3031 278.706C48.4287 278.644 48.5543 278.581 48.7427 278.455C48.8683 278.33 48.9939 278.078 48.8683 277.827C48.7427 277.639 48.5543 277.513 48.3659 277.513C48.1775 277.513 48.0519 277.513 47.8635 277.513C47.5495 277.513 47.2983 277.576 47.0471 277.639C46.5447 277.764 46.1051 278.016 45.7911 278.204C45.1631 278.644 44.9119 279.02 44.9747 279.083C45.0375 279.146 45.3515 278.832 45.9795 278.455C46.2935 278.267 46.6703 278.141 47.1727 278.016C47.4239 277.953 47.6751 277.89 47.9263 277.89C48.1775 277.827 48.4287 277.89 48.4915 278.016C48.4915 278.078 48.4915 278.078 48.4287 278.141C48.3659 278.204 48.2403 278.267 48.1147 278.33C47.8635 278.455 47.6123 278.518 47.4239 278.581C46.9843 278.706 46.5447 278.832 46.1679 278.895C45.4771 278.958 44.9747 278.958 44.9747 279.02Z" fill="#263238"/>
<path d="M45.1003 279.209C45.1631 279.209 45.4143 278.832 45.5399 278.141C45.6027 277.764 45.6027 277.325 45.5399 276.822C45.4771 276.571 45.4144 276.32 45.2888 276.069C45.1632 275.817 45.0375 275.503 44.5979 275.378C44.3467 275.315 44.1584 275.503 44.0328 275.629C43.9072 275.755 43.9071 275.943 43.8443 276.069C43.7815 276.32 43.7188 276.634 43.7188 276.885C43.7188 277.387 43.9071 277.827 44.0955 278.141C44.5351 278.832 44.9747 279.02 45.0375 278.957C45.1003 278.895 44.6607 278.643 44.4095 278.015C44.2839 277.701 44.1583 277.325 44.1583 276.885C44.1583 276.634 44.2211 276.445 44.2839 276.194C44.3467 275.943 44.4723 275.755 44.5979 275.817C44.7235 275.817 44.9119 276.069 44.9748 276.257C45.1004 276.508 45.1631 276.697 45.2259 276.948C45.3515 277.387 45.3515 277.827 45.3515 278.141C45.2259 278.769 45.0375 279.146 45.1003 279.209Z" fill="#263238"/>
<path d="M97.9781 171.444L56.7185 172.763C56.7185 172.763 47.5497 234.118 47.8009 238.326L42.1489 282.788L58.6025 283.353C58.6025 283.353 61.1773 268.909 62.9985 259.05C64.1917 252.456 66.3897 242.847 67.0177 237.384C67.5829 231.92 75.8097 194.115 75.8097 194.115C75.8097 194.115 76.5005 238.012 76.5633 239.833C76.5633 241.654 74.6793 283.291 74.6793 283.291H91.0701C91.8865 275.755 93.8961 245.736 94.3357 239.645C95.0893 228.655 98.9829 197.129 99.2969 189.216C99.6109 181.366 97.9781 171.444 97.9781 171.444Z" fill="#263238"/>
<path d="M62.9981 178.038C62.9353 178.038 62.8097 177.159 62.8097 176.154C62.7469 175.086 62.8097 174.27 62.8725 174.207C62.9353 174.207 63.0609 175.086 63.0609 176.091C63.1237 177.159 63.0609 178.038 62.9981 178.038Z" fill="#455A64"/>
<path d="M64.5056 177.598C64.4428 177.598 64.4428 176.845 64.5056 175.965C64.5684 175.086 64.694 174.333 64.8196 174.333C64.8824 174.333 64.8824 175.086 64.8196 175.965C64.694 176.845 64.5684 177.598 64.5056 177.598Z" fill="#455A64"/>
<path d="M89.6881 177.536C89.7575 177.536 89.8137 176.917 89.8137 176.154C89.8137 175.391 89.7575 174.772 89.6881 174.772C89.6187 174.772 89.5625 175.391 89.5625 176.154C89.5625 176.917 89.6187 177.536 89.6881 177.536Z" fill="#455A64"/>
<path d="M91.2582 178.289C91.1954 178.289 91.007 177.473 91.0698 176.468C91.1326 175.463 91.4466 174.709 91.5094 174.709C91.5722 174.709 91.4466 175.526 91.321 176.468C91.321 177.473 91.3838 178.289 91.2582 178.289Z" fill="#455A64"/>
<path d="M78.1333 193.172C78.1333 193.172 78.1333 192.921 78.2589 192.482C78.3217 191.979 78.4473 191.288 78.5729 190.535C78.8241 188.902 79.1381 186.641 79.3893 184.129C79.5777 181.617 79.6405 179.294 79.6405 177.661C79.6405 176.844 79.6405 176.216 79.6405 175.714C79.6405 175.274 79.6405 174.96 79.6405 174.96C79.6405 174.96 79.7033 175.212 79.7033 175.651C79.7661 176.091 79.7661 176.782 79.8289 177.598C79.8917 179.231 79.8917 181.554 79.6405 184.129C79.4521 186.641 79.0753 188.965 78.7613 190.598C78.5729 191.414 78.4473 192.042 78.3217 192.544C78.2589 192.921 78.1333 193.172 78.1333 193.172Z" fill="#455A64"/>
<path d="M76.7517 175.4C76.7517 175.463 76.3121 175.4 75.9353 175.84C75.7469 176.091 75.6213 176.405 75.6841 176.782C75.7469 177.158 76.0609 177.472 76.5005 177.535C76.9401 177.598 77.3797 177.472 77.5681 177.158C77.7565 176.844 77.7565 176.468 77.6309 176.216C77.4425 175.651 77.0029 175.526 77.0029 175.463C77.0029 175.463 77.1285 175.463 77.2541 175.526C77.4425 175.588 77.6309 175.777 77.7565 176.091C77.8821 176.405 77.9449 176.844 77.6937 177.284C77.4425 177.724 76.8773 177.912 76.3749 177.786C75.8725 177.724 75.4329 177.284 75.3701 176.782C75.3073 176.279 75.4957 175.902 75.7469 175.651C75.9981 175.4 76.2493 175.337 76.4377 175.274C76.6261 175.337 76.7517 175.4 76.7517 175.4Z" fill="#455A64"/>
<path d="M58.7908 243.036C58.7908 243.099 56.9068 242.408 54.646 241.466C52.3852 240.524 50.564 239.707 50.564 239.645C50.564 239.582 52.448 240.273 54.7088 241.215C56.9696 242.157 58.7908 242.973 58.7908 243.036Z" fill="#455A64"/>
<path d="M100.176 174.207C100.051 173.705 96.7221 146.449 96.7221 146.449L98.4177 111.093L83.7225 105.943L81.3989 104.185L66.6409 104.373L64.9453 106.885L50.9409 113.228L54.8345 142.179L55.9021 166.42L56.9069 175.4L98.3549 177.849L100.176 174.207Z" fill="#F39B27"/>
<g opacity="0.3">
<path d="M97.9152 156.058L82.4036 157.942C82.278 159.073 83.1572 160.203 84.2248 160.643C85.2924 161.082 86.4856 161.019 87.6788 160.831C88.8092 160.643 90.0024 160.391 91.1328 160.517C92.2632 160.643 93.3936 161.082 94.5868 161.019C95.7172 160.957 96.8476 160.329 97.4756 159.387C98.0408 158.382 98.2292 157.126 97.9152 156.058Z" fill="black"/>
</g>
<path d="M98.4173 111.093C98.4173 111.093 101.871 111.596 103.881 117.624C105.891 123.653 110.601 145.57 110.915 147.078C111.229 148.585 109.91 153.42 104.635 155.556C99.6105 157.628 95.5913 157 95.5913 157V145.884L97.7893 143.498L96.9101 139.604L98.4173 111.093Z" fill="#F39B27"/>
<path d="M107.775 144.063C107.775 144.063 107.586 144 107.272 143.812C106.958 143.686 106.456 143.435 105.828 143.246C105.2 142.995 104.446 142.807 103.63 142.618C103.19 142.556 102.751 142.493 102.311 142.43C101.872 142.367 101.369 142.43 100.867 142.493C98.9199 142.87 97.3499 144 96.5963 145.005C96.2195 145.507 95.9683 146.01 95.8427 146.324C95.7171 146.7 95.7171 146.889 95.6543 146.889C95.6543 146.889 95.6543 146.826 95.6543 146.763C95.6543 146.638 95.7171 146.512 95.7171 146.324C95.8427 145.947 96.0311 145.444 96.4079 144.942C97.2243 143.874 98.7943 142.744 100.741 142.367C101.244 142.242 101.746 142.242 102.185 142.304C102.688 142.304 103.128 142.367 103.567 142.493C104.446 142.681 105.137 142.932 105.765 143.184C106.393 143.435 106.833 143.623 107.209 143.812C107.398 143.874 107.523 143.937 107.586 144C107.712 144 107.775 144 107.775 144.063Z" fill="#263238"/>
<path d="M104.635 141.991C104.635 141.991 104.195 141.802 103.504 141.677C102.814 141.551 101.809 141.488 100.741 141.74C99.6736 141.991 98.8572 142.556 98.292 142.996C97.7268 143.435 97.4756 143.812 97.4756 143.812C97.4756 143.812 97.5384 143.686 97.664 143.561C97.7896 143.372 97.978 143.184 98.2292 142.933C98.7316 142.43 99.6108 141.865 100.678 141.614C101.746 141.363 102.751 141.426 103.504 141.614C103.881 141.677 104.132 141.802 104.321 141.865C104.572 141.928 104.698 141.928 104.635 141.991Z" fill="#263238"/>
<path d="M97.2873 120.136C97.3501 120.136 97.2873 125.537 97.2245 132.194C97.1617 138.851 97.0361 144.251 96.9733 144.251C96.9105 144.251 96.9733 138.851 97.0361 132.194C97.1617 125.537 97.2873 120.136 97.2873 120.136Z" fill="#263238"/>
<path d="M97.601 144.691L89.3114 144.565C88.7462 144.565 88.2438 144.879 87.9298 145.382L82.2778 157.628L82.4662 158.444H92.0746L97.6638 145.821L97.601 144.691Z" fill="#263238"/>
<path d="M97.4757 146.324L97.1617 147.015L95.4661 150.406C95.4661 150.406 91.1329 150.029 90.4421 149.903C89.7513 149.841 89.3745 150.531 89.3745 150.971C89.3117 151.411 89.7513 151.913 89.7513 151.913C89.7513 151.913 87.0509 151.097 86.1717 150.406C85.2925 149.778 84.7901 150.155 84.7901 150.155C83.9737 149.338 82.9061 150.155 82.9061 150.406C82.8433 150.657 83.8481 153.043 84.2249 153.609C84.6017 154.174 86.6113 156.121 86.7369 156.309C86.8625 156.56 88.4325 156.937 90.1909 157.942C91.8237 158.821 93.0797 157.753 93.2681 157.628C93.2681 157.628 93.3937 157.628 93.5193 157.628C93.9589 157.565 95.0265 156.56 95.2777 156.56C95.5289 156.623 95.7801 156.497 96.3453 155.932C96.9105 155.304 98.3549 152.792 98.7317 151.411C99.0457 150.343 98.8573 150.029 98.7945 149.966C98.9201 150.029 99.4225 150.28 100.427 150.469C101.558 150.657 102.123 149.841 102.249 148.271C102.249 146.701 98.7945 146.701 97.4757 146.324Z" fill="#FFBF9D"/>
<path d="M96.9105 153.358C96.9105 153.358 96.7849 153.42 96.5965 153.42C96.4081 153.483 96.1569 153.483 95.7801 153.546C95.0893 153.609 94.1473 153.546 93.1425 153.358C92.1377 153.106 91.2585 152.792 90.6305 152.416C90.3165 152.227 90.1281 152.102 89.9397 151.976C89.8141 151.85 89.6885 151.788 89.6885 151.788C89.6885 151.788 90.0653 151.976 90.6305 152.29C91.2585 152.604 92.0749 152.918 93.0797 153.169C94.0845 153.358 95.0265 153.42 95.7173 153.42C96.4709 153.42 96.9105 153.358 96.9105 153.358Z" fill="#FF9A6C"/>
<path d="M96.9729 150.28C96.9729 150.343 96.5333 150.469 95.9681 150.531C95.4029 150.531 94.9005 150.406 94.9633 150.406C94.9633 150.343 95.4029 150.406 95.9681 150.406C96.5333 150.343 96.9729 150.217 96.9729 150.28Z" fill="#FF9A6C"/>
<path d="M99.0455 150.154C99.0455 150.217 98.4175 149.903 97.6011 149.715C96.7847 149.464 96.1567 149.401 96.1567 149.338C96.1567 149.275 96.8475 149.338 97.6639 149.589C98.4803 149.778 99.0455 150.092 99.0455 150.154Z" fill="#FF9A6C"/>
<path d="M98.6687 147.203C98.7315 147.203 98.5431 147.706 98.5431 148.271C98.5431 148.585 98.5431 148.836 98.6059 149.024C98.6687 149.213 98.7943 149.276 98.7943 149.276H98.7315C98.6687 149.276 98.6059 149.213 98.5431 149.087C98.4175 148.899 98.4175 148.585 98.4175 148.271C98.4175 147.643 98.6059 147.203 98.6687 147.203Z" fill="#FF9A6C"/>
<path d="M94.4612 155.995C94.4612 155.995 94.3984 155.995 94.3356 155.995C94.21 155.995 94.0844 155.995 93.9588 155.995C93.6448 155.995 93.1424 155.932 92.5772 155.869C92.012 155.806 91.2584 155.681 90.5048 155.43C90.128 155.304 89.7512 155.116 89.3744 154.927C88.9976 154.739 88.6208 154.488 88.244 154.236C86.5484 153.106 84.9784 152.164 83.9736 151.473C84.0364 150.971 84.3504 150.657 84.5388 150.468C84.6644 150.406 84.7272 150.343 84.79 150.28C84.8528 150.28 84.9156 150.217 84.9156 150.217C84.9156 150.217 84.79 150.28 84.6016 150.468C84.4132 150.657 84.162 150.971 84.0992 151.41V151.348C85.104 151.976 86.674 152.98 88.3696 154.048C88.7464 154.299 89.1232 154.55 89.5 154.739C89.8768 154.927 90.2536 155.116 90.6304 155.241C91.384 155.492 92.0748 155.618 92.64 155.681C93.2052 155.744 93.7076 155.806 94.0216 155.806C94.1472 155.806 94.2728 155.806 94.3984 155.869C94.4612 155.995 94.4612 155.995 94.4612 155.995Z" fill="#FF9A6C"/>
<path d="M93.0169 157.502C93.0169 157.502 92.8913 157.502 92.6401 157.44C92.3889 157.377 92.0121 157.314 91.5725 157.251C90.6305 157.063 89.3745 156.749 88.0557 156.184C87.3649 155.87 86.7997 155.556 86.2973 155.116C85.7949 154.739 85.4181 154.3 85.1041 153.986C84.7901 153.609 84.5389 153.358 84.4133 153.106C84.2249 152.918 84.1621 152.792 84.1621 152.792C84.1621 152.792 84.2877 152.918 84.4133 153.106C84.6017 153.295 84.8529 153.609 85.1669 153.923C85.4809 154.237 85.8577 154.676 86.3601 155.053C86.8625 155.43 87.4277 155.807 88.0557 156.058C89.3745 156.623 90.6305 156.937 91.5097 157.188C91.9493 157.314 92.3261 157.377 92.5773 157.44C92.8913 157.44 93.0169 157.44 93.0169 157.502Z" fill="#FF9A6C"/>
<path d="M52.5736 120.262C52.5108 120.262 52.134 119.132 51.6944 117.75C51.2548 116.368 50.9408 115.238 51.0036 115.175C51.0664 115.175 51.4432 116.306 51.8828 117.687C52.3224 119.132 52.6364 120.262 52.5736 120.262Z" fill="#263238"/>
<path d="M98.2921 112.789C98.2921 112.789 98.2921 113.103 98.2293 113.542C98.1665 114.045 98.1037 114.673 97.9781 115.301C97.9153 115.991 97.8525 116.557 97.7897 117.122C97.7269 117.561 97.7269 117.875 97.6641 117.875C97.6641 117.875 97.6641 117.561 97.6641 117.122C97.6641 116.682 97.7269 115.991 97.8525 115.301C97.9153 114.61 98.0409 113.982 98.1665 113.542C98.2293 113.04 98.2921 112.789 98.2921 112.789Z" fill="#263238"/>
<path d="M83.8477 154.299C83.8477 154.299 83.6593 154.488 83.2197 154.802C82.8429 155.116 82.2149 155.493 81.4613 155.995C79.9541 157 77.7561 158.256 75.3069 159.512C72.7949 160.768 70.4713 161.71 68.7757 162.275C67.8965 162.589 67.2057 162.777 66.7033 162.966C66.2009 163.091 65.9497 163.154 65.9497 163.154C65.9497 163.154 66.2009 163.029 66.7033 162.84C67.2057 162.652 67.8965 162.401 68.7129 162.087C70.4085 161.459 72.7321 160.454 75.1813 159.261C77.6305 158.005 79.8285 156.811 81.3357 155.807C82.0893 155.367 82.6545 154.99 83.1569 154.676C83.5965 154.425 83.8477 154.299 83.8477 154.299Z" fill="#263238"/>
<g opacity="0.3">
<path d="M52.5105 157.063C51.0033 156.246 49.4333 155.43 47.8005 154.99C46.1677 154.551 44.3465 154.488 42.7137 155.116C42.5253 155.179 42.3369 155.304 42.3369 155.493C42.3369 155.744 42.6509 155.869 42.9021 155.932C46.0421 156.435 49.3705 156.686 52.5733 157.125" fill="black"/>
</g>
<path d="M69.9693 184.255C69.9693 184.255 66.7038 181.617 65.8246 180.424C64.8826 179.231 64.2545 178.54 64.2545 178.54C64.2545 178.54 60.3609 177.41 58.9794 175.714C57.5349 174.081 55.2113 171.695 55.2113 171.695L50.627 176.53C50.627 176.53 53.2646 180.801 53.5158 182.245C53.7042 183.69 55.337 187.583 55.337 187.583L64.129 182.308C64.129 182.308 66.0129 184.946 67.2061 185.197C68.1481 185.511 69.8438 186.202 69.9693 184.255Z" fill="#FFBF9D"/>
<path d="M50.9407 113.228C50.9407 113.228 47.7379 114.044 44.5979 125.851C41.7719 136.527 37.8783 157.188 38.0039 159.26C38.1295 161.333 50.4383 179.984 50.4383 179.984L53.0759 180.926L58.7907 176.216C58.7907 176.216 60.6747 173.139 60.1095 172.386C59.6071 171.632 57.2207 170.062 57.2207 170.062L52.5735 157.188L55.1483 140.106L50.9407 113.228Z" fill="#F39B27"/>
<path d="M47.8008 156.309C47.8008 156.309 47.9264 156.309 48.1148 156.309C48.366 156.372 48.68 156.372 49.0568 156.435C49.936 156.56 51.1292 156.749 52.5736 157H52.6364V157.063C53.39 159.072 54.332 161.584 55.3368 164.347C56.0904 166.357 56.7812 168.304 57.3464 169.937L57.2836 169.874C57.6604 170.188 58.0372 170.502 58.414 170.816C58.728 171.13 58.9792 171.507 59.1676 171.883C59.5444 172.637 59.5444 173.391 59.4816 174.019C59.4188 174.647 59.1676 175.023 59.1048 175.337C58.9792 175.651 58.9164 175.777 58.9164 175.777C58.9164 175.777 58.9164 175.589 59.042 175.337C59.1048 175.023 59.2932 174.584 59.356 174.019C59.4188 173.453 59.356 172.763 58.9792 172.009C58.7908 171.632 58.5396 171.318 58.2256 171.004C57.9116 170.69 57.5348 170.439 57.158 170.125V170.062C56.53 168.429 55.8392 166.483 55.0856 164.473C54.0808 161.71 53.2016 159.198 52.448 157.188L52.5108 157.251C51.0664 157 49.8732 156.749 48.994 156.623C48.6172 156.56 48.3032 156.497 48.052 156.435C47.9264 156.309 47.8008 156.309 47.8008 156.309Z" fill="#263238"/>
<path d="M53.8296 126.04C53.8924 126.04 54.4576 134.769 55.0228 145.508C55.588 156.246 56.0276 164.976 55.902 164.976C55.8392 164.976 55.274 156.246 54.7088 145.508C54.1436 134.706 53.7668 126.04 53.8296 126.04Z" fill="#263238"/>
<path d="M77.0657 114.107C77.0657 114.107 76.8773 114.17 76.5633 114.17C76.2493 114.233 75.7469 114.233 75.1817 114.17C73.9885 114.107 72.3557 113.793 70.7229 112.977C69.0901 112.16 67.8969 111.03 67.1433 110.088C66.7665 109.648 66.5153 109.209 66.3269 108.958C66.1385 108.644 66.0757 108.518 66.0757 108.518C66.1385 108.518 66.5153 109.146 67.2689 109.962C68.0225 110.842 69.2785 111.909 70.8485 112.726C72.4185 113.542 74.0513 113.856 75.1817 113.982C76.3749 114.107 77.0657 114.044 77.0657 114.107Z" fill="#263238"/>
<path d="M83.6594 106.571C83.6594 106.571 83.9106 107.011 83.9734 107.764C84.0362 108.518 83.9734 109.586 83.5338 110.716C83.0314 111.784 82.3406 112.6 81.7126 113.04C81.0846 113.479 80.645 113.668 80.645 113.605C80.645 113.542 81.0218 113.354 81.587 112.851C82.1522 112.349 82.843 111.595 83.2826 110.59C83.7222 109.586 83.8478 108.518 83.785 107.764C83.7222 107.011 83.5966 106.571 83.6594 106.571Z" fill="#263238"/>
<path d="M88.4322 78.3115C89.8766 78.4999 91.321 77.4951 91.635 76.0507C91.949 74.6691 91.0698 73.0991 89.751 72.5967C90.6302 71.7175 90.8814 70.2103 90.3162 69.0799C89.751 67.9495 88.4322 67.2587 87.1762 67.4471C87.1762 66.1911 86.4226 64.9979 85.355 64.3699C84.2874 63.7419 82.843 63.7419 81.7754 64.3699C80.3938 63.1767 78.1958 63.0511 76.7514 64.1815C75.5582 63.9303 74.1766 64.5583 73.6114 65.6259C73.0462 66.6935 73.2346 68.2007 74.1138 69.0799" fill="#263238"/>
<path d="M88.8717 78.7508C88.4949 72.2824 83.1569 67.2584 76.6885 67.1328H76.0605C69.1525 67.384 65.5101 73.4756 65.9497 80.3836L66.6405 104.75C68.2105 108.455 70.7853 111.47 75.4953 112.286C77.3793 112.6 79.3889 112.16 80.8333 110.842C81.9009 109.9 82.5289 108.706 82.5917 107.074L82.6545 102.238C82.6545 102.238 89.3113 101.296 89.5625 94.6392C89.5625 91.3736 89.2485 84.7168 88.8717 78.7508Z" fill="#FFBF9D"/>
<path d="M82.6547 102.175C82.6547 102.175 78.3843 102.364 73.9883 99.4751C73.9883 99.4751 75.9351 104.311 82.5919 103.808L82.6547 102.175Z" fill="#FF9A6C"/>
<path d="M87.0505 84.5286C87.0505 85.031 86.6109 85.4706 86.1085 85.4706C85.6061 85.4706 85.1665 85.0938 85.1665 84.5914C85.1665 84.089 85.6061 83.6494 86.1085 83.6494C86.6109 83.6494 87.0505 84.0262 87.0505 84.5286Z" fill="#263238"/>
<path d="M87.3648 81.9535C87.2392 82.0791 86.5484 81.5139 85.4808 81.5139C84.476 81.5139 83.7224 82.0163 83.5968 81.8907C83.534 81.8279 83.6595 81.6395 83.9735 81.3883C84.2875 81.1371 84.8528 80.9487 85.4808 80.9487C86.1088 80.9487 86.674 81.1999 86.9252 81.4511C87.302 81.7023 87.4276 81.8907 87.3648 81.9535Z" fill="#263238"/>
<path d="M78.133 84.7797C78.133 85.2821 77.6934 85.7217 77.191 85.7217C76.6886 85.7217 76.249 85.3449 76.249 84.8425C76.249 84.3401 76.6886 83.9005 77.191 83.9005C77.6306 83.8377 78.0702 84.2773 78.133 84.7797Z" fill="#263238"/>
<path d="M77.3164 81.9535C77.1908 82.0791 76.5 81.5139 75.4324 81.5139C74.4276 81.5139 73.674 82.0163 73.5484 81.8907C73.4856 81.8279 73.6112 81.6395 73.9252 81.3883C74.2392 81.1371 74.8044 80.9487 75.4324 80.9487C76.0604 80.9487 76.6256 81.1999 76.8768 81.4511C77.2536 81.7023 77.3164 81.8907 77.3164 81.9535Z" fill="#263238"/>
<path d="M80.8961 89.6155C80.8961 89.5527 81.5241 89.4271 82.5917 89.3643C82.8429 89.3643 83.0941 89.3015 83.1569 89.1131C83.2197 88.9247 83.0941 88.6107 82.9685 88.3595C82.7173 87.7315 82.4661 87.0407 82.2149 86.3499C81.2101 83.5239 80.4565 81.1375 80.5821 81.1375C80.7077 81.0747 81.6497 83.3983 82.6545 86.2243C82.9057 86.9151 83.1569 87.6059 83.3453 88.2339C83.4081 88.5479 83.5965 88.8619 83.4709 89.2387C83.4081 89.4271 83.2197 89.5527 83.0313 89.6155C82.8429 89.6783 82.7173 89.6783 82.5917 89.6783C81.5241 89.6783 80.8961 89.6783 80.8961 89.6155Z" fill="#263238"/>
<path d="M77.0653 78.5626C77.0025 78.8766 76.0605 78.8138 74.9929 79.065C73.9253 79.3162 73.1089 79.7558 72.9205 79.5046C72.8577 79.379 72.9833 79.1278 73.2973 78.8138C73.6113 78.4998 74.1137 78.1858 74.8045 78.0602C75.4325 77.9346 76.0605 77.9346 76.4373 78.123C76.8769 78.2486 77.1281 78.437 77.0653 78.5626Z" fill="#263238"/>
<path d="M87.302 79.1278C87.1136 79.3162 86.36 79.065 85.418 78.9394C84.476 78.8138 83.7224 78.9394 83.534 78.6882C83.4712 78.5626 83.5968 78.3114 83.9736 78.123C84.3504 77.9346 84.9156 77.809 85.5436 77.8718C86.1716 77.9346 86.7368 78.1858 86.988 78.437C87.302 78.751 87.4276 79.0022 87.302 79.1278Z" fill="#263238"/>
<path d="M88.244 75.6737C88.244 75.6737 86.5484 71.4661 84.5388 70.4613C82.1524 69.2681 81.022 71.9057 78.6984 71.2149C76.3748 70.5241 74.114 69.3309 71.6648 71.0893C69.0272 73.0361 70.2204 74.4177 70.032 77.3693C69.1528 89.3641 66.892 92.6925 66.3896 87.0405C66.3268 86.4125 64.6312 85.9101 64.4428 83.2725C64.1916 79.8813 64.1288 75.7365 64.9452 73.3501C65.636 71.3405 66.8292 69.9589 68.9016 68.4517C72.23 66.0653 76.6888 66.1281 79.766 66.4421C82.7804 66.8189 88.6208 70.4613 88.244 75.6737Z" fill="#263238"/>
<path d="M66.8918 86.8519C66.8918 85.8471 66.0126 84.9679 64.945 85.0935C63.689 85.2191 62.3074 85.8471 62.3702 88.4219C62.433 93.0063 67.0174 92.0015 67.0174 91.8131C67.0174 91.7503 66.9546 88.7359 66.8918 86.8519Z" fill="#FFBF9D"/>
<path d="M65.95 90.1175C65.95 90.1175 65.8872 90.1803 65.7616 90.2431C65.636 90.3059 65.3848 90.3687 65.1964 90.2431C64.694 90.0547 64.3172 89.3011 64.2544 88.4847C64.2544 88.0451 64.3172 87.6683 64.4428 87.3543C64.5684 87.0403 64.8196 86.7891 65.008 86.7263C65.2592 86.6635 65.4476 86.7891 65.5104 86.9147C65.5732 87.0403 65.5732 87.1031 65.5732 87.1659C65.5732 87.1659 65.6988 87.1031 65.636 86.9147C65.636 86.8519 65.5732 86.7263 65.4476 86.6007C65.322 86.5379 65.1964 86.4751 65.008 86.4751C64.6312 86.4751 64.3172 86.8519 64.1916 87.1659C64.0032 87.5427 63.9404 87.9823 63.9404 88.4219C64.0032 89.3639 64.4428 90.1803 65.1336 90.3687C65.4476 90.4315 65.6988 90.3687 65.8872 90.2431C65.95 90.2431 66.0128 90.1175 65.95 90.1175Z" fill="#FF9A6C"/>
<path d="M67.1431 77.9973C67.7083 78.4369 68.3363 78.8137 69.0271 78.9393C69.7179 79.0021 70.5343 78.6253 70.7227 77.9345C70.7855 77.6205 70.7227 77.2437 70.9111 76.9925C71.1623 76.6785 71.6019 76.8041 71.9787 76.8669C73.2975 77.0553 74.6791 76.1133 75.0559 74.8573C75.3699 75.3597 76.1863 75.3597 76.6887 75.0457C77.1911 74.7317 77.5679 74.1665 77.9447 73.7269C78.3215 73.2873 78.9495 72.8477 79.5147 72.9733C79.8287 73.0361 80.1427 73.2245 80.5195 73.2245C81.1475 73.1617 81.3987 72.4709 81.5243 71.9057C81.6499 71.3405 81.7127 70.6497 82.2151 70.3357C82.7175 70.0217 83.2827 70.2101 83.8479 70.3357C84.4131 70.3985 85.1039 70.3357 85.2295 69.7705C85.2923 69.5193 85.1667 69.2053 85.0411 68.9541C84.3503 67.8237 82.8431 67.3213 81.5871 67.7609C81.1475 66.2537 79.7659 65.0605 78.1959 64.8721C76.6259 64.6837 74.9931 65.5001 74.2395 66.8817C73.2975 66.0025 71.9159 65.6257 70.5971 65.8769C69.3411 66.1281 68.2107 67.0701 67.7083 68.2633C66.5779 67.9493 65.3219 68.3889 64.6311 69.2681C63.9403 70.1473 63.8147 71.4661 64.3171 72.4709C63.5007 72.9105 62.7471 73.7269 62.7471 74.6689C62.6843 75.6109 63.6263 76.5529 64.5055 76.3645C64.1287 77.1181 64.3799 78.1229 65.1335 78.4997C65.8243 78.9393 66.8291 78.6881 67.3315 77.9973" fill="#263238"/>
<path d="M81.9012 69.0171C81.9012 69.0171 81.9012 69.0171 81.9012 69.0799C81.9012 69.1427 81.9012 69.2055 81.8384 69.3311C81.7756 69.5195 81.7128 69.8335 81.4616 70.2103C81.2732 70.5871 80.8964 70.9639 80.4568 71.2779C79.9544 71.5919 79.3264 71.8431 78.5728 71.7803L78.6356 71.6547C78.7612 72.0315 78.6984 72.5339 78.51 72.9107C78.3216 73.2875 78.0076 73.6643 77.6936 74.0411C77.5052 74.2295 77.3796 74.4179 77.1912 74.5435C77.0028 74.6691 76.7516 74.7947 76.4376 74.7947C75.9352 74.8575 75.37 74.6691 74.9932 74.2295L75.1816 74.1667C75.056 75.0459 74.4908 75.9879 73.6744 76.4903C73.2348 76.8043 72.6696 76.9927 72.1672 76.9299C71.6648 76.9299 71.1624 76.7415 70.7228 76.5531L70.8484 76.4903C70.5972 77.0555 70.2204 77.5579 69.718 77.8719C69.2784 78.2487 68.6504 78.4371 68.148 78.2487C67.0804 77.9975 66.3896 77.1183 66.264 76.2391L66.3896 76.3019C65.8244 76.5531 65.2592 76.6159 64.8196 76.4903C64.38 76.4275 64.0032 76.1763 63.752 75.9879C63.5008 75.7995 63.3124 75.5483 63.2496 75.4227C63.1868 75.2971 63.124 75.1715 63.124 75.1715C63.124 75.1715 63.2496 75.5483 63.752 75.9251C64.0032 76.1135 64.38 76.3019 64.8196 76.3647C65.2592 76.4275 65.8244 76.4275 66.3268 76.1763L66.3896 76.1135V76.2391C66.5152 77.0555 67.206 77.8719 68.2108 78.0603C68.7132 78.1859 69.2156 77.9975 69.6552 77.6835C70.0948 77.3695 70.4716 76.8671 70.7228 76.3647L70.7856 76.3019L70.8484 76.3647C71.288 76.5531 71.7904 76.6787 72.23 76.6787C72.7324 76.6787 73.172 76.5531 73.6116 76.2391C74.3652 75.7367 74.8676 74.9203 74.9932 74.0411L75.056 73.8527L75.1816 74.0411C75.4956 74.4179 75.998 74.6063 76.4376 74.5435C76.6888 74.5435 76.8772 74.4179 77.0656 74.2923C77.254 74.1667 77.3796 73.9783 77.568 73.7899C77.882 73.4759 78.196 73.0991 78.3216 72.7223C78.51 72.3455 78.5728 71.9687 78.4472 71.5919L78.3844 71.4663H78.51C79.2008 71.5291 79.8288 71.3407 80.3312 71.0267C80.8336 70.7127 81.1476 70.3359 81.336 70.0219C81.9012 69.5195 81.9012 69.0171 81.9012 69.0171Z" fill="#455A64"/>
<path d="M77.8193 90.9341C79.0753 91.1853 80.2685 91.5621 81.3989 92.1273V92.1901C81.2733 93.0065 80.9593 93.9485 80.2685 94.3881C79.7033 94.7021 79.0125 94.7021 78.4473 94.3253C77.8821 94.0113 77.5681 93.5089 77.4425 92.8181C77.3797 92.2529 77.6309 91.5621 77.8193 90.9341Z" fill="#FF9A6C"/>
<path d="M79.5144 94.5137C79.5144 94.4509 79.012 94.6393 78.384 94.1997C78.07 94.0113 77.8188 93.6345 77.6932 93.1321C77.5676 92.6297 77.6304 92.0645 77.8188 91.5621C77.8816 91.4365 77.9444 91.2481 77.9444 91.1853L78.1328 91.2481C78.384 91.3109 78.6352 91.4365 78.8864 91.4993C79.326 91.6249 79.8284 91.7505 80.2052 91.8761C80.9588 92.0645 81.4612 92.1901 81.4612 92.1901C81.4612 92.1273 81.0216 91.9389 80.268 91.6877C79.8284 91.5621 79.3888 91.3737 78.9492 91.2481C78.698 91.1853 78.4468 91.0597 78.1956 90.9969C78.1328 90.9969 78.07 90.9341 77.9444 90.9341C77.8188 90.8713 77.6304 90.9969 77.5676 91.0597C77.442 91.2481 77.442 91.3737 77.3792 91.4993C77.1908 92.0645 77.128 92.6925 77.3164 93.2577C77.442 93.8229 77.8188 94.1997 78.1956 94.4509C78.5724 94.7021 78.8864 94.7021 79.1376 94.7021C79.4516 94.6393 79.5144 94.5765 79.5144 94.5137Z" fill="#263238"/>
</svg>
