<svg width="311" height="314" viewBox="0 0 311 314" fill="none" xmlns="http://www.w3.org/2000/svg">
<path d="M104.132 21.7916C105.074 21.2264 106.016 20.7868 107.021 20.5356L107.649 17.6468L112.547 17.584L113.238 20.4728C114.243 20.724 115.247 21.1008 116.189 21.666L118.639 20.0332L122.155 23.4244L120.648 25.9364C121.213 26.8784 121.653 27.8204 121.904 28.8252L124.793 29.4532L124.856 34.3516L121.967 35.0424C121.716 36.0472 121.339 37.052 120.774 37.994L122.407 40.4432L119.015 43.96L116.503 42.4528C115.561 43.018 114.619 43.4576 113.615 43.7088L112.987 46.5976L108.088 46.6604L107.397 43.7716C106.392 43.5204 105.388 43.1436 104.446 42.5784L101.997 44.2112L98.4797 40.82L99.9869 38.308C99.4217 37.366 98.9821 36.424 98.7309 35.4192L95.8421 34.7912L95.7793 29.8928L98.6681 29.202C98.9193 28.1972 99.2961 27.1924 99.8613 26.2504L98.2285 23.8012L101.62 20.2844L104.132 21.7916ZM106.707 28.3228C104.697 30.3952 104.76 33.7236 106.832 35.7332C108.905 37.7428 112.233 37.68 114.243 35.6076C116.252 33.5352 116.189 30.2068 114.117 28.1972C112.044 26.1876 108.716 26.2504 106.707 28.3228Z" fill="#E0E0E0"/>
<path d="M105.262 183.564C105.764 183.25 106.33 182.999 106.958 182.811L107.334 181.178L110.16 181.115L110.537 182.748C111.102 182.874 111.73 183.125 112.233 183.439L113.677 182.497L115.687 184.444L114.808 185.888C115.122 186.39 115.373 186.956 115.561 187.584L117.194 187.96L117.257 190.786L115.624 191.163C115.498 191.728 115.247 192.356 114.933 192.859L115.875 194.303L113.928 196.313L112.484 195.434C111.982 195.748 111.416 195.999 110.788 196.187L110.412 197.82L107.586 197.883L107.209 196.25C106.644 196.124 106.016 195.873 105.513 195.559L104.069 196.501L102.059 194.554L102.938 193.11C102.624 192.608 102.373 192.042 102.185 191.414L100.552 191.038L100.489 188.212L102.122 187.835C102.248 187.27 102.499 186.642 102.813 186.139L101.871 184.695L103.818 182.685L105.262 183.564ZM106.769 187.27C105.639 188.463 105.639 190.347 106.832 191.54C108.025 192.67 109.909 192.67 111.102 191.477C112.233 190.284 112.233 188.4 111.04 187.207C109.846 186.076 107.9 186.076 106.769 187.27Z" fill="#E0E0E0"/>
<path d="M44.0322 37.303C44.409 37.1146 44.7858 36.9262 45.1626 36.8006L45.4138 35.6702L47.3606 35.6074L47.6118 36.7378C47.9886 36.8634 48.4282 36.989 48.805 37.1774L49.747 36.5494L51.1286 37.8682L50.5006 38.873C50.689 39.2498 50.8774 39.6266 51.003 40.0034L52.1334 40.2546L52.1962 42.2014L51.0658 42.4526C50.9402 42.8294 50.8146 43.269 50.6262 43.6458L51.2542 44.5878L49.9354 45.9694L48.9306 45.3414C48.5538 45.5298 48.177 45.7182 47.8002 45.8438L47.549 46.9742L45.6022 47.0998L45.351 45.9694C44.9742 45.8438 44.5346 45.7182 44.1578 45.5298L43.2158 46.1578L41.8342 44.839L42.4622 43.8342C42.2738 43.4574 42.0854 43.0806 41.9598 42.7038L40.8294 42.4526L40.7666 40.5058L41.897 40.2546C42.0226 39.8778 42.1482 39.4382 42.3366 39.0614L41.7086 38.1194L43.0274 36.7378L44.0322 37.303ZM45.037 39.8778C44.2206 40.6942 44.2834 42.013 45.0998 42.7666C45.9162 43.583 47.235 43.5202 47.9886 42.7038C48.805 41.8874 48.7422 40.5686 47.9258 39.815C47.1094 39.0614 45.8534 39.0614 45.037 39.8778Z" fill="#E0E0E0"/>
<path d="M137.793 33.284C138.484 32.8444 139.3 32.5304 140.054 32.2792L140.493 30.0184L144.261 29.9556L144.826 32.1536C145.643 32.342 146.396 32.656 147.15 33.0328L149.097 31.7768L151.797 34.4144L150.604 36.3612C151.044 37.052 151.358 37.8684 151.609 38.622L153.87 39.0616L153.932 42.8296L151.734 43.3948C151.546 44.2112 151.232 44.9648 150.855 45.7184L152.111 47.6652L149.474 50.3656L147.527 49.1724C146.836 49.612 146.02 49.926 145.266 50.1772L144.826 52.438L141.058 52.5008L140.493 50.3028C139.677 50.1144 138.923 49.8004 138.17 49.4236L136.223 50.6796L133.522 48.042L134.716 46.0952C134.276 45.4044 133.962 44.588 133.711 43.8344L131.45 43.3948L131.387 39.6268L133.585 39.0616C133.774 38.2452 134.088 37.4916 134.464 36.738L133.208 34.7912L135.846 32.0908L137.793 33.284ZM139.802 38.3708C138.232 40.0036 138.295 42.5784 139.928 44.1484C141.561 45.7184 144.136 45.6556 145.706 44.0228C147.276 42.39 147.213 39.8152 145.58 38.2452C143.947 36.6752 141.372 36.738 139.802 38.3708Z" fill="#EBEBEB"/>
<path d="M238.022 126.919C238.964 126.353 239.906 125.914 240.91 125.663L241.538 122.774L246.437 122.711L247.128 125.6C248.132 125.851 249.137 126.228 250.079 126.793L252.528 125.16L256.045 128.551L254.538 131.063C255.103 132.005 255.543 132.947 255.794 133.952L258.683 134.58L258.746 139.479L255.857 140.169C255.606 141.174 255.229 142.179 254.664 143.121L256.296 145.57L252.905 149.087L250.393 147.58C249.451 148.145 248.509 148.585 247.504 148.836L246.876 151.725L241.978 151.787L241.287 148.899C240.282 148.647 239.278 148.271 238.336 147.705L235.886 149.338L232.37 145.947L233.877 143.435C233.312 142.493 232.872 141.551 232.621 140.546L229.732 139.918V135.02L232.621 134.329C232.872 133.324 233.249 132.319 233.814 131.377L232.181 128.928L235.572 125.411L238.022 126.919ZM240.596 133.387C238.587 135.459 238.65 138.788 240.722 140.797C242.794 142.807 246.123 142.744 248.132 140.672C250.142 138.599 250.079 135.271 248.007 133.261C245.934 131.252 242.606 131.315 240.596 133.387Z" fill="#E0E0E0"/>
<path d="M272.436 32.1535C272.436 24.0523 265.088 17.6467 256.673 19.2167C251.398 20.2215 247.19 24.5547 246.248 29.8299C245.683 33.1583 246.374 36.2355 247.881 38.8103L247.944 38.8731C248.446 39.7523 249.074 40.3175 249.702 41.2595L257.364 51.3703C258.306 52.6263 260.19 52.6263 261.195 51.3703L268.731 41.3851C268.731 41.3851 270.112 39.6895 270.678 38.8731V38.8103C271.745 36.8635 272.436 34.6027 272.436 32.1535ZM259.248 37.9311C256.045 37.9311 253.47 35.3563 253.47 32.1535C253.47 28.9507 256.045 26.3759 259.248 26.3759C262.451 26.3759 265.026 28.9507 265.026 32.1535C265.026 35.2935 262.451 37.9311 259.248 37.9311Z" fill="#E0E0E0"/>
<path d="M40.2643 221.998C42.8391 220.24 44.2835 216.911 43.6555 213.52C42.7763 208.998 38.6943 205.984 34.4239 206.8C30.2163 207.617 27.4531 211.887 28.3323 216.409C29.0231 219.863 31.5979 222.438 34.6751 223.066C23.2455 227.148 26.2599 239.833 26.2599 239.833L54.1431 234.558C54.1431 234.558 52.2591 221.433 40.2643 221.998Z" fill="#EBEBEB"/>
<path d="M74.0508 276.131L68.336 274.687C68.336 274.687 67.1428 279.522 62.1188 278.392C59.4812 277.827 58.602 275.754 58.3508 274.31C58.0996 272.614 58.7276 270.982 59.9208 269.788C61.3024 268.407 63.8144 267.465 67.5196 269.098L70.7224 256.161L65.0704 254.779L63.1864 262.378C63.1864 262.378 54.7084 262.504 52.5732 271.233C50.5008 279.648 57.5344 283.416 60.8 284.232C63.1236 284.86 71.6644 286.305 74.0508 276.131Z" fill="#EBEBEB"/>
<path d="M65.4663 252.075L71.2593 253.502L72.5812 248.136L66.7882 246.709L65.4663 252.075Z" fill="#EBEBEB"/>
<path d="M34.424 137.658H47.5492L46.4188 143.561H22.7432L23.6852 138.851L37.878 127.735C41.3948 124.909 42.4624 123.277 42.4624 121.204C42.4624 119.132 40.8924 117.75 37.878 117.75C35.366 117.75 32.9796 118.881 31.2212 121.016L26.3856 117.499C28.8976 114.045 33.5448 111.784 38.9456 111.784C45.5396 111.784 49.8728 115.301 49.8728 120.137C49.8728 123.842 48.1772 126.982 42.7136 131.189L34.424 137.658Z" fill="#263238"/>
<path d="M78.8234 136.967H73.6738L72.355 143.498H65.3214L66.6402 136.967H49.8726L50.8146 132.131L69.215 112.349H77.1278L59.9834 131.126H68.2102L69.3406 125.286H76.0602L74.9298 131.126H80.0794L78.8234 136.967Z" fill="#263238"/>
<path d="M99.422 106.006H105.953L83.0312 148.02H76.5L99.422 106.006Z" fill="#263238"/>
<path d="M129.126 112.349L128.184 117.059L111.479 143.561H103.504L119.518 118.252H109.407L108.402 123.339H101.997L104.195 112.349H129.126Z" fill="#263238"/>
<path d="M19.8545 168.178L21.6757 164.724C23.3085 165.792 25.2553 166.357 27.1393 166.357C28.8977 166.357 29.9653 165.792 29.9653 164.913C29.9653 162.715 21.9897 163.908 21.9897 158.758C21.9897 155.242 25.0041 152.918 29.8397 152.918C32.1633 152.918 34.2357 153.42 35.7429 154.3L34.0473 157.754C32.7285 156.937 31.1585 156.498 29.5257 156.498C27.5789 156.498 26.5741 157.188 26.5741 158.068C26.5741 160.328 34.5497 159.01 34.5497 164.096C34.5497 167.613 31.4725 169.937 26.6369 169.937C23.8737 169.937 21.2989 169.183 19.8545 168.178Z" fill="#263238"/>
<path d="M42.8394 156.811L42.2742 159.575H49.559L48.8682 163.029H41.5834L41.0182 166.043H49.6218L48.8682 169.56H35.6802L38.9458 153.169H51.757L51.0034 156.749H42.8394V156.811Z" fill="#263238"/>
<path d="M63.7515 164.661L66.5147 169.56H61.6791L59.2299 165.227H56.9063L56.0271 169.56H51.3799L54.6455 153.169H61.6163C65.8239 153.169 68.2103 155.116 68.2103 158.381C68.3359 161.459 66.6403 163.719 63.7515 164.661ZM61.0511 156.874H58.6019L57.5971 161.647H60.3603C62.3699 161.647 63.5631 160.642 63.5631 158.884C63.6259 157.502 62.6211 156.874 61.0511 156.874Z" fill="#263238"/>
<path d="M88.6205 153.232L78.3213 169.56H73.7369L70.0317 153.169H74.8045L77.1281 163.845L83.8477 153.169H88.6205V153.232Z" fill="#263238"/>
<path d="M89.6253 153.232H94.2725L90.9441 169.56H86.2969L89.6253 153.232Z" fill="#263238"/>
<path d="M94.9634 162.715C94.9634 157 99.171 152.855 105.263 152.855C108.277 152.855 110.726 153.985 111.919 155.932L108.591 158.57C107.837 157.314 106.644 156.623 105.011 156.623C101.809 156.623 99.7362 159.072 99.7362 162.338C99.7362 164.536 101.243 166.043 103.755 166.043C105.2 166.043 106.581 165.478 107.775 164.159L110.538 166.859C108.717 169.057 106.267 169.874 103.379 169.874C98.1662 169.937 94.9634 166.985 94.9634 162.715Z" fill="#263238"/>
<path d="M118.639 156.812L118.074 159.575H125.358L124.668 163.029H117.383L116.818 166.043H125.421L124.668 169.623H111.542L114.808 153.232H127.619L126.866 156.812H118.639Z" fill="#263238"/>
<path d="M37.6898 103.118H28.521C28.521 90.3691 33.6706 77.3695 42.651 67.3843C52.1338 56.8967 64.3798 51.1191 77.191 51.1191C103.379 51.1191 121.653 70.2103 121.653 97.5911H112.485C112.485 75.2971 98.2918 60.2879 77.191 60.2879C56.5298 60.2251 37.6898 80.6351 37.6898 103.118Z" fill="#F39B27"/>
<path d="M42.6508 100.543C44.0952 100.543 45.2884 100.669 45.2884 100.794C45.2884 100.92 44.0952 101.045 42.6508 101.045C41.2064 101.045 40.0132 100.92 40.0132 100.794C40.0132 100.606 41.2064 100.543 42.6508 100.543Z" fill="#263238"/>
<path d="M48.9935 80.5094C50.1867 81.3258 51.0659 82.1422 50.9403 82.3306C50.8147 82.519 49.6843 82.0794 48.4283 81.3258C47.1723 80.5722 46.2931 79.7558 46.4815 79.5046C46.6699 79.2534 47.8003 79.693 48.9935 80.5094Z" fill="#263238"/>
<path d="M64.8192 66.6936C65.3844 68.0124 65.6984 69.2056 65.4472 69.3312C65.196 69.4568 64.5052 68.452 63.8772 67.1332C63.2492 65.8144 62.9352 64.6212 63.2492 64.4956C63.5004 64.37 64.254 65.312 64.8192 66.6936Z" fill="#263238"/>
<path d="M85.6687 64.998C85.2919 66.4424 84.7895 67.51 84.5383 67.4472C84.2871 67.3844 84.3499 66.1912 84.6639 64.7468C84.9779 63.3024 85.4803 62.2348 85.7943 62.2976C86.1083 62.4232 86.0455 63.6164 85.6687 64.998Z" fill="#263238"/>
<path d="M102.688 76.993C101.494 77.8094 100.364 78.3118 100.238 78.0606C100.113 77.8722 100.929 76.993 102.122 76.1138C103.316 75.2346 104.383 74.795 104.572 75.0462C104.76 75.2974 103.944 76.1766 102.688 76.993Z" fill="#263238"/>
<path d="M108.34 96.7119C106.895 96.7119 105.702 96.5863 105.702 96.4607C105.702 96.3351 106.895 96.2095 108.34 96.2095C109.784 96.2095 110.977 96.2723 110.977 96.4607C110.977 96.5863 109.784 96.7119 108.34 96.7119Z" fill="#263238"/>
<path d="M74.7418 99.4123C74.3022 99.4123 73.8626 99.2867 73.4858 98.9727L58.0998 87.0407C57.2206 86.3499 57.0322 85.0939 57.723 84.2147C58.4138 83.3355 59.6698 83.1471 60.549 83.8379L74.5534 94.7023L93.9586 76.9299C94.775 76.1763 96.0938 76.2391 96.8474 77.0555C97.601 77.8719 97.5382 79.1907 96.7218 79.9443L76.0606 98.9099C75.6838 99.2239 75.1814 99.4123 74.7418 99.4123Z" fill="#F39B27"/>
<path d="M85.1663 45.0276H67.5195C67.2683 45.0276 67.0171 44.7764 67.0171 44.5252V38.1196C67.0171 37.8684 67.2683 37.6172 67.5195 37.6172H85.1663C85.4175 37.6172 85.6687 37.8684 85.6687 38.1196V44.5252C85.6059 44.7764 85.4175 45.0276 85.1663 45.0276Z" fill="#F39B27"/>
<path d="M81.1475 41.3223H71.5391V50.0515H81.1475V41.3223Z" fill="#F39B27"/>
<path d="M42.7764 65.249L35.5544 74.2294C35.3032 74.6062 34.738 74.6062 34.424 74.355L29.4628 70.3358C29.086 70.0846 29.086 69.5194 29.3372 69.2054L36.5592 60.225C36.8104 59.8482 37.3756 59.8482 37.6896 60.0994L42.6508 64.1186C43.0276 64.3698 43.0904 64.8722 42.7764 65.249Z" fill="#F39B27"/>
<path d="M85.1665 45.0278C85.1665 45.1534 81.2101 45.2162 76.3745 45.2162C71.4761 45.2162 67.5825 45.1534 67.5825 45.0278C67.5825 44.9022 71.5389 44.8394 76.3745 44.8394C81.2101 44.8394 85.1665 44.9022 85.1665 45.0278Z" fill="#263238"/>
<path d="M36.4339 72.6598C36.3083 72.7854 34.9895 71.7806 33.3567 70.5246C31.7239 69.2686 30.3423 68.2638 30.4679 68.1382C30.5307 68.0126 32.0379 68.829 33.6707 70.085C35.3035 71.341 36.4967 72.5342 36.4339 72.6598Z" fill="#263238"/>
<path d="M37.9407 70.3986C37.8151 70.5242 36.4963 69.5194 34.8635 68.2634C33.2307 67.0074 31.8491 66.0026 31.9747 65.877C32.0375 65.7514 33.5447 66.5678 35.1775 67.8238C36.8731 69.0798 38.0663 70.273 37.9407 70.3986Z" fill="#263238"/>
<path d="M39.825 68.5148C39.6994 68.6404 38.3806 67.6356 36.7478 66.3796C35.115 65.1236 33.7334 64.1188 33.859 63.9932C33.9218 63.8676 35.429 64.684 37.0618 65.94C38.7574 67.196 39.9506 68.3892 39.825 68.5148Z" fill="#263238"/>
<path d="M41.6463 66.254C41.5207 66.3796 40.2019 65.3748 38.5691 64.1188C36.9363 62.8628 35.5547 61.858 35.6803 61.7324C35.7431 61.6068 37.2503 62.4232 38.8831 63.6792C40.5787 64.9352 41.7719 66.1284 41.6463 66.254Z" fill="#263238"/>
<path d="M114.683 68.4519L106.895 59.9739C106.581 59.6599 106.644 59.1575 106.958 58.8435L111.668 54.5731C111.982 54.2591 112.485 54.3219 112.799 54.6359L120.586 63.1139C120.9 63.4279 120.837 63.9303 120.523 64.2443L115.813 68.5147C115.499 68.8287 114.997 68.7659 114.683 68.4519Z" fill="#F39B27"/>
<path d="M108.34 61.0418C108.214 60.9162 109.47 59.7858 110.915 58.3414C112.359 56.897 113.552 55.7038 113.678 55.8294C113.803 55.8922 112.736 57.2738 111.291 58.7182C109.784 60.1626 108.403 61.1674 108.34 61.0418Z" fill="#263238"/>
<path d="M110.349 62.9256C110.224 62.8 111.48 61.6696 112.924 60.2252C114.369 58.7808 115.562 57.5876 115.688 57.7132C115.813 57.776 114.746 59.1576 113.301 60.602C111.794 61.9836 110.412 62.9884 110.349 62.9256Z" fill="#263238"/>
<path d="M111.919 65.0608C111.794 64.9352 113.05 63.8048 114.494 62.3604C115.939 60.916 117.132 59.7228 117.257 59.8484C117.383 59.9112 116.315 61.2928 114.871 62.7372C113.364 64.1816 111.982 65.1236 111.919 65.0608Z" fill="#263238"/>
<path d="M113.866 67.1961C113.741 67.0705 114.997 65.9401 116.441 64.4957C117.885 63.0513 119.079 61.8581 119.204 61.9837C119.33 62.0465 118.262 63.4281 116.818 64.8725C115.31 66.3169 113.992 67.2589 113.866 67.1961Z" fill="#263238"/>
<path d="M69.4665 45.0275C69.3409 45.0275 69.2153 43.3947 69.2153 41.3851C69.2153 39.3755 69.3409 37.7427 69.4665 37.7427C69.5921 37.7427 69.7177 39.3755 69.7177 41.3851C69.7805 43.3947 69.6549 45.0275 69.4665 45.0275Z" fill="#263238"/>
<path d="M72.9206 45.0275C72.795 45.0275 72.6694 43.3947 72.6694 41.3851C72.6694 39.3755 72.795 37.7427 72.9206 37.7427C73.0462 37.7427 73.1718 39.3755 73.1718 41.3851C73.1718 43.3947 73.109 45.0275 72.9206 45.0275Z" fill="#263238"/>
<path d="M76.3747 45.0275C76.2491 45.0275 76.1235 43.3947 76.1235 41.3851C76.1235 39.3755 76.2491 37.7427 76.3747 37.7427C76.5003 37.7427 76.6259 39.3755 76.6259 41.3851C76.6259 43.3947 76.5631 45.0275 76.3747 45.0275Z" fill="#263238"/>
<path d="M79.8284 45.0275C79.7028 45.0275 79.5771 43.3947 79.5771 41.3851C79.5771 39.3755 79.7028 37.7427 79.8284 37.7427C79.954 37.7427 80.0796 39.3755 80.0796 41.3851C80.0796 43.3947 79.954 45.0275 79.8284 45.0275Z" fill="#263238"/>
<path d="M83.2825 45.0275C83.1569 45.0275 83.0312 43.3947 83.0312 41.3851C83.0312 39.3755 83.1569 37.7427 83.2825 37.7427C83.4081 37.7427 83.5337 39.3755 83.5337 41.3851C83.5337 43.3947 83.4081 45.0275 83.2825 45.0275Z" fill="#263238"/>
<path d="M78.4314 99.9516C80.2217 98.1613 80.2217 95.2586 78.4314 93.4683C76.6411 91.678 73.7385 91.678 71.9482 93.4683C70.1579 95.2586 70.1579 98.1613 71.9482 99.9516C73.7385 101.742 76.6411 101.742 78.4314 99.9516Z" fill="#F39B27"/>
<path d="M79.7654 96.7121C79.7026 96.7121 79.7026 96.2725 79.5142 95.5817C79.3258 94.8909 78.8234 93.8861 77.8186 93.1325C76.8138 92.3789 75.181 91.9393 73.611 92.5673C72.041 93.1325 70.7222 94.7653 70.7222 96.7121C70.7222 98.6589 72.041 100.292 73.611 100.857C75.181 101.422 76.8138 101.045 77.8186 100.292C78.8234 99.5381 79.3258 98.5333 79.5142 97.8425C79.7654 97.0889 79.7654 96.7121 79.7654 96.7121C79.7654 96.7121 79.7654 96.8377 79.8282 97.0261C79.8282 97.2145 79.8282 97.5285 79.7654 97.9053C79.6398 98.5961 79.2002 99.7265 78.1326 100.543C77.065 101.422 75.3066 101.924 73.611 101.296C71.9154 100.731 70.4082 98.9101 70.4082 96.7749C70.4082 94.6397 71.9154 92.8185 73.611 92.2533C75.3694 91.6253 77.1278 92.1277 78.1326 93.0069C79.2002 93.8861 79.6398 94.9537 79.7654 95.6445C79.8282 96.0213 79.891 96.2725 79.8282 96.5237C79.8282 96.5865 79.8282 96.7121 79.7654 96.7121Z" fill="#263238"/>
<path d="M237.457 112.475L245.307 111.219C249.012 114.17 253.533 116.243 258.557 116.871C273.064 118.692 286.315 108.393 288.136 93.886C289.957 79.3792 279.721 66.1284 265.214 64.2444C250.707 62.4232 237.457 72.7224 235.635 87.2292C234.882 93.3208 236.201 99.1612 239.089 103.997L237.457 112.475Z" fill="white"/>
<path d="M237.457 112.475C237.457 112.475 237.457 112.286 237.519 111.909C237.582 111.533 237.708 111.03 237.833 110.277C238.085 108.832 238.524 106.697 239.027 103.934C239.027 103.871 239.089 103.871 239.089 103.871C239.089 103.871 239.089 103.871 239.152 103.871L239.027 103.934C237.268 100.982 235.51 96.7747 235.321 91.4367C235.259 90.1179 235.321 88.7363 235.51 87.3547C235.761 85.9731 235.949 84.4659 236.389 83.0215C237.205 80.1327 238.587 77.1183 240.659 74.4179C242.669 71.7175 245.369 69.2683 248.572 67.3843C251.775 65.5003 255.48 64.2443 259.437 63.8675C263.393 63.4907 267.538 63.9931 271.431 65.5003C275.325 67.0075 279.03 69.3939 281.856 72.7223L282.924 73.9783C283.238 74.4179 283.552 74.8575 283.866 75.2971C284.557 76.1763 284.996 77.1183 285.561 78.0603C285.813 78.4999 286.001 79.0651 286.252 79.5047C286.441 80.0071 286.692 80.4467 286.88 81.0119C287.194 82.0167 287.634 83.0215 287.822 84.0891C288.827 88.2339 288.827 92.4415 287.948 96.3351C287.069 100.229 285.247 103.808 282.987 106.76C280.663 109.711 277.837 112.035 274.885 113.668C271.871 115.301 268.731 116.305 265.717 116.745C264.209 116.996 262.702 116.996 261.321 116.996C259.876 116.871 258.495 116.808 257.239 116.557C252.026 115.552 248.07 113.228 245.432 111.093H245.495C242.92 111.47 240.973 111.784 239.592 111.972C238.964 112.098 238.461 112.161 238.085 112.223C237.582 112.475 237.457 112.475 237.457 112.475C237.457 112.475 237.645 112.412 237.959 112.412C238.336 112.349 238.838 112.286 239.466 112.161C240.785 111.909 242.732 111.595 245.307 111.219H245.369C248.007 113.291 251.901 115.615 257.113 116.557C258.432 116.808 259.751 116.871 261.195 116.996C262.639 116.996 264.084 116.996 265.591 116.745C268.605 116.305 271.683 115.363 274.697 113.668C277.649 112.035 280.412 109.711 282.735 106.823C284.996 103.934 286.755 100.417 287.634 96.5235C288.513 92.6299 288.513 88.4851 287.508 84.4031C287.32 83.3983 286.88 82.3935 286.566 81.3887C286.378 80.8863 286.127 80.4467 285.938 79.9443C285.687 79.4419 285.561 78.9395 285.247 78.4999C284.682 77.5579 284.243 76.6159 283.552 75.7367C283.238 75.2971 282.924 74.8575 282.61 74.4179L281.542 73.1619C278.716 69.8963 275.074 67.5099 271.243 66.0655C267.412 64.5583 263.267 64.0559 259.374 64.4327C255.48 64.8095 251.775 66.0655 248.635 67.8867C245.495 69.7079 242.795 72.1571 240.785 74.7947C238.775 77.4951 237.394 80.3839 236.515 83.2727C236.012 84.7171 235.824 86.1615 235.635 87.5431C235.447 88.9247 235.384 90.3063 235.447 91.6251C235.635 96.9003 237.331 101.108 239.027 104.059C239.027 104.122 239.027 104.122 239.027 104.185H238.964L239.089 104.122C238.524 106.823 238.085 108.958 237.833 110.402C237.708 111.093 237.582 111.658 237.519 112.035C237.457 112.286 237.457 112.475 237.457 112.475Z" fill="#263238"/>
<path d="M270.05 91.3742C270.05 89.867 271.243 88.6738 272.75 88.6738C274.257 88.6738 275.451 89.867 275.451 91.3742C275.451 92.8814 274.257 94.0746 272.75 94.0746C271.243 94.0746 270.05 92.8186 270.05 91.3742Z" fill="#263238"/>
<path d="M259.249 91.3742C259.249 89.867 260.442 88.6738 261.949 88.6738C263.456 88.6738 264.649 89.867 264.649 91.3742C264.649 92.8814 263.456 94.0746 261.949 94.0746C260.442 94.0746 259.249 92.8186 259.249 91.3742Z" fill="#263238"/>
<path d="M248.51 92.6929C247.756 91.3741 248.196 89.7412 249.514 88.9876C250.833 88.234 252.466 88.6736 253.22 89.9924C253.973 91.3112 253.534 92.944 252.215 93.6976C250.896 94.4512 249.263 94.0117 248.51 92.6929Z" fill="#263238"/>
<path d="M60.3602 187.772C58.7274 186.956 55.9014 185.323 54.2058 184.695C52.5102 184.067 50.5634 183.753 48.805 184.318C47.8002 184.632 46.7954 185.448 46.7954 186.516L53.5778 191.477L60.423 189.656V187.772H60.3602Z" fill="#FF9A6C"/>
<path d="M52.9499 187.709C52.9499 187.709 40.8295 185.072 38.8199 184.067C36.8103 182.999 26.2599 177.724 24.5015 177.724C22.7431 177.724 21.2359 178.227 20.9219 179.985L23.2455 181.806L23.5595 182.748L27.5159 184.821L28.2067 186.139L38.2547 191.477C38.2547 191.477 48.8051 196.815 50.5635 197.129C52.3219 197.443 61.1139 198.197 64.8819 201.337L79.9539 195.12C79.9539 195.12 75.6207 188.965 72.2295 187.395C69.2151 186.014 64.2539 186.014 60.7371 187.458L52.9499 187.709Z" fill="#FFBF9D"/>
<path d="M63.0605 197.82C63.0605 197.82 82.2146 239.645 85.3546 248.06C85.3546 248.06 106.832 244.543 107.523 232.611L79.8909 194.931L63.0605 197.82Z" fill="#FFBF9D"/>
<path d="M45.2255 188.651C45.2255 188.651 45.1627 188.651 45.0371 188.651C44.9115 188.651 44.7231 188.589 44.4719 188.526C43.9695 188.4 43.2787 188.086 42.4623 187.709C41.6459 187.333 40.7039 186.767 39.6363 186.202C39.1339 185.888 38.5687 185.574 38.0035 185.323C37.4383 185.009 36.8103 184.758 36.1823 184.507C34.9263 183.941 33.6703 183.502 32.5399 183.188C31.4095 182.937 30.2791 182.685 29.4627 182.937C28.6463 183.251 28.2695 183.941 28.0811 184.381C27.8927 184.821 27.7671 185.135 27.7671 185.072C27.7671 185.072 27.7671 185.009 27.7671 184.883C27.7671 184.758 27.8299 184.569 27.9555 184.318C28.0183 184.067 28.2067 183.816 28.3951 183.502C28.5835 183.188 28.9603 182.874 29.3999 182.748C29.8395 182.56 30.4047 182.56 30.9071 182.623C31.4723 182.685 32.0375 182.748 32.6027 182.937C33.7959 183.251 34.9891 183.69 36.3079 184.255C36.9359 184.507 37.5639 184.758 38.1291 185.072C38.6943 185.386 39.2595 185.7 39.7619 186.014C40.7667 186.642 41.7087 187.144 42.5251 187.584C43.3415 188.023 43.9695 188.275 44.4719 188.463C44.9743 188.589 45.2255 188.589 45.2255 188.651Z" fill="#FF9A6C"/>
<path d="M33.6705 182.623C33.6705 182.685 32.9797 182.497 31.9749 182.057C30.9701 181.618 29.5885 180.99 28.0185 180.487C27.2021 180.236 26.4485 180.236 25.6949 180.299C25.0041 180.362 24.3761 180.613 24.0621 181.053C23.7481 181.492 23.6225 181.932 23.5597 182.183C23.4969 182.497 23.4969 182.685 23.4969 182.685C23.4969 182.685 23.4341 182.497 23.4341 182.183C23.4341 181.869 23.4969 181.367 23.8737 180.927C24.0621 180.676 24.3133 180.487 24.6273 180.299C24.9413 180.173 25.3181 180.048 25.6949 179.985C26.4485 179.922 27.2649 179.922 28.1441 180.173C29.7769 180.676 31.1585 181.367 32.1633 181.869C33.0425 182.309 33.6705 182.56 33.6705 182.623Z" fill="#FF9A6C"/>
<path d="M63.9397 186.516C63.9397 186.516 63.7513 186.642 63.4373 186.705C63.1233 186.83 62.6209 186.956 62.0557 187.144C60.8625 187.458 59.1669 187.772 57.2829 187.835C55.3989 187.898 53.7033 187.772 52.4473 187.521C51.8193 187.395 51.3797 187.333 51.0029 187.207C50.6889 187.144 50.5005 187.081 50.5005 187.019C50.5005 186.956 51.2541 187.144 52.4473 187.27C53.6405 187.395 55.3361 187.521 57.2201 187.458C59.1041 187.395 60.7369 187.081 61.9301 186.83C63.1861 186.705 63.8769 186.453 63.9397 186.516Z" fill="#FF9A6C"/>
<path d="M242.543 161.71L214.597 155.932L207.752 150.72L170.888 157.816C170.323 158.884 164.294 167.236 164.294 167.236L149.788 172.197C143.57 173.893 138.044 177.347 134.025 182.245C130.948 186.013 127.556 191.163 124.605 198.008C118.074 213.331 108.654 231.041 108.654 231.041L102.75 221.495L77.8188 233.239C77.8188 233.239 92.3884 262.629 97.224 266.837C102.562 271.484 114.934 272.049 123.474 263.32C128.624 258.045 143.508 237.321 146.585 232.109L151.169 253.837L155.377 278.643L148.532 295.725H248.258L244.113 279.585C244.113 279.585 248.195 237.572 249.326 229.722C252.089 211.259 242.543 161.71 242.543 161.71Z" fill="#F39B27"/>
<path d="M242.543 161.71C242.543 161.71 262.514 167.299 266.91 187.144C269.547 199.202 278.59 233.428 281.793 261.688C283.677 278.455 283.614 293.967 283.677 295.725H253.031L240.031 167.299L242.543 161.71Z" fill="#F39B27"/>
<path d="M191.361 178.728C191.361 178.728 191.361 178.791 191.299 178.917C191.236 179.042 191.11 179.294 190.985 179.482C190.733 179.984 190.357 180.738 189.98 181.68C189.101 183.564 188.033 186.39 186.4 189.467L186.337 189.656L186.212 189.53C184.139 187.772 181.879 185.636 179.555 183.376C175.473 179.294 171.831 175.463 169.193 172.825C167.874 171.506 166.807 170.439 166.053 169.622C165.676 169.246 165.425 168.994 165.174 168.743C164.985 168.555 164.86 168.429 164.86 168.429C164.86 168.429 164.985 168.492 165.174 168.68C165.425 168.869 165.739 169.183 166.053 169.497C166.807 170.188 167.937 171.255 169.319 172.637C172.019 175.274 175.661 179.042 179.743 183.124C182.067 185.385 184.328 187.52 186.337 189.342L186.086 189.404C187.782 186.327 188.849 183.564 189.791 181.68C190.231 180.738 190.608 179.984 190.922 179.482C191.047 179.231 191.173 179.105 191.236 178.917C191.299 178.791 191.361 178.728 191.361 178.728Z" fill="black"/>
<path d="M215.037 156.623C215.037 156.623 215.037 156.749 214.974 157.063C214.911 157.377 214.848 157.816 214.723 158.319C214.472 159.386 214.095 160.956 213.592 162.84C212.525 166.671 210.766 171.821 208.568 177.41C207.438 180.361 206.308 183.187 205.24 185.699L205.177 185.888L205.052 185.762C202.226 183.25 199.651 181.303 197.955 179.796C197.076 179.043 196.385 178.477 195.946 178.038C195.757 177.849 195.569 177.661 195.443 177.535C195.318 177.41 195.255 177.347 195.255 177.347C195.255 177.347 195.318 177.41 195.443 177.473C195.569 177.598 195.757 177.724 196.008 177.912C196.511 178.352 197.202 178.854 198.081 179.608C199.839 181.052 202.414 182.999 205.303 185.511L205.052 185.574C206.119 183.062 207.187 180.236 208.38 177.284C210.515 171.695 212.336 166.545 213.467 162.715C214.032 160.831 214.472 159.261 214.723 158.193C214.848 157.691 214.911 157.251 215.037 156.937C214.974 156.749 215.037 156.623 215.037 156.623Z" fill="black"/>
<path d="M150.478 251.074C150.478 251.074 150.478 251.011 150.415 250.949C150.353 250.823 150.353 250.697 150.29 250.509C150.164 250.132 150.039 249.567 149.787 248.876C149.599 248.185 149.348 247.243 149.097 246.239C148.846 245.234 148.594 244.041 148.28 242.722C147.15 237.509 146.02 230.225 145.329 222.061C144.638 213.959 144.45 206.549 144.512 201.211C144.512 198.573 144.575 196.375 144.638 194.868C144.701 194.115 144.701 193.549 144.701 193.173C144.701 192.984 144.701 192.859 144.701 192.733C144.701 192.607 144.701 192.607 144.701 192.607C144.701 192.607 144.701 192.67 144.701 192.733C144.701 192.859 144.701 192.984 144.701 193.173C144.701 193.612 144.701 194.177 144.701 194.868C144.638 196.375 144.638 198.511 144.638 201.211C144.638 206.549 144.826 213.897 145.58 221.998C146.271 230.099 147.338 237.384 148.406 242.596C148.657 243.915 148.908 245.108 149.159 246.113C149.411 247.118 149.599 248.06 149.787 248.751C149.976 249.441 150.101 250.007 150.227 250.446C150.29 250.635 150.29 250.76 150.353 250.886C150.416 251.011 150.478 251.074 150.478 251.074Z" fill="black"/>
<path d="M244.239 183.69C244.239 183.69 244.302 183.753 244.302 183.878C244.364 184.004 244.427 184.192 244.553 184.381C244.741 184.883 245.055 185.511 245.369 186.39C245.558 186.83 245.746 187.332 245.934 187.835C246.123 188.4 246.311 188.965 246.562 189.593C246.751 190.221 247.002 190.912 247.253 191.603C247.442 192.356 247.693 193.11 247.881 193.926C249.765 200.395 250.707 209.752 250.142 219.988C249.577 230.225 248.384 239.456 247.63 246.113C247.253 249.442 246.939 252.142 246.688 254.026C246.562 254.968 246.5 255.659 246.437 256.161C246.437 256.412 246.374 256.601 246.374 256.726C246.374 256.852 246.374 256.915 246.311 256.915C246.311 256.915 246.311 256.852 246.311 256.726C246.311 256.601 246.311 256.412 246.374 256.161C246.437 255.659 246.5 254.905 246.562 254.026C246.751 252.142 247.002 249.442 247.379 246.113C248.07 239.456 249.2 230.225 249.765 220.051C250.33 209.815 249.388 200.52 247.567 194.052C247.379 193.236 247.128 192.482 246.939 191.728C246.688 191.038 246.5 190.347 246.311 189.719C246.123 189.091 245.934 188.526 245.746 187.96C245.558 187.395 245.369 186.956 245.181 186.516C244.867 185.637 244.616 185.009 244.427 184.506C244.364 184.318 244.302 184.13 244.239 184.004C244.239 183.753 244.239 183.69 244.239 183.69Z" fill="black"/>
<path d="M108.842 252.393C108.779 252.393 108.654 247.62 108.591 241.717C108.528 235.814 108.591 231.041 108.654 231.041C108.717 231.041 108.842 235.814 108.905 241.717C108.968 247.62 108.905 252.393 108.842 252.393Z" fill="black"/>
<path d="M199.463 281.406C199.463 281.406 199.463 281.344 199.463 281.155C199.463 280.967 199.526 280.716 199.526 280.402C199.588 279.711 199.714 278.706 199.902 277.45C199.965 276.822 200.091 276.131 200.154 275.315C200.216 274.561 200.342 273.682 200.405 272.803C200.593 270.982 200.844 268.909 201.033 266.648C201.158 265.518 201.221 264.325 201.347 263.069C201.472 261.813 201.472 260.494 201.598 259.175C201.786 256.475 201.849 253.586 201.975 250.572C202.1 244.48 202.1 237.823 201.786 230.79C201.41 223.756 200.844 217.099 200.154 211.07C199.777 208.056 199.4 205.167 198.96 202.53C198.772 201.211 198.584 199.892 198.332 198.636C198.081 197.38 197.893 196.187 197.704 195.056C197.328 192.796 196.888 190.723 196.511 188.965C196.323 188.086 196.134 187.206 196.009 186.453C195.82 185.699 195.695 185.008 195.569 184.38C195.318 183.124 195.067 182.182 194.941 181.492C195.13 182.182 195.318 183.124 195.632 184.38C195.758 185.008 195.946 185.699 196.134 186.453C196.323 187.206 196.448 188.023 196.637 188.965C197.014 190.786 197.453 192.796 197.893 195.056C198.081 196.187 198.332 197.38 198.521 198.636C198.772 199.892 198.96 201.148 199.149 202.53C199.588 205.23 199.965 208.056 200.342 211.07C201.096 217.099 201.661 223.819 202.038 230.852C202.352 237.886 202.352 244.606 202.226 250.697C202.1 253.712 202.038 256.663 201.849 259.364C201.786 260.745 201.724 262.001 201.598 263.257C201.472 264.513 201.41 265.706 201.284 266.837C201.096 269.16 200.844 271.233 200.656 272.991C200.53 273.87 200.468 274.75 200.342 275.503C200.216 276.257 200.154 277.01 200.028 277.638C199.84 278.894 199.714 279.899 199.588 280.59C199.526 280.904 199.526 281.155 199.463 281.344C199.463 281.281 199.463 281.406 199.463 281.406Z" fill="black"/>
<path d="M212.713 213.583C212.713 213.583 212.776 213.583 212.839 213.583C212.965 213.583 213.09 213.583 213.216 213.52C213.593 213.457 214.095 213.394 214.786 213.331C216.167 213.206 218.177 212.955 220.689 212.703C225.776 212.201 232.998 211.447 241.664 210.505H241.79V210.631C241.978 216.974 242.167 224.133 242.355 231.732V231.795L242.292 231.857C241.476 232.737 240.659 233.616 239.78 234.558C236.64 237.949 233.563 241.215 230.611 244.355L230.549 244.417L230.423 244.355C224.834 241.591 219.621 238.954 214.974 236.693L214.911 236.63V236.567C214.221 229.534 213.655 223.756 213.279 219.737C213.09 217.727 212.965 216.157 212.839 215.09C212.776 214.587 212.776 214.148 212.713 213.897C212.713 213.708 212.713 213.583 212.713 213.583C212.713 213.583 212.713 213.708 212.776 214.022C212.839 214.336 212.839 214.713 212.902 215.278C213.027 216.346 213.216 217.979 213.404 219.988C213.844 224.007 214.409 229.785 215.163 236.756L215.1 236.63C219.684 238.891 224.959 241.466 230.549 244.229L230.36 244.292C233.249 241.152 236.326 237.886 239.529 234.495C240.408 233.553 241.225 232.674 242.041 231.795L241.978 231.92C241.79 224.321 241.601 217.162 241.476 210.819L241.664 210.945C233.061 211.761 225.901 212.452 220.815 212.955C218.303 213.206 216.293 213.394 214.911 213.52C214.221 213.583 213.718 213.645 213.341 213.645C213.153 213.645 213.027 213.645 212.902 213.708C212.776 213.583 212.713 213.583 212.713 213.583Z" fill="black"/>
<path d="M241.853 218.041C241.853 218.041 241.476 218.167 240.785 218.23C240.094 218.355 239.089 218.481 237.771 218.669C235.259 218.983 231.742 219.36 227.911 219.737C224.08 220.114 220.626 220.428 217.989 220.679C216.795 220.804 215.728 220.93 214.974 220.993C214.283 221.056 213.844 221.118 213.844 221.056C213.844 221.056 214.221 220.93 214.911 220.867C215.602 220.742 216.607 220.616 217.926 220.428C220.438 220.114 223.955 219.737 227.785 219.36C231.616 218.983 235.07 218.669 237.645 218.418C238.838 218.292 239.906 218.167 240.659 218.104C241.413 218.041 241.79 217.978 241.853 218.041Z" fill="black"/>
<g opacity="0.3">
<path d="M247.881 242.721C248.258 246.992 248.572 251.262 248.949 255.533C251.273 244.543 254.915 232.736 254.35 221.495C253.785 210.317 252.717 199.578 246.437 189.404C246.437 189.404 250.707 200.143 250.142 213.268C249.577 226.456 247.881 242.721 247.881 242.721Z" fill="black"/>
</g>
<path d="M104.697 218.858C104.258 218.104 103.818 217.351 103.002 217.099C102.123 216.785 101.181 217.225 100.364 217.665C92.7653 221.433 85.1665 225.201 77.5677 229.031C76.0605 229.785 74.4277 230.664 73.8625 232.234C73.1089 234.244 74.4905 236.379 75.7465 238.075C77.8189 240.963 80.3309 244.103 83.9105 244.48L103.504 231.041C105.891 230.664 107.398 228.027 107.272 225.577C107.147 223.128 105.89 220.93 104.697 218.858Z" fill="#F39B27"/>
<path d="M107.146 227.085C107.146 227.085 107.083 227.147 106.958 227.336C106.77 227.524 106.581 227.713 106.33 227.901C105.765 228.403 105.011 229.094 104.006 229.974C101.997 231.669 99.1707 233.993 95.8423 236.316C92.5767 238.64 89.4367 240.587 87.1759 241.843C86.0455 242.471 85.1035 243.036 84.4755 243.35C84.1615 243.475 83.9103 243.601 83.7219 243.727C83.5335 243.789 83.4707 243.852 83.4707 243.852C83.4707 243.852 83.5335 243.789 83.7219 243.664C83.9103 243.538 84.1615 243.413 84.4755 243.224C85.1663 242.847 86.0455 242.282 87.1759 241.654C89.4367 240.273 92.5139 238.326 95.7795 236.002C99.0451 233.679 101.934 231.418 103.943 229.785C104.948 228.969 105.765 228.278 106.33 227.776C106.581 227.587 106.832 227.399 106.958 227.21C107.083 227.085 107.146 227.022 107.146 227.085Z" fill="black"/>
<g opacity="0.3">
<path d="M214.786 158.067C212.085 166.985 208.317 177.033 205.177 185.699C202.477 183.376 198.709 180.361 196.008 178.101C198.332 182.748 201.158 187.081 204.361 191.163C204.738 191.603 205.24 192.168 205.805 192.042C206.37 191.917 206.622 191.351 206.873 190.786C208.506 186.453 210.201 182.057 211.834 177.724C214.095 171.507 216.293 164.41 214.786 158.067Z" fill="black"/>
</g>
<path d="M172.333 61.1669C180.497 58.8433 188.158 61.1669 195.694 65.0605C203.23 68.9541 209.322 75.4225 213.216 82.8957C217.36 90.8085 219.182 100.04 217.674 108.832C216.167 117.624 211.206 125.914 203.733 130.812C193.559 137.532 179.555 137.155 169.067 130.938C158.58 124.72 151.672 113.291 149.85 101.233C148.594 92.9437 149.599 84.1517 153.493 76.7413C157.386 69.3309 164.232 63.3021 172.333 61.1669Z" fill="#263238"/>
<path d="M199.149 86.7265C197.579 83.7121 197.641 80.0697 196.762 76.8041C194.878 69.5193 188.221 64.2441 180.999 62.1089C174.28 60.1621 166.493 61.6065 159.019 64.9977C153.933 67.3213 149.223 70.9009 146.208 75.6109C142.189 81.8909 141.435 90.1177 144.324 97.0257L181.627 87.2288C185.521 89.7408 189.477 92.3156 193.999 93.5089C195.318 93.8228 196.699 94.0741 198.018 93.6973C199.337 93.3204 200.53 92.2529 200.719 90.9341C200.844 89.3641 199.839 88.0453 199.149 86.7265Z" fill="#263238"/>
<path d="M208.066 152.855L198.458 85.1567C198.018 81.9539 196.574 78.6883 193.371 78.8139L159.459 75.5483C148.846 76.0507 143.822 89.9923 144.764 100.543C145.831 112.286 147.527 126.668 150.227 135.146C155.691 152.227 169.444 152.416 169.444 152.416C169.444 152.353 170.26 155.807 171.328 162.15L193.308 176.782L208.066 152.855Z" fill="#FFBF9D"/>
<path d="M152.928 113.479C153.054 114.673 154.184 115.552 155.44 115.426C156.696 115.301 157.575 114.233 157.45 113.04C157.324 111.847 156.194 110.967 154.938 111.093C153.682 111.219 152.802 112.286 152.928 113.479Z" fill="#263238"/>
<path d="M148.971 107.513C149.285 107.765 150.793 106.257 153.242 105.881C155.628 105.504 157.638 106.446 157.826 106.132C157.952 106.006 157.575 105.504 156.696 105.064C155.879 104.625 154.498 104.248 152.991 104.499C151.483 104.75 150.29 105.504 149.662 106.132C149.034 106.823 148.846 107.388 148.971 107.513Z" fill="#263238"/>
<path d="M175.284 109.837C175.41 111.031 176.54 111.91 177.796 111.784C179.052 111.659 179.932 110.591 179.806 109.398C179.68 108.205 178.55 107.325 177.294 107.451C176.038 107.577 175.096 108.644 175.284 109.837Z" fill="#263238"/>
<path d="M171.956 104.311C172.27 104.562 173.777 103.055 176.226 102.678C178.613 102.301 180.622 103.243 180.811 102.929C180.936 102.804 180.56 102.301 179.68 101.862C178.864 101.422 177.482 101.045 175.975 101.296C174.468 101.548 173.275 102.301 172.647 102.929C171.956 103.62 171.768 104.185 171.956 104.311Z" fill="#263238"/>
<path d="M166.744 123.59C166.744 123.465 165.174 123.402 162.724 123.465C162.096 123.465 161.468 123.465 161.343 123.088C161.154 122.648 161.28 121.957 161.468 121.204C161.845 119.634 162.159 117.938 162.599 116.243C164.106 109.146 165.111 103.431 164.797 103.369C164.483 103.306 163.038 109.021 161.531 116.054C161.154 117.813 160.84 119.445 160.526 121.015C160.401 121.769 160.15 122.585 160.589 123.465C160.84 123.904 161.343 124.155 161.72 124.218C162.159 124.281 162.473 124.218 162.787 124.218C165.236 123.967 166.744 123.716 166.744 123.59Z" fill="#263238"/>
<path d="M169.444 152.415C169.444 152.415 181.314 151.348 191.927 142.619C191.927 142.619 186.463 156.309 170.575 157.691L169.444 152.415Z" fill="#FF9A6C"/>
<path d="M168.69 129.242C169.381 127.986 170.826 127.107 172.333 127.044C173.4 126.982 174.531 127.358 175.284 128.112C176.038 128.866 176.352 130.059 175.912 130.938C175.41 131.943 174.091 132.382 172.898 132.194C171.705 132.068 170.574 131.44 169.507 130.812C169.193 130.624 168.942 130.436 168.69 130.184C168.502 129.933 168.376 129.556 168.565 129.305" fill="#FF9A6C"/>
<path d="M174.091 124.156C173.714 124.219 174.091 126.793 172.144 128.991C170.198 131.189 167.372 131.315 167.372 131.692C167.372 131.88 168.062 132.131 169.256 131.943C170.449 131.817 172.019 131.189 173.275 129.808C174.468 128.489 174.845 126.856 174.719 125.789C174.656 124.721 174.28 124.156 174.091 124.156Z" fill="#263238"/>
<path d="M171.266 97.0888C171.58 97.7168 173.966 97.026 176.855 96.9632C179.744 96.8376 182.13 97.2772 182.444 96.6492C182.57 96.3352 182.067 95.77 181.062 95.2676C180.058 94.7652 178.488 94.3884 176.792 94.4512C175.034 94.514 173.526 95.0164 172.584 95.5816C171.58 96.2096 171.14 96.8376 171.266 97.0888Z" fill="#263238"/>
<path d="M148.092 96.8375C148.594 97.3399 150.164 96.5235 152.174 96.1467C154.184 95.7699 155.942 95.9583 156.193 95.3303C156.319 95.0163 155.942 94.5139 155.126 94.1371C154.309 93.7603 153.053 93.5091 151.672 93.7603C150.29 94.0115 149.16 94.7023 148.594 95.3303C147.966 96.0211 147.841 96.6491 148.092 96.8375Z" fill="#263238"/>
<path d="M204.675 80.949C200.091 71.2778 183.574 59.2202 173.087 61.3554L157.512 73.7898C159.333 79.4418 164.42 83.8378 170.261 84.7798C173.401 85.2822 176.98 85.031 179.115 87.4174C181.313 89.8038 180.748 93.7602 182.758 96.2722C185.584 99.7262 191.989 98.6586 194.313 102.489C195.318 104.185 195.192 106.32 196.26 108.016C197.641 110.214 203.984 112.412 206.308 111.281C208.631 110.151 208.129 106.006 208.631 103.683C209.511 99.7262 208.694 97.905 207.941 95.8326C206.182 90.997 206.81 85.5334 204.675 80.949Z" fill="#263238"/>
<path d="M199.337 114.296C199.148 112.977 200.153 109.711 201.409 109.272C204.738 108.204 211.018 107.513 212.399 116.243C214.283 128.175 201.974 127.609 201.849 127.295C201.786 127.044 199.965 118.755 199.337 114.296Z" fill="#FFBF9D"/>
<path d="M204.801 122.208C204.864 122.146 205.052 122.334 205.429 122.397C205.806 122.522 206.371 122.522 206.999 122.208C208.192 121.518 208.946 119.382 208.632 117.247C208.506 116.18 208.066 115.175 207.564 114.358C207.062 113.542 206.371 113.04 205.743 113.04C205.115 112.977 204.675 113.416 204.612 113.793C204.487 114.17 204.612 114.358 204.55 114.421C204.55 114.484 204.236 114.233 204.298 113.73C204.298 113.479 204.424 113.165 204.675 112.914C204.926 112.663 205.303 112.474 205.806 112.412C206.748 112.349 207.69 113.04 208.255 113.919C208.883 114.798 209.322 115.928 209.511 117.122C209.825 119.508 208.946 121.957 207.313 122.774C206.496 123.15 205.743 122.962 205.366 122.774C204.864 122.46 204.738 122.208 204.801 122.208Z" fill="#FF9A6C"/>
<path d="M160.526 69.7078C159.961 74.7318 153.304 81.8282 150.478 85.973C145.078 93.8858 144.136 96.4606 146.02 112.663C142.44 107.388 139.614 102.175 139.112 95.8326C138.609 89.4898 140.242 82.8958 144.073 77.8718C147.966 72.8478 154.184 69.5194 160.526 69.7078Z" fill="#263238"/>
<path d="M188.975 52.6891C191.487 49.9259 195.129 48.1047 198.897 47.1627C204.298 45.8439 210.138 46.1579 215.037 48.5443C219.935 50.8679 223.703 55.2639 224.708 60.2879C225.713 65.3119 223.766 70.9011 219.495 74.2295C222.196 76.8671 225.65 78.9395 229.418 80.0699C228.413 81.5771 226.529 82.5191 224.645 82.8331C222.761 83.1471 220.814 82.9587 218.93 82.7703C220.186 84.6543 222.133 86.0987 224.394 86.7895C221.317 87.6059 218.051 87.3547 215.037 86.4755C212.022 85.6591 209.259 84.2147 206.559 82.7075C197.39 77.3695 192.303 72.7223 186.086 64.4955C185.332 60.9159 186.463 55.4523 188.975 52.6891Z" fill="#263238"/>
<path d="M208.819 77.8721C202.1 68.0125 193.496 62.7373 185.709 61.1045L208.819 77.8721Z" fill="#263238"/>
<path d="M185.709 61.1045C185.709 61.1045 186.086 61.2301 186.839 61.4185C187.53 61.6069 188.598 61.9209 189.791 62.4233C192.24 63.3653 195.506 64.9981 198.771 67.4473C201.974 69.8965 204.486 72.5341 206.182 74.5437C206.998 75.5485 207.689 76.4277 208.129 76.9929C208.568 77.5581 208.819 77.8721 208.882 77.8721C208.882 77.8721 208.694 77.4953 208.254 76.8673C207.877 76.2393 207.187 75.3601 206.37 74.3553C204.737 72.2829 202.225 69.5825 198.96 67.1333C195.694 64.6841 192.366 63.0513 189.854 62.1721C188.598 61.7325 187.53 61.4813 186.839 61.2929C186.086 61.1673 185.709 61.1045 185.709 61.1045Z" fill="#455A64"/>
<path d="M216.858 86.2869C216.858 86.2869 216.795 86.2869 216.732 86.3497C216.606 86.4125 216.481 86.4753 216.292 86.5381C215.916 86.7265 215.35 86.9149 214.597 87.1661C213.09 87.6685 210.892 88.2337 208.128 88.4849C205.365 88.7361 201.974 88.6105 198.394 87.8569C194.752 87.1661 190.858 85.9101 186.902 84.2773C182.946 82.6445 179.24 81.0117 175.912 79.3789C172.584 77.7461 169.695 76.0505 167.434 74.4805C165.11 72.9105 163.415 71.4033 162.284 70.3357C161.719 69.8333 161.28 69.3309 161.028 69.0797C160.903 68.9541 160.777 68.8285 160.714 68.7657C160.652 68.7029 160.589 68.6401 160.589 68.6401C160.589 68.6401 160.589 68.7029 160.714 68.7657C160.777 68.8913 160.903 68.9541 161.028 69.1425C161.28 69.4565 161.719 69.8961 162.284 70.4613C163.415 71.5917 165.11 73.0989 167.371 74.7317C169.632 76.3645 172.521 78.0601 175.849 79.7557C179.178 81.3885 182.883 83.0841 186.839 84.7169C190.796 86.3497 194.689 87.6057 198.394 88.2965C202.037 88.9873 205.428 89.1129 208.254 88.8617C211.08 88.6105 213.278 87.9825 214.722 87.4173C215.476 87.1661 216.041 86.9149 216.418 86.7265C216.606 86.6637 216.732 86.6009 216.858 86.5381C216.795 86.2869 216.858 86.2869 216.858 86.2869Z" fill="#455A64"/>
<path d="M181.25 145.382L180.12 143.184C180.182 143.121 188.095 139.102 191.11 136.527C198.269 130.498 204.8 120.953 204.926 120.827L206.998 122.272C206.747 122.648 200.153 132.257 192.742 138.474C189.477 141.174 181.564 145.256 181.25 145.382Z" fill="#455A64"/>
<path d="M187.154 138.474C187.154 138.474 176.352 143.31 176.352 144.377C176.352 145.445 178.048 147.58 179.366 147.455C180.622 147.329 184.328 145.257 185.018 144.44C185.646 143.561 186.84 141.363 188.158 140.295L187.154 138.474Z" fill="#263238"/>
<path d="M206.873 106.132L204.361 106.006C204.361 105.881 204.8 95.3303 200.655 84.7171C195.192 70.6499 184.704 63.1139 169.507 62.2975C168.251 62.2347 166.869 62.3603 165.362 62.5487L166.492 61.4811C166.995 60.9787 167.623 60.6019 168.313 60.2879C169.255 59.9111 170.26 59.7227 171.265 59.8483C190.482 61.4811 199.148 73.7271 203.042 83.8379C207.375 95.0163 206.935 105.692 206.873 106.132Z" fill="#455A64"/>
<path d="M205.617 128.928C210.022 128.928 213.592 123.811 213.592 117.498C213.592 111.186 210.022 106.069 205.617 106.069C201.212 106.069 197.641 111.186 197.641 117.498C197.641 123.811 201.212 128.928 205.617 128.928Z" fill="#455A64"/>
<path d="M213.592 117.499C213.592 117.499 213.592 117.436 213.592 117.31C213.592 117.185 213.592 117.059 213.53 116.871C213.53 116.431 213.467 115.866 213.341 115.112C213.09 113.605 212.525 111.344 210.892 109.146C210.515 108.581 209.95 108.079 209.385 107.639C208.757 107.199 208.129 106.76 207.375 106.571C206.622 106.32 205.805 106.195 204.926 106.32C204.11 106.446 203.23 106.76 202.477 107.199C200.97 108.204 199.776 109.774 199.023 111.595C198.206 113.417 197.83 115.489 197.83 117.561C197.83 119.634 198.206 121.706 199.023 123.527C199.776 125.349 200.97 126.919 202.477 127.923C203.23 128.426 204.047 128.74 204.926 128.803C205.742 128.928 206.622 128.803 207.375 128.551C208.129 128.3 208.82 127.861 209.385 127.484C209.95 126.981 210.452 126.479 210.892 125.977C212.588 123.779 213.09 121.518 213.341 120.011C213.467 119.257 213.53 118.629 213.53 118.252C213.53 118.064 213.53 117.938 213.592 117.813C213.592 117.561 213.592 117.499 213.592 117.499C213.592 117.499 213.592 117.561 213.592 117.687C213.592 117.813 213.592 117.938 213.592 118.127C213.592 118.566 213.53 119.131 213.467 119.885C213.216 121.392 212.776 123.716 211.08 125.977C210.704 126.542 210.138 127.044 209.573 127.547C208.945 127.986 208.254 128.489 207.501 128.677C206.684 128.928 205.805 129.054 204.926 128.928C204.047 128.803 203.168 128.489 202.351 127.986C200.781 126.981 199.525 125.349 198.709 123.465C197.892 121.581 197.516 119.508 197.516 117.373C197.516 115.238 197.892 113.165 198.709 111.281C199.525 109.397 200.718 107.827 202.351 106.76C203.168 106.257 204.047 105.943 204.926 105.818C205.805 105.692 206.684 105.818 207.501 106.069C208.317 106.32 209.008 106.76 209.573 107.199C210.138 107.702 210.704 108.204 211.08 108.769C212.776 111.03 213.278 113.354 213.467 114.861C213.53 115.615 213.592 116.243 213.592 116.619C213.592 116.808 213.592 116.933 213.592 117.059C213.592 117.499 213.592 117.499 213.592 117.499Z" fill="#263238"/>
<path d="M206.872 124.156C209.682 124.156 211.959 120.894 211.959 116.871C211.959 112.847 209.682 109.586 206.872 109.586C204.063 109.586 201.786 112.847 201.786 116.871C201.786 120.894 204.063 124.156 206.872 124.156Z" fill="#455A64"/>
<path d="M211.897 116.871C211.834 116.871 211.897 116.306 211.708 115.364C211.52 114.422 211.206 112.977 210.138 111.596C209.636 110.905 208.882 110.277 207.94 109.963C207.438 109.837 206.935 109.774 206.433 109.837C205.931 109.9 205.365 110.088 204.926 110.402C203.984 111.03 203.23 112.035 202.728 113.166C202.225 114.296 201.974 115.615 201.974 116.934C201.974 118.252 202.225 119.571 202.728 120.702C203.23 121.832 203.984 122.837 204.926 123.465C205.428 123.779 205.931 123.967 206.433 124.03C206.935 124.093 207.501 124.03 207.94 123.904C208.882 123.59 209.636 122.962 210.138 122.272C211.206 120.89 211.52 119.446 211.708 118.504C211.897 117.436 211.897 116.871 211.897 116.871C211.897 116.871 211.897 116.996 211.897 117.248C211.897 117.499 211.897 117.876 211.834 118.378C211.708 119.32 211.394 120.827 210.327 122.272C209.824 122.962 209.008 123.716 208.003 124.03C207.501 124.218 206.935 124.281 206.37 124.218C205.805 124.156 205.24 123.904 204.737 123.59C203.733 122.962 202.916 121.895 202.414 120.702C201.911 119.508 201.66 118.19 201.66 116.808C201.66 115.426 201.911 114.108 202.414 112.914C202.916 111.721 203.733 110.654 204.737 110.026C205.24 109.712 205.805 109.523 206.37 109.398C206.935 109.335 207.501 109.398 208.003 109.586C209.008 109.963 209.761 110.654 210.327 111.344C211.394 112.789 211.708 114.296 211.834 115.238C211.897 115.74 211.897 116.117 211.897 116.368C211.959 116.745 211.959 116.871 211.897 116.871Z" fill="#263238"/>
<path d="M207.187 122.083C209.198 122.083 210.829 119.749 210.829 116.871C210.829 113.992 209.198 111.658 207.187 111.658C205.175 111.658 203.544 113.992 203.544 116.871C203.544 119.749 205.175 122.083 207.187 122.083Z" fill="#455A64"/>
<path d="M210.829 116.871C210.766 116.871 210.829 116.494 210.704 115.803C210.578 115.112 210.327 114.107 209.573 113.103C209.196 112.6 208.694 112.161 208.003 111.909C207.312 111.658 206.496 111.784 205.868 112.223C204.486 113.103 203.796 114.987 203.796 116.871C203.796 118.755 204.549 120.639 205.868 121.518C206.559 121.957 207.375 122.083 208.003 121.832C208.694 121.643 209.196 121.141 209.573 120.639C210.327 119.634 210.578 118.629 210.704 117.938C210.829 117.31 210.829 116.871 210.829 116.871C210.829 116.871 210.829 116.996 210.829 117.185C210.829 117.373 210.829 117.624 210.766 118.001C210.641 118.692 210.452 119.759 209.699 120.827C209.322 121.329 208.757 121.895 208.003 122.146C207.626 122.271 207.187 122.334 206.81 122.271C206.37 122.209 205.994 122.083 205.617 121.832C204.863 121.329 204.298 120.576 203.921 119.759C203.544 118.88 203.356 117.938 203.356 116.933C203.356 115.929 203.544 114.987 203.921 114.107C204.298 113.228 204.863 112.475 205.617 112.035C205.994 111.784 206.433 111.658 206.81 111.595C207.25 111.533 207.626 111.595 208.003 111.721C208.757 111.972 209.322 112.475 209.699 113.04C210.452 114.107 210.704 115.175 210.766 115.866C210.829 116.243 210.829 116.494 210.829 116.682C210.892 116.808 210.892 116.871 210.829 116.871Z" fill="#263238"/>
</svg>
