<svg width="212" height="133" viewBox="0 0 212 133" fill="none" xmlns="http://www.w3.org/2000/svg">
<path d="M32.2906 42.4521C32.1532 42.4521 32.0158 42.4521 31.8784 42.4521H32.2906ZM96.1066 51.8284V54.3483C96.1066 55.8914 96.1066 57.4151 96.1066 58.9387V54.3483C96.1066 53.5083 96.1066 52.6683 96.1066 51.8284Z" fill="#FEFEFF"/>
<path d="M170.404 77.5531C170.129 77.5335 169.796 77.5335 169.54 77.7875C168.559 78.7251 167.362 79.3892 166.184 80.0339C163.691 81.4012 161.021 82.3389 158.293 83.1202C156.075 83.7648 153.817 84.136 151.54 84.4876C149.793 84.7611 148.046 85.015 146.279 85.1127C145.16 85.1713 144.061 85.1908 142.942 85.1908C140.508 85.2299 138.074 85.2103 135.64 85.0541C134.816 84.9955 133.991 84.9955 133.167 84.9369C132.382 84.8783 131.596 84.6438 130.831 84.6438C129.535 84.6438 128.299 84.3118 127.023 84.175C125.688 84.0188 124.353 83.7648 123.038 83.4718C122.528 83.3546 121.978 83.2179 121.468 83.1788C120.466 83.1007 119.524 82.8077 118.543 82.6319C118.013 82.5342 117.502 82.2998 116.992 82.2217C116.089 82.0849 115.206 81.8505 114.342 81.6161C113.675 81.4403 112.968 81.3622 112.3 81.1278C111.574 80.8738 110.789 80.7761 110.043 80.6003C109.866 80.5613 109.768 80.5027 109.886 80.2878C109.925 80.2097 109.906 80.0729 109.906 79.9557C109.906 78.0219 109.906 76.088 109.906 74.1542C109.906 74.0565 109.847 73.9002 109.984 73.8612C110.122 73.8221 110.18 73.9198 110.259 74.037C110.907 74.9746 111.77 75.6778 112.772 76.2052C113.89 76.8108 115.088 77.0842 116.364 77.0842C117.561 77.0842 118.759 77.0843 119.936 76.7131C121.212 76.3029 122.429 75.8146 123.47 74.916C124.667 73.8807 125.59 72.6696 126.316 71.3022C126.826 70.3255 127.258 69.3098 127.494 68.255C127.749 67.1025 127.926 65.95 128.024 64.7584C128.161 62.9808 127.985 61.2032 127.651 59.4647C127.396 58.195 126.964 56.9644 126.316 55.8314C125.315 54.0734 123.882 52.7646 121.978 51.9833C120.859 51.534 119.701 51.2996 118.503 51.241C116.992 51.1628 115.5 51.3582 114.106 51.9637C112.477 52.6669 111.201 53.8194 110.18 55.2454C110.102 55.3431 110.043 55.4798 109.847 55.4994C109.847 55.304 109.847 55.1087 109.847 54.9133C109.847 54.0148 109.847 53.1162 109.866 52.2177C109.866 51.9637 109.788 51.8661 109.533 51.8661C107.236 51.8661 104.92 51.8661 102.623 51.8661C102.25 51.8661 102.132 51.9833 102.132 52.3739C102.152 57.9606 102.132 63.5668 102.132 69.1535C102.132 72.1031 102.152 75.0723 102.152 78.0219C103.585 78.5493 105.057 78.9986 106.49 79.5455C107.491 79.9362 108.532 80.2683 109.552 80.6003C111.437 81.1864 113.341 81.7724 115.245 82.2998C117.856 83.0421 120.486 83.6281 123.116 84.2336C124.863 84.6439 126.65 84.8783 128.397 85.2299C130.046 85.5619 131.714 85.7377 133.383 85.9721C135.13 86.2066 136.896 86.3824 138.683 86.4996C139.9 86.5777 141.136 86.6949 142.353 86.734C144.297 86.7926 146.24 86.7926 148.203 86.6949C149.577 86.6168 150.951 86.5777 152.325 86.4214C155.859 86.0112 159.353 85.4643 162.749 84.4094C165.772 83.4913 168.677 82.3389 171.425 80.7761C172.917 79.9362 174.31 78.9595 175.665 77.9437C175.763 77.8656 175.822 77.7875 175.861 77.6703C174.055 77.5726 172.23 77.6507 170.404 77.5531ZM109.729 64.5631C109.65 63.5278 109.69 62.4729 109.925 61.4767C110.396 59.4843 111.476 57.8629 113.537 57.2965C115.402 56.7886 117.247 56.8863 118.719 58.449C119.446 59.2108 119.799 60.1679 119.976 61.1837C120.172 62.2581 120.27 63.352 120.172 64.4654C120.054 65.8914 119.878 67.3173 119.171 68.6066C118.268 70.2669 116.913 71.2436 114.95 71.2632C114.205 71.2632 113.439 71.3218 112.752 70.9311C112.379 70.7162 111.986 70.5209 111.672 70.2474C110.868 69.5247 110.318 68.6261 110.004 67.5908C109.827 67.0048 109.729 66.3797 109.749 65.7546C109.729 65.3444 109.729 64.9537 109.729 64.5631Z" fill="#0E2E5C"/>
<path d="M185.971 76.4196C185.873 76.5564 185.618 76.654 185.441 76.5954C185.068 76.4978 184.715 76.5368 184.342 76.5368C181.927 76.5368 179.513 76.5173 177.098 76.5368C176.568 76.5368 176.215 76.361 175.921 75.9118C173.899 72.884 171.838 69.8563 169.796 66.8285C168.461 64.8556 167.107 62.9217 165.851 60.9098C165.635 60.5581 165.478 60.187 165.301 59.8354C165.262 59.7377 165.223 59.6401 165.105 59.6596C164.967 59.6791 164.967 59.8159 164.967 59.9331C164.967 60.6558 164.967 61.3981 164.967 62.1209C164.967 66.7504 164.967 71.3799 164.987 76.0094C164.987 76.4392 164.85 76.5564 164.437 76.5564C162.2 76.5368 159.942 76.5368 157.704 76.5564C157.292 76.5564 157.155 76.4782 157.155 76.029C157.174 70.4227 157.174 64.8165 157.174 59.1908H157.194C157.194 53.5846 157.194 47.9784 157.194 42.3526C157.194 41.9424 157.292 41.8252 157.724 41.8252C159.687 41.8447 161.65 41.8447 163.613 41.8252C164.025 41.8252 164.418 41.9229 164.83 41.9229C165.066 41.9229 165.046 42.1573 165.026 42.2549C164.948 43.0754 165.007 43.8958 165.007 44.7162C164.987 49.0136 164.987 53.2916 164.987 57.589C164.987 57.7648 164.889 58.0578 165.105 58.1164C165.281 58.1555 165.36 57.8625 165.458 57.7062C166.518 55.6552 167.912 53.7994 169.168 51.8851C170.464 49.9122 171.759 47.9393 173.094 45.9859C173.585 45.2827 174.056 44.5795 174.468 43.8372C174.802 43.2316 175.351 42.7628 175.666 42.1377C175.783 41.9033 175.999 41.8447 176.235 41.8447C179.061 41.8447 181.888 41.8447 184.715 41.8447C185.068 41.8447 185.068 41.9619 184.872 42.1963C183.988 43.1535 183.301 44.2474 182.536 45.3022C181.711 46.4156 180.907 47.5095 180.121 48.6425C179.474 49.5801 178.747 50.4592 178.08 51.3772C176.883 53.0181 175.685 54.6199 174.488 56.2412C174.056 56.8272 173.604 57.4327 173.173 58.0383C172.976 58.3118 172.937 58.5071 173.231 58.8196C173.82 59.4838 174.311 60.2651 174.841 60.9684C176.058 62.5701 177.216 64.2305 178.414 65.8518C179.16 66.848 179.866 67.8833 180.573 68.8991C181.476 70.1688 182.418 71.4385 183.36 72.6887C184.087 73.6849 184.833 74.6811 185.559 75.6774C185.637 75.775 185.716 75.8727 185.794 75.9704C185.834 76.1462 186.069 76.2634 185.971 76.4196Z" fill="#F39B27"/>
<path d="M61.0289 59.2518H61.0093V75.1914C61.0093 75.3086 60.9896 75.4454 60.9896 75.5626C60.97 76.4416 60.97 76.4611 60.1063 76.4611C57.9274 76.4611 55.7485 76.4611 53.5893 76.4611C53.2556 76.4611 53.177 76.383 53.177 76.0509C53.1967 71.6753 53.177 67.2997 53.1967 62.9242C53.1967 62.4749 53.0396 62.4163 52.6667 62.4163C50.2522 62.4358 47.8378 62.4163 45.4233 62.4163C43.3819 62.4163 41.3207 62.4358 39.2793 62.4163C38.8474 62.4163 38.71 62.5335 38.71 62.9828C38.7296 67.3193 38.71 71.6558 38.7296 75.9923C38.7296 76.383 38.6315 76.4807 38.2389 76.4611C36.0404 76.4416 33.8615 76.4611 31.6826 76.4611C30.917 76.4611 30.9367 76.4611 30.9367 75.6993C30.9367 69.6438 30.9367 63.5883 30.9367 57.5133C30.9367 57.0445 30.8778 56.5757 30.8582 56.1069C30.8582 55.9897 30.8974 55.9311 31.0152 55.9311C31.133 55.9311 31.2507 55.9311 31.3489 55.9311H52.49C53.0789 55.9311 53.177 55.8529 53.177 55.2474C53.177 51.0085 53.177 46.7697 53.177 42.5504C53.177 41.9839 53.1967 41.9448 53.7659 41.9448C56.0626 41.9448 58.3789 41.9644 60.6756 41.9644C60.97 41.9644 61.0682 42.0816 61.0682 42.355C61.0289 47.9612 61.0289 53.6065 61.0289 59.2518Z" fill="#0E2E5C"/>
<path d="M86.4295 60.871C86.2921 59.7967 86.0565 58.7418 85.7032 57.7261C85.1732 56.1829 84.1721 54.9327 82.9943 53.8584C81.7773 52.7254 80.3247 51.9441 78.6561 51.5924C77.8906 51.4166 77.1054 51.319 76.3006 51.2604C74.8284 51.1627 73.3758 51.2604 71.9428 51.612C68.8413 52.3738 66.5839 54.2295 64.7976 56.7689C63.4824 58.6442 62.9721 60.8124 62.815 63.0197C62.7169 64.5238 62.6973 66.0475 62.9917 67.5516C63.2861 68.9385 63.7573 70.2473 64.4247 71.4779C64.8565 72.2788 65.3865 73.0015 66.0343 73.6462C66.9765 74.6033 68.0758 75.3651 69.3321 75.9121C70.8632 76.5762 72.4532 77.0255 74.161 77.045C76.2024 77.0841 78.2243 77.0646 80.2265 76.6934C81.5024 76.459 82.7391 76.0488 83.9365 75.5214C84.2702 75.3651 84.4076 75.1893 84.4076 74.8377C84.388 73.4508 84.4076 72.0639 84.4076 70.677C84.4076 69.798 84.4076 69.798 83.6224 70.2082C81.6399 71.2826 79.5199 71.7514 77.2624 71.7514C76.6147 71.7514 75.9865 71.6537 75.3584 71.5756C74.6321 71.4974 73.9254 71.3412 73.2973 70.9896C71.5895 70.091 70.5884 68.7041 70.3921 66.7507C70.3528 66.3014 70.4902 66.2819 70.8436 66.2819C73.3758 66.2819 75.8884 66.2819 78.4206 66.2819V66.2624C80.9921 66.2624 83.5636 66.2624 86.1154 66.2624C86.3902 66.2624 86.5865 66.2428 86.5669 65.8912C86.5473 64.2308 86.6454 62.5509 86.4295 60.871ZM79.1469 61.6524C77.7336 61.6328 76.3202 61.6524 74.9069 61.6524C73.5132 61.6524 72.1195 61.6328 70.7062 61.6524C70.3528 61.6524 70.235 61.5156 70.2939 61.2031C70.7258 59.2106 71.6484 57.5503 73.5917 56.6517C74.5732 56.2024 75.5939 56.3001 76.6343 56.5736C78.2832 57.0229 78.9506 58.2339 79.3039 59.7381C79.4217 60.2655 79.2843 60.7929 79.461 61.3008C79.5395 61.5742 79.4021 61.6524 79.1469 61.6524Z" fill="#0E2E5C"/>
<path d="M154.957 47.7649C154.957 48.1166 154.859 48.1947 154.525 48.1752C151.482 48.1752 148.459 48.1752 145.417 48.1556C145.044 48.1556 144.965 48.2533 144.965 48.6244C144.985 53.1758 144.965 57.7467 144.965 62.2981C144.965 66.869 144.965 71.44 144.985 76.0109C144.985 76.4406 144.808 76.5188 144.474 76.5188C142.197 76.5188 139.92 76.5188 137.643 76.5188C137.251 76.5188 137.153 76.382 137.153 75.9913C137.172 66.869 137.153 57.7663 137.172 48.644C137.172 48.2338 137.054 48.1361 136.662 48.1556C133.678 48.1752 130.675 48.1556 127.672 48.1752C127.318 48.1752 127.22 48.097 127.24 47.7259C127.259 45.9678 127.259 44.1903 127.259 42.4322C127.259 41.8462 127.24 41.8462 127.848 41.8462C131.656 41.8462 135.445 41.8462 139.253 41.8462C144.062 41.8462 148.891 41.8462 153.7 41.8462C153.995 41.8462 154.289 41.9048 154.564 41.9048C154.996 41.9243 154.957 42.1392 154.957 42.4127C154.957 44.2098 154.937 45.9874 154.957 47.7649Z" fill="#F39B27"/>
<path d="M101.427 75.8148C101.427 76.2055 101.29 76.3617 100.936 76.4399C99.5818 76.7329 98.2274 76.9477 96.8533 77.0649C95.8718 77.1431 94.8903 77.2017 93.9285 77.0259C92.3777 76.7329 91.0233 75.9906 90.0614 74.7014C89.2959 73.6856 88.7266 72.5526 88.5696 71.3025C88.4911 70.5992 88.4714 69.857 88.4714 69.1342C88.4911 59.5431 88.4714 49.952 88.4714 40.3609C88.4714 39.9897 88.5696 39.892 88.9622 39.892C91.2392 39.9311 93.4966 39.9506 95.7737 39.892C95.8914 39.892 96.1466 39.853 96.1466 40.1851C96.127 44.0723 96.127 47.94 96.127 51.8272C96.127 52.6672 96.127 53.5071 96.127 54.3471V58.9375C96.127 62.0044 96.127 65.0712 96.127 68.138C96.127 69.0951 96.3429 69.9742 97.0888 70.6383C97.5403 71.0485 98.0507 71.322 98.6985 71.322C99.4051 71.322 100.112 71.2439 100.799 71.0876C101.407 70.9704 101.447 70.9899 101.447 71.5955C101.427 73.0019 101.407 74.4083 101.427 75.8148Z" fill="#0E2E5C"/>
<path d="M115.402 38.192C113.439 37.6646 111.575 36.8441 109.612 36.3753C109.612 36.2191 109.474 36.2191 109.376 36.18C108.866 36.0042 108.336 35.887 107.845 35.6916C106.196 35.0666 104.469 34.6368 102.78 34.1485C101.19 33.6992 99.6004 33.3085 97.9908 32.9178C95.2034 32.2146 92.416 31.6286 89.5697 31.1598C87.2926 30.7886 85.0156 30.398 82.7189 30.144C81.1682 29.9682 79.5978 29.851 78.0471 29.6948C76.6338 29.5385 75.2008 29.5385 73.7875 29.5189C72.3545 29.4994 70.9215 29.558 69.4886 29.558C67.3489 29.5775 65.2486 29.7729 63.1482 30.0464C61.2441 30.3003 59.3597 30.6324 57.4752 31.0621C54.8056 31.6872 52.1752 32.5076 49.6626 33.6015C46.9538 34.7736 44.3626 36.18 42.0071 37.9576C41.7912 38.1138 41.5163 38.231 41.3986 38.5045C40.7901 38.6413 40.1619 38.6217 39.5534 38.6217C36.8838 38.6022 34.2141 38.6022 31.5445 38.5827C31.4463 38.5827 31.3286 38.6217 31.1912 38.5241C31.3286 38.192 31.6623 38.0943 31.8978 37.8794C32.6438 37.2739 33.4093 36.6683 34.2141 36.1214C36.0201 34.9103 37.8652 33.7773 39.8086 32.8202C43.1849 31.1598 46.6593 29.812 50.2908 28.8353C52.6071 28.2102 54.9626 27.8 57.3182 27.3898C58.1034 27.253 58.9082 27.214 59.6934 27.0968C60.4982 26.9991 61.303 26.9405 62.1078 26.8233C62.1667 26.8233 62.2452 26.7842 62.3041 26.7842C63.9726 26.7061 65.6412 26.6084 67.3097 26.5693C68.5267 26.5498 69.7634 26.5693 71.0001 26.6279C72.3152 26.6865 73.6304 26.7647 74.9456 26.8623C76.4178 26.9795 77.8901 27.0772 79.3426 27.3116C81.5412 27.6828 83.7593 27.9953 85.9382 28.4251C88.0975 28.8548 90.2175 29.4213 92.3571 29.9096C93.7901 30.2222 95.1445 30.73 96.5578 31.1207C97.3823 31.3356 98.1675 31.6677 99.0115 31.8825C99.993 32.1365 100.935 32.4686 101.858 32.8202C103.35 33.4062 104.881 33.8555 106.373 34.4805C108.709 35.4572 111.084 36.3753 113.439 37.313C114.126 37.5864 114.774 37.8794 115.402 38.192Z" fill="#F39B27"/>
<path d="M186.207 77.5537C185.913 77.9444 185.54 78.1788 185.226 78.4327C182.948 80.1712 180.573 81.7926 178.002 83.0818C176.647 83.7655 175.293 84.3906 173.88 84.957C171.328 85.9923 168.697 86.8518 166.008 87.516C164.163 87.9653 162.278 88.3169 160.414 88.688C159.57 88.8638 158.686 88.9029 157.842 89.0396C156.252 89.3131 154.643 89.3912 153.033 89.5084C150.638 89.6842 148.243 89.567 145.848 89.5866C144.474 89.6061 143.12 89.4303 141.766 89.2545C141.648 89.235 141.53 89.235 141.432 89.2545C140.568 89.3522 139.744 89.0982 138.9 89.0005C137.643 88.8443 136.407 88.6294 135.17 88.4341C132.657 88.0434 130.164 87.555 127.691 86.969C123.608 86.0119 119.604 84.7617 115.619 83.4334C114.107 82.9255 112.616 82.3786 111.143 81.8121C110.751 81.6558 110.338 81.4995 109.907 81.4605C109.808 81.3628 109.671 81.3042 109.553 81.2651C107.983 80.6205 106.413 79.9368 104.803 79.3118C103.939 78.9797 103.134 78.5304 102.231 78.2765C102.231 78.1788 102.231 78.1007 102.251 78.003C103.684 78.5304 105.156 78.9797 106.589 79.5266C107.59 79.9173 108.631 80.2494 109.651 80.5815C111.536 81.1675 113.44 81.7535 115.344 82.2809C117.955 83.0232 120.585 83.6092 123.216 84.2147C124.963 84.625 126.749 84.8594 128.496 85.211C130.145 85.5431 131.813 85.7189 133.482 85.9533C135.229 86.1877 136.996 86.3635 138.782 86.4807C139.999 86.5588 141.236 86.676 142.453 86.7151C144.396 86.7737 146.339 86.7737 148.302 86.676C149.676 86.5979 151.05 86.5588 152.424 86.4025C155.958 85.9923 159.452 85.4454 162.848 84.3906C165.871 83.4725 168.776 82.32 171.524 80.7573C173.016 79.9173 174.41 78.9406 175.764 77.9249C175.862 77.8467 175.921 77.7686 175.96 77.6514C176.255 77.6318 176.53 77.5732 176.824 77.5732C179.886 77.5537 183.007 77.5537 186.207 77.5537Z" fill="#F39B27"/>
<path d="M109.592 36.3749C108.924 36.1405 108.237 35.9061 107.55 35.7693C106.451 35.5349 105.391 35.1638 104.311 34.8903C102.211 34.3434 100.111 33.8355 97.9907 33.4253C96.8522 33.2104 95.694 33.0346 94.5555 32.7807C93.5937 32.5658 92.6122 32.4876 91.6503 32.2728C90.6296 32.0384 89.5892 31.9602 88.5489 31.804C87.8226 31.6868 87.0963 31.6086 86.3503 31.6086C85.6633 31.6086 84.9959 31.4133 84.3285 31.3351C83.6218 31.257 82.9348 31.2375 82.2281 31.2375C81.5018 31.2375 80.7952 31.1593 80.0885 31.1007C79.9314 31.0812 79.794 31.0617 79.637 31.0617C77.3992 31.0617 75.1418 31.0617 72.904 31.0617C72.374 31.0617 71.8048 31.0226 71.2944 31.1203C70.47 31.2765 69.6455 31.257 68.8211 31.3547C68.1144 31.4328 67.4077 31.5696 66.7011 31.6282C65.1307 31.804 63.58 32.0579 62.0292 32.39C60.4589 32.7416 58.9277 33.1713 57.3966 33.6206C54.7859 34.402 52.3126 35.4959 49.957 36.8437C49.1718 37.293 48.3866 37.8009 47.7192 38.4064C47.5426 38.5627 47.3463 38.5822 47.1303 38.5822C45.3833 38.5822 43.6363 38.5822 41.8696 38.6017C41.7126 38.6017 41.5752 38.6017 41.4377 38.5236C41.5555 38.2501 41.8303 38.1329 42.0463 37.9767C44.4018 36.1991 46.9733 34.7926 49.7018 33.6206C52.234 32.5267 54.8448 31.7258 57.5144 31.0812C59.3792 30.6319 61.2833 30.2999 63.1874 30.0654C65.2877 29.792 67.4077 29.5966 69.5277 29.5771C70.9607 29.5576 72.3937 29.5185 73.8266 29.538C75.24 29.5576 76.6729 29.5576 78.0863 29.7138C79.637 29.8896 81.2074 30.0068 82.7581 30.1631C85.0548 30.4171 87.3318 30.8077 89.6089 31.1789C92.4355 31.6477 95.2426 32.2337 98.03 32.9369C99.62 33.3276 101.23 33.7183 102.82 34.1676C104.508 34.6559 106.235 35.0856 107.884 35.7107C108.375 35.9061 108.905 36.0037 109.415 36.1991C109.474 36.2186 109.592 36.2186 109.592 36.3749Z" fill="#0E2E5C"/>
<path d="M72.3158 101.833C72.3158 100.173 72.3158 98.4931 72.2962 96.8328C72.2962 95.6217 72.4532 95.8561 71.2754 95.817C70.9417 95.7975 70.8043 95.9147 70.8239 96.2663C70.8436 98.0439 70.8239 99.8214 70.8436 101.619C70.8436 102.029 70.6669 102.107 70.3332 102.126C69.8621 102.165 69.4106 102.068 68.9395 102.048C68.6647 102.048 68.5862 101.951 68.5862 101.677C68.6058 100.661 68.5862 99.6652 68.5862 98.6494C68.5862 98.0634 68.5862 98.0634 68.0169 98.0634C67.8402 98.0634 67.6439 98.0829 67.4673 98.0439C67.0354 97.9462 66.9962 98.1415 67.0158 98.4931C67.0354 99.4112 67.0158 100.31 67.0158 101.228C67.0158 101.951 67.0158 101.931 66.2895 101.97C65.8969 101.99 65.8184 101.833 65.8184 101.482C65.838 100.486 65.8184 99.4894 65.838 98.4931C65.838 98.1806 65.7791 98.0243 65.4258 98.0634C65.1706 98.0829 64.8762 98.0829 64.621 98.0439C64.3265 97.9853 64.2873 98.1025 64.3069 98.3564C64.3265 99.3331 64.3069 100.29 64.3069 101.267C64.3069 101.99 64.3069 101.97 63.5806 101.99C63.2273 101.99 63.1095 101.872 63.1291 101.54C63.1488 100.525 63.1291 99.5284 63.1488 98.5127C63.1488 98.2001 63.0899 98.0439 62.7365 98.0829C62.4813 98.122 62.2065 98.1025 61.9317 98.0829C61.6962 98.0634 61.6373 98.1415 61.6373 98.3955C61.6765 99.5284 61.6765 100.661 61.6765 101.794C61.6765 101.931 61.6962 102.048 61.4999 102.068C60.9699 102.087 60.4399 102.126 59.9099 102.146C59.6939 102.166 59.6547 102.048 59.7725 101.892C60.3025 101.208 60.2828 100.407 60.2828 99.6066C60.2828 99.0987 60.0865 98.7471 59.6154 98.5322C58.6339 98.1025 57.6328 98.1611 56.5925 98.2392C56.2391 98.2587 55.9447 98.4541 55.6699 98.6103C55.3165 98.8057 55.081 99.0792 55.081 99.5675C55.081 100.388 55.0417 101.208 55.6306 101.892C55.7876 102.068 55.7091 102.087 55.4932 102.165C54.9043 102.361 54.3743 102.048 53.805 102.068C53.6088 102.068 53.6088 101.912 53.6088 101.755C53.6088 101.286 53.6088 100.798 53.6088 100.329C53.6088 99.7042 53.6284 99.0596 53.6088 98.4345C53.6088 98.2783 53.6284 98.0634 53.3732 98.0829C52.2936 98.122 51.2139 98.0243 50.1343 98.2001C49.2706 98.3369 48.1517 99.5284 48.2302 100.447C48.2891 101.306 48.2499 102.185 48.2302 103.064C48.2302 103.357 48.2891 103.435 48.6032 103.435C49.6436 103.455 50.6839 103.338 51.7243 103.513C52.0188 103.552 52.0776 103.689 51.901 103.943C51.6654 104.275 51.2925 104.412 50.9195 104.431C50.0362 104.47 49.3099 104.9 48.505 105.252C48.8584 105.486 49.1332 105.291 49.4276 105.291C50.0362 105.31 50.6447 105.33 51.2532 105.291C52.215 105.232 52.961 104.783 53.3536 103.884C53.5106 103.552 53.648 103.416 54.021 103.416C56.5532 103.435 59.0854 103.416 61.598 103.416C62.0299 103.416 62.4813 103.455 62.8936 103.259C62.9721 103.22 63.0899 103.22 63.188 103.259C63.875 103.552 64.5621 103.416 65.2491 103.357C65.4847 103.338 65.7202 103.142 65.9754 103.279C66.3288 103.455 66.7213 103.435 67.0943 103.435C68.4095 103.435 69.7247 103.416 71.0399 103.435C72.0999 103.455 72.3747 103.318 72.3943 102.048C72.3354 101.951 72.3158 101.892 72.3158 101.833ZM52.0973 101.599C52.0776 101.912 51.9991 101.99 51.7047 101.951C51.4495 101.931 51.1747 101.951 50.8999 101.951C50.8802 101.951 50.8606 101.951 50.8606 101.951C50.468 101.912 49.8988 102.146 49.7417 101.853C49.5062 101.423 49.6043 100.818 49.7025 100.29C49.7613 99.9191 50.2128 99.6261 50.6643 99.6066C51.0765 99.587 51.4887 99.6066 51.8813 99.6066C52.058 99.6066 52.1365 99.7042 52.0776 99.841C51.8813 100.427 52.1365 101.013 52.0973 101.599ZM58.3788 102.009C58.0058 102.4 57.4758 102.439 57.1225 102.048C56.5728 101.443 56.2195 100.74 56.2588 99.8996C56.2784 99.587 56.4354 99.3722 56.7887 99.3722C57.0636 99.3722 57.358 99.3722 57.6328 99.3722C58.0254 99.3722 58.3984 99.3526 58.791 99.4308C59.0462 99.4894 59.1051 99.6261 59.1247 99.8214C59.1836 100.642 58.948 101.384 58.3788 102.009Z" fill="#0E2E5C"/>
<path d="M130.124 95.9166C130.105 95.8384 130.046 95.7017 129.928 95.7603C129.673 95.897 129.398 95.8189 129.143 95.8189C128.789 95.8189 128.691 95.9361 128.691 96.2877C128.711 98.1044 128.691 99.9015 128.711 101.718C128.711 102.07 128.593 102.148 128.279 102.148C127.631 102.167 126.983 102.031 126.355 102.05C126.022 102.07 125.923 101.953 125.923 101.62C125.943 100.527 125.923 99.4327 125.943 98.3388C125.943 98.1239 125.884 98.0262 125.668 98.0458C125.393 98.0458 125.099 98.0653 124.824 98.0262C124.53 97.9871 124.451 98.0653 124.451 98.3778C124.471 99.4913 124.471 100.585 124.471 101.699C124.471 101.855 124.549 102.089 124.255 102.109C123.627 102.128 122.999 102.109 122.37 102.031C122.194 102.011 122.194 101.874 122.194 101.757C122.194 101.386 122.194 100.995 122.194 100.624C122.174 99.3545 121.448 98.4755 120.231 98.163C119.976 98.1044 119.74 98.1239 119.485 98.1044C119.367 98.1044 119.21 98.1044 119.171 97.9676C119.132 97.8309 119.269 97.7527 119.367 97.6746C119.426 97.6355 119.485 97.5965 119.544 97.5574C120.074 97.1277 120.623 96.6979 121.153 96.2682C121.252 96.19 121.409 96.0924 121.35 95.9361C121.291 95.7994 121.114 95.8775 120.996 95.8775C120.722 95.858 120.427 95.7994 120.152 95.858C119.779 95.9361 119.367 95.7798 119.033 96.0728C118.503 96.5416 118.013 97.0495 117.404 97.4207C116.717 97.8504 116.521 98.3778 116.56 99.1396C116.58 99.5108 116.697 99.5499 116.992 99.5499C117.816 99.5499 118.641 99.5499 119.446 99.5499C120.29 99.5694 120.682 99.9796 120.682 100.8C120.682 101.113 120.682 101.445 120.682 101.757C120.702 101.972 120.623 102.05 120.407 102.05C118.68 102.05 116.933 102.05 115.206 102.05C114.931 102.05 114.892 101.953 114.892 101.699C114.911 100.839 114.931 99.9796 114.911 99.1396C114.911 98.8076 114.95 98.3778 114.833 98.163C114.695 97.909 114.185 98.1239 113.832 98.0653C113.773 98.0653 113.714 98.0653 113.655 98.0458C113.419 98.0067 113.341 98.1044 113.36 98.3388C113.38 99.1592 113.36 99.9601 113.36 100.78C113.36 102.089 113.36 102.07 112.045 102.05C111.751 102.05 111.653 101.953 111.653 101.66C111.653 100.585 111.633 99.5303 111.653 98.456C111.653 98.1044 111.555 98.0458 111.221 98.0653C110.612 98.1044 110.004 98.163 109.395 98.0653C108.924 97.9871 108.492 98.0653 108.06 98.1825C107.177 98.4364 106.176 99.4522 106.235 100.507C106.294 101.308 106.255 102.128 106.235 102.949C106.235 103.281 106.313 103.418 106.686 103.398C107.668 103.378 108.63 103.378 109.611 103.398C109.788 103.398 110.043 103.261 110.141 103.496C110.22 103.711 110.023 103.886 109.866 104.023C109.69 104.218 109.454 104.336 109.199 104.375C108.924 104.414 108.649 104.433 108.375 104.472C107.746 104.57 107.216 104.922 106.647 105.195C107.511 105.254 108.375 105.293 109.238 105.234C110.2 105.176 110.926 104.707 111.358 103.808C111.456 103.593 111.555 103.359 111.908 103.359C114.754 103.378 117.62 103.378 120.466 103.359C120.82 103.359 120.957 103.496 120.839 103.789C120.682 104.277 120.937 104.707 120.898 105.254C121.212 105 121.448 104.765 121.723 104.609C122.076 104.433 122.233 104.179 122.155 103.808C122.096 103.457 122.233 103.359 122.586 103.359C124.706 103.378 126.826 103.359 128.946 103.359C129.928 103.359 130.124 103.183 130.163 102.187C130.163 102.089 130.163 101.992 130.163 101.894C130.163 100.038 130.163 98.163 130.163 96.3072C130.183 96.19 130.163 96.0533 130.124 95.9166ZM110.161 100.78C110.161 101.953 110.161 101.953 108.983 101.953C108.669 101.953 108.335 101.953 108.021 101.953C107.786 101.953 107.668 101.874 107.668 101.601C107.687 101.191 107.668 100.78 107.766 100.37C107.864 99.9601 108.178 99.6671 108.669 99.628C109.081 99.5889 109.493 99.6085 109.886 99.6085C110.122 99.6085 110.161 99.7257 110.161 99.921C110.161 100.194 110.161 100.487 110.161 100.78Z" fill="#0E2E5C"/>
<path d="M183.792 102.05C183.792 100.311 183.792 98.5727 183.792 96.8342C183.792 95.6426 183.969 95.8575 182.752 95.8184C182.418 95.8184 182.32 95.9356 182.32 96.2677C182.34 98.0843 182.32 99.8815 182.34 101.698C182.34 102.05 182.183 102.128 181.888 102.128C181.299 102.128 180.73 102.108 180.141 102.128C179.847 102.128 179.788 102.011 179.788 101.737C179.808 101.21 179.808 100.663 179.788 100.135C179.749 99.0806 179.003 98.182 177.982 97.889C177.629 97.7913 177.295 97.8304 176.942 97.8304C175.764 97.8109 174.9 98.436 174.527 99.5494C174.39 99.9596 174.488 100.37 174.468 100.8C174.449 101.19 174.39 101.581 174.841 101.815C174.92 101.854 174.998 101.952 174.959 102.069C174.92 102.186 174.782 102.128 174.704 102.128C174.213 102.128 173.722 102.089 173.232 102.05C172.976 102.03 172.898 101.972 172.898 101.698C172.918 100.702 172.918 99.7057 172.918 98.7094C172.918 98.0648 172.918 98.0648 172.289 98.0453C172.113 98.0453 171.916 98.0648 171.74 98.0257C171.465 97.9671 171.406 98.0843 171.406 98.3188C171.426 99.2368 171.406 100.174 171.406 101.093C171.406 101.952 171.406 101.933 170.562 101.933C170.248 101.933 170.13 101.854 170.15 101.542C170.169 100.643 170.15 99.7447 170.15 98.8462C170.15 98.0453 170.15 98.0453 169.384 98.0453C169.247 98.0453 169.129 98.0648 169.011 98.0453C168.599 97.9281 168.599 98.182 168.638 98.4555C168.795 99.3345 168.697 100.214 168.717 101.093C168.736 101.952 168.717 101.952 167.873 101.952C167.559 101.952 167.5 101.835 167.5 101.561C167.519 100.565 167.5 99.5689 167.519 98.5727C167.539 98.2015 167.48 97.9867 167.029 98.0648C166.793 98.1039 166.558 98.0844 166.302 98.0648C166.086 98.0453 166.008 98.1039 166.028 98.3383C166.106 99.4713 165.988 100.604 166.086 101.737C166.106 101.952 166.028 102.05 165.812 102.03C165.458 102.011 165.105 102.011 164.752 102.03C164.457 102.05 164.398 101.933 164.418 101.659C164.438 100.057 164.418 98.4555 164.418 96.8733C164.418 95.7598 164.418 95.7794 163.279 95.8184C163.024 95.838 162.906 95.8966 162.906 96.1896C162.926 97.6937 162.926 99.1783 162.926 100.682C162.926 101.307 162.926 101.952 162.946 102.577C162.965 102.987 163.181 103.358 163.574 103.358C164.771 103.339 165.969 103.534 167.146 103.241C167.304 103.202 167.441 103.202 167.598 103.261C168.187 103.495 168.815 103.398 169.424 103.358C169.796 103.339 170.15 102.987 170.503 103.378C170.562 103.437 170.719 103.398 170.837 103.398H176.804C178.787 103.398 180.75 103.398 182.732 103.398C183.576 103.398 183.576 103.241 183.792 102.421C183.812 102.304 183.792 102.167 183.792 102.05ZM178.002 102.128C177.688 102.128 177.374 102.128 176.961 102.128C176.706 102.089 176.255 102.284 175.999 102.069C175.744 101.835 175.941 101.366 175.941 101.014C175.921 100.741 175.941 100.448 175.96 100.174C176.019 99.5885 176.431 99.2564 177.079 99.2564C177.786 99.2564 178.237 99.5689 178.276 100.174C178.316 100.741 178.296 101.288 178.296 101.854C178.296 102.05 178.198 102.128 178.002 102.128Z" fill="#0E2E5C"/>
<path d="M109.907 87.6526C109.907 87.8675 109.809 87.9066 109.632 87.9066C107.257 87.9066 104.862 87.9066 102.487 87.9066C102.173 87.9066 102.193 87.7503 102.193 87.5354C102.193 84.7811 102.193 82.0269 102.212 79.2531C102.212 78.921 102.212 78.5889 102.212 78.2373C103.115 78.4717 103.92 78.921 104.784 79.2726C106.374 79.8977 107.944 80.5814 109.534 81.226C109.672 81.2846 109.789 81.3432 109.887 81.4213C109.868 83.5114 109.887 85.582 109.907 87.6526Z" fill="#0E2E5C"/>
<path d="M94.6739 100.447C94.615 99.1582 93.5746 98.1424 92.2791 98.0838C91.6902 98.0643 91.1013 98.0643 90.4928 98.0448C90.2376 98.0253 90.1198 98.1424 90.0609 98.3769C90.002 98.6503 89.9039 98.9433 89.7469 99.1777C89.5113 99.5294 89.7272 99.5098 89.9628 99.5098C90.6302 99.5098 91.2976 99.4903 91.9454 99.5098C92.6913 99.5294 93.0446 99.9005 93.1232 100.604C93.1624 100.955 93.2017 101.326 93.2998 101.678C93.4176 102.03 93.2802 102.03 93.0054 102.03C91.2387 102.03 89.472 102.01 87.7054 102.03C87.3913 102.03 87.3324 101.932 87.3521 101.639C87.3717 100.76 87.3521 99.881 87.3717 98.9824C87.3717 98.0448 87.3717 98.0448 86.4687 98.0448C86.3902 98.0448 86.2921 98.0643 86.2135 98.0448C85.9584 98.0057 85.9191 98.1229 85.9191 98.3573C85.9387 99.4708 85.9191 100.565 85.9387 101.678C85.9387 101.912 85.9191 102.03 85.6246 102.01C85.0554 101.991 84.4861 101.991 83.9365 102.01C83.6813 102.01 83.6421 101.932 83.6421 101.698C83.6617 100.721 83.6421 99.7247 83.6421 98.748C83.6421 98.0252 83.6421 98.0057 82.9354 98.0057C82.6998 98.0057 82.4643 97.9471 82.2287 98.0448C82.1109 98.1034 81.6791 98.162 81.5613 98.1229C81.4632 98.0643 81.3454 98.0448 81.2276 98.0448C80.8939 98.0448 80.5406 98.0448 80.2069 98.0448C78.8524 98.0448 78.028 98.6699 77.5961 99.9396C77.498 100.252 77.5176 100.526 77.6746 100.799C78.1065 101.58 78.5972 102.303 78.9506 103.124C79.0291 103.299 79.1665 103.358 79.3628 103.358C80.0498 103.358 80.7565 103.358 81.4435 103.358C81.6791 103.358 81.8558 103.319 81.9343 103.026C81.9932 102.831 82.1502 102.635 82.3661 102.928C82.6213 103.28 82.9943 103.358 83.4065 103.358C85.1928 103.358 86.9987 103.358 88.785 103.358C90.6106 103.358 92.4558 103.358 94.3009 103.358C94.6346 103.358 94.7328 103.26 94.7328 102.928C94.6935 102.127 94.6935 101.287 94.6739 100.447ZM82.1306 101.619C82.1306 101.854 82.0717 101.952 81.8165 101.932C81.5024 101.912 81.1687 101.932 80.8546 101.932H80.8154C79.4806 101.932 79.4806 101.932 79.088 100.701C78.9309 100.233 79.3432 99.6661 79.8535 99.588C80.4817 99.5098 81.1098 99.5098 81.738 99.5098C82.0324 99.5098 82.1502 99.627 82.1502 99.9396C82.1109 100.506 82.1109 101.053 82.1306 101.619Z" fill="#0E2E5C"/>
<path d="M105.43 95.9941C105.391 95.8378 105.371 95.6815 105.097 95.7987C104.861 95.8964 104.567 95.8769 104.311 95.8183C103.997 95.7401 103.86 95.8183 103.88 96.1503C103.88 96.4824 103.88 96.8145 103.88 97.1661C103.88 98.6311 103.899 100.116 103.899 101.581C103.899 102.167 103.899 102.167 103.33 102.167C102.918 102.167 102.505 102.167 102.074 102.108C101.779 102.069 101.72 101.971 101.72 101.698C101.74 100.624 101.72 99.5688 101.72 98.4944C101.72 98.3186 101.76 98.0842 101.445 98.0842C100.523 98.1037 99.5806 98.0647 98.658 98.1233C97.3232 98.2014 96.381 99.1586 96.3221 100.487C96.2829 101.346 96.3221 102.206 96.3025 103.046C96.3025 103.339 96.3614 103.417 96.6558 103.417C97.6569 103.397 98.658 103.417 99.6592 103.417C99.7966 103.417 99.9732 103.397 100.032 103.554C100.091 103.71 100.032 103.847 99.9143 103.964C99.6788 104.218 99.404 104.413 99.0506 104.413C98.128 104.433 97.3625 104.901 96.538 105.214C96.6362 105.39 96.7932 105.37 96.911 105.351C97.5195 105.214 98.1084 105.331 98.7169 105.312C99.0899 105.312 99.4629 105.312 99.7966 105.195C100.523 104.921 101.171 104.55 101.387 103.749C101.465 103.476 101.563 103.417 101.799 103.417C102.545 103.417 103.291 103.417 104.037 103.417C105.155 103.417 105.371 103.222 105.43 102.108C105.43 102.03 105.43 101.971 105.43 101.893C105.371 100.057 105.43 98.2209 105.43 96.3847C105.45 96.2285 105.47 96.1113 105.43 95.9941ZM99.934 101.932C99.6395 101.932 99.3451 101.932 99.0506 101.932C98.9721 101.932 98.9132 101.932 98.8347 101.932C97.7747 101.932 97.7747 101.932 97.7747 101.483C97.7551 99.9985 98.0103 99.6078 98.9917 99.5688C100.228 99.5492 100.228 99.5492 100.228 100.78C100.228 101.053 100.228 101.346 100.228 101.62C100.248 101.874 100.15 101.952 99.934 101.932Z" fill="#0E2E5C"/>
<path d="M161.768 102.362C161.709 102.479 161.67 102.694 161.67 102.831C161.729 103.338 161.473 103.397 161.042 103.377C159.216 103.358 157.41 103.377 155.585 103.377C153.72 103.377 151.855 103.377 149.99 103.377C149.676 103.377 149.401 103.397 149.558 102.928C149.656 102.616 149.421 102.166 149.696 101.991C149.931 101.834 150.324 101.951 150.638 101.951C151.227 101.951 151.796 101.932 152.365 101.951C152.64 101.951 152.758 101.854 152.738 101.6C152.738 101.229 152.758 100.877 152.738 100.506C152.719 100.096 152.483 99.8028 152.09 99.666C151.462 99.4316 150.795 99.5488 150.167 99.5488C149.401 99.5488 149.48 99.5879 149.735 98.8847C149.99 98.1815 150.383 97.9666 151.109 98.0643C151.816 98.1424 152.542 98.0643 153.17 98.5331C153.837 99.0214 154.269 99.627 154.309 100.486C154.328 100.916 154.348 101.365 154.348 101.795C154.348 102.01 154.426 102.069 154.642 102.088C154.996 102.108 155.369 102.147 155.722 102.166C156.095 102.205 156.134 101.991 156.075 101.756C155.977 101.405 156.016 101.072 155.997 100.721C155.957 100.057 156.232 99.5293 156.625 99.0019C157.371 98.0447 158.392 98.0252 159.432 98.1619C160.178 98.2401 160.747 98.6698 161.179 99.2754C161.316 99.4512 161.395 99.666 161.454 99.8809C161.709 100.799 161.729 100.799 160.767 100.838C160.688 100.838 160.59 100.838 160.512 100.877C160.237 100.975 160.08 100.936 160.04 100.584C159.962 99.9004 159.609 99.6465 158.902 99.666C158.627 99.6856 158.352 99.6074 158.077 99.7442C157.567 100.018 157.371 100.526 157.528 101.209C157.626 101.639 158.195 102.108 158.686 102.108C159.628 102.108 160.57 102.108 161.513 102.108C161.768 102.049 161.984 102.01 161.768 102.362Z" fill="#0E2E5C"/>
<path d="M40.8108 98.0827C40.6145 98.0827 40.4182 98.1023 40.2219 98.0827C39.9274 98.0437 39.8685 98.1609 39.8882 98.4343C39.9078 99.5282 39.8882 100.622 39.9078 101.716C39.9078 102.009 39.8096 102.068 39.5545 102.048C38.8085 102.029 38.0626 102.029 37.3167 102.048C37.0222 102.048 36.9437 101.95 36.9437 101.657C36.9633 100.583 36.9633 99.5282 36.9437 98.4539C36.9437 98.3171 37.0026 98.0437 36.8063 98.0827C36.3156 98.1413 35.7659 97.7702 35.3341 98.2781C35.2752 98.3367 35.2359 98.3562 35.1574 98.2976C34.6274 97.9265 34.0189 98.0632 33.4496 98.0632C32.3896 98.0437 31.6437 98.6101 31.1333 99.4892C30.8978 99.8798 30.7996 100.329 31.0156 100.778C31.4082 101.56 31.84 102.302 32.2326 103.083C32.37 103.337 32.527 103.396 32.8019 103.396C33.4104 103.376 34.0189 103.376 34.6274 103.396C34.9808 103.415 35.2556 103.376 35.3733 102.966C35.4519 102.732 35.5893 102.732 35.707 102.927C35.923 103.279 36.2174 103.396 36.6296 103.376C37.2185 103.357 37.8074 103.376 38.4159 103.376C39.103 103.376 39.8096 103.376 40.4967 103.376C40.8108 103.376 41.1445 103.298 41.223 102.947C41.3015 102.595 41.38 102.224 41.38 101.833C41.3604 100.759 41.38 99.6845 41.38 98.5906C41.3996 98.0437 41.3996 98.0632 40.8108 98.0827ZM35.4322 100.739C35.4126 101.032 35.393 101.325 35.4126 101.618C35.4322 101.853 35.3733 101.95 35.1182 101.95C34.5096 101.931 33.9011 101.95 33.2926 101.95C33.1748 101.95 33.0374 101.97 32.9785 101.872C32.7233 101.403 32.4093 100.974 32.3504 100.427C32.3111 100.095 32.7822 99.704 33.2533 99.6064C33.9011 99.4696 34.5489 99.5478 35.1967 99.5478C35.3733 99.5478 35.4322 99.665 35.4322 99.8212C35.4322 100.114 35.4322 100.427 35.4322 100.739Z" fill="#0E2E5C"/>
<path d="M145.868 103.006C145.868 103.318 145.73 103.396 145.436 103.396C144.121 103.377 142.805 103.396 141.49 103.396C140.234 103.396 138.978 103.377 137.721 103.396C136.544 103.416 135.032 102.361 135.052 100.779C135.052 100.349 135.032 99.9387 135.052 99.509C135.052 99.2941 135.091 99.1378 135.405 99.255C135.621 99.3331 135.876 99.2745 136.112 99.2745C136.367 99.255 136.465 99.3136 136.445 99.6066C136.426 100.017 136.445 100.427 136.485 100.818C136.563 101.599 137.132 102.126 137.918 102.126C139.959 102.146 141.981 102.126 144.022 102.126C144.278 102.126 144.376 102.029 144.376 101.775C144.356 100.681 144.356 99.5871 144.337 98.4932C144.337 98.2392 144.376 98.1416 144.651 98.1611C144.965 98.1806 145.279 98.1806 145.593 98.1611C145.809 98.1611 145.907 98.2588 145.907 98.4541C145.868 99.9778 145.868 101.501 145.868 103.006Z" fill="#0E2E5C"/>
<path d="M35.667 50.3423C35.667 50.7721 35.3333 50.7916 35.0585 50.7916C34.0377 50.8111 32.9973 50.8111 31.9766 50.7916C31.7214 50.7916 31.4662 50.8307 31.211 50.7916C30.897 50.7525 30.8185 50.5572 30.7988 50.3619C30.7596 49.1703 30.6811 47.9787 30.8381 46.8067C30.8773 46.5137 31.054 46.3965 31.3288 46.3965H33.1936C33.8218 46.3965 34.4303 46.3965 35.0585 46.3965C35.4903 46.3965 35.6866 46.6309 35.6866 47.0216C35.667 48.1155 35.667 49.2289 35.667 50.3423Z" fill="#F39B27"/>
<path d="M47.1696 103.025C47.1696 103.318 47.0715 103.416 46.777 103.396C46.1096 103.377 45.4226 103.396 44.7552 103.396C44.0681 103.396 43.3811 103.396 42.6744 103.396C42.4389 103.396 42.3604 103.338 42.3604 103.103C42.3604 101.951 42.3407 101.951 43.4989 101.951C44.1074 101.951 44.7159 101.951 45.3244 101.951C45.5796 101.951 45.6581 101.873 45.6778 101.619C45.6974 101.169 45.6581 100.72 45.5796 100.29C45.5011 99.8801 45.1674 99.6653 44.7748 99.6067C44.127 99.4894 43.4793 99.5676 42.8315 99.548C42.3211 99.5285 42.3015 99.509 42.537 99.0597C42.5567 99.0206 42.5959 98.962 42.6156 98.923C42.7922 98.1025 43.3419 97.9658 44.0878 98.0635C44.6963 98.1416 45.3244 98.1025 45.8741 98.4346C46.6789 98.923 47.15 99.6066 47.1696 100.564C47.15 101.365 47.15 102.185 47.1696 103.025Z" fill="#0E2E5C"/>
<path d="M38.6312 54.6783C38.6116 55.0299 38.3368 55.2253 38.0031 55.2253C37.1197 55.2448 36.2168 55.2448 35.3334 55.2253C34.9408 55.2057 34.5875 55.0104 34.6268 54.483C34.666 54.1314 34.6268 53.7797 34.6268 53.4281C34.6268 52.9984 34.6268 52.5491 34.6268 52.1194C34.6268 51.8459 34.7642 51.7092 35.039 51.6896C36.099 51.592 37.159 51.592 38.1994 51.7092C38.4545 51.7287 38.6116 51.9045 38.6116 52.1584C38.6312 52.9984 38.6508 53.8383 38.6312 54.6783Z" fill="#F39B27"/>
<path d="M38.5141 45.2064C38.4945 45.558 38.1608 45.6166 37.8663 45.6166C37.3952 45.6362 36.9437 45.6166 36.4726 45.6166C36.0408 45.6166 35.5893 45.6166 35.1574 45.6166C34.6667 45.5971 34.5293 45.4213 34.5293 44.9525C34.5489 44.2688 34.5489 43.5851 34.5293 42.9014C34.5293 42.5694 34.6667 42.4521 34.9808 42.4521C36.0015 42.4521 37.0026 42.4521 38.0234 42.4521C38.3374 42.4521 38.4552 42.6084 38.5141 42.8819C38.6711 43.6437 38.5534 44.4446 38.5141 45.2064Z" fill="#0E2E5C"/>
<path d="M148.557 102.968C148.557 103.281 148.498 103.437 148.145 103.398C147.87 103.359 147.615 103.379 147.34 103.398C147.065 103.418 147.006 103.32 147.026 103.066C147.104 101.933 147.045 100.8 147.045 99.6671C147.045 98.4951 147.045 97.3426 147.045 96.1705C147.045 95.9361 147.124 95.858 147.359 95.8384C148.557 95.7408 148.557 95.7408 148.557 96.9323C148.557 98.9443 148.537 100.956 148.557 102.968Z" fill="#0E2E5C"/>
<path d="M132.54 96.7155C132.54 97.6727 132.54 98.6494 132.54 99.6261C132.54 100.759 132.54 101.892 132.54 103.045C132.54 103.298 132.481 103.435 132.186 103.396C132.01 103.377 131.813 103.396 131.637 103.396C131.067 103.396 131.067 103.396 131.067 102.81C131.067 100.681 131.067 98.5517 131.067 96.4225C131.067 95.8561 131.067 95.8365 131.637 95.8365C132.697 95.817 132.52 95.7388 132.54 96.7155Z" fill="#0E2E5C"/>
<path d="M74.6512 99.6461C74.6512 100.779 74.6512 101.912 74.6512 103.045C74.6512 103.319 74.5727 103.416 74.2979 103.397C73.9445 103.358 73.4931 103.533 73.2771 103.319C73.0612 103.104 73.1986 102.654 73.1986 102.303C73.1986 100.291 73.1986 98.2592 73.179 96.2473C73.179 95.8761 73.3164 95.8175 73.6108 95.8175C74.6316 95.7784 74.6316 95.7784 74.6316 96.7747L74.6512 99.6461Z" fill="#0E2E5C"/>
<path d="M186.148 102.969C186.148 103.281 186.109 103.457 185.736 103.379C185.383 103.32 184.951 103.535 184.715 103.281C184.519 103.066 184.676 102.637 184.676 102.305C184.676 101.386 184.676 100.488 184.676 99.5698C184.676 98.4369 184.676 97.3039 184.676 96.1709C184.676 95.8975 184.754 95.7998 185.029 95.7998C186.305 95.8389 186.129 95.5458 186.129 96.8546C186.148 98.9252 186.148 100.957 186.148 102.969Z" fill="#0E2E5C"/>
<path d="M33.723 45.2243C33.6641 45.5368 33.4678 45.6149 33.2127 45.6345C32.6041 45.6931 31.9956 45.5954 31.3675 45.7126C31.0927 45.7712 30.7393 45.361 30.7393 44.9899C30.7197 44.3648 30.7197 43.7397 30.7393 43.0951C30.759 42.6458 30.9945 42.4505 31.4264 42.4505H31.8582C31.9956 42.4505 32.133 42.4505 32.2704 42.4505C32.4667 42.4505 32.6434 42.4505 32.8397 42.4505C32.9378 42.4505 33.0556 42.4505 33.1538 42.4505C33.5071 42.4309 33.723 42.6458 33.7427 42.9388C33.8408 43.7006 33.8604 44.4624 33.723 45.2243Z" fill="#0E2E5C"/>
<path d="M33.7235 54.679C33.645 55.0306 33.4095 55.1283 33.115 55.1478C32.5261 55.1674 31.9373 55.1674 31.3287 55.1478C30.8969 55.1283 30.7202 54.933 30.7202 54.5227C30.7202 54.0539 30.7202 53.5656 30.7202 53.0968C30.7202 52.5889 30.9558 52.3936 31.4465 52.374C31.5054 52.374 31.5643 52.374 31.6232 52.374H32.3102C32.5261 52.374 32.7421 52.374 32.9384 52.374C33.6254 52.3936 33.7824 52.5303 33.7824 53.2335C33.8021 53.7219 33.8413 54.1907 33.7235 54.679Z" fill="#0E2E5C"/>
<path d="M34.7645 41.3762C34.7056 41.6301 34.4308 41.6887 34.1756 41.6887C33.7045 41.6887 33.2138 41.6887 32.7427 41.6887C32.2912 41.6887 31.8397 41.6887 31.3882 41.6887C31.0545 41.6887 30.8582 41.5129 30.7993 41.2004C30.7404 40.9269 30.7208 40.6339 30.7797 40.3604C30.8582 39.9893 31.0741 39.7158 31.506 39.7158C32.3697 39.7158 33.253 39.7158 34.1364 39.6963C34.4112 39.6963 34.6467 39.8135 34.7449 40.0674C34.8823 40.5167 34.8627 40.966 34.7645 41.3762Z" fill="#F39B27"/>
<path d="M38.5329 47.3537C38.5329 48.1155 38.2581 48.4281 37.5907 48.4281C36.8252 48.4281 36.4915 48.0765 36.4915 47.2561C36.4915 46.6505 36.8252 46.4161 37.5711 46.4161C38.3955 46.3966 38.5329 46.5528 38.5329 47.3537Z" fill="#F39B27"/>
<path d="M38.5129 50.4004C38.4737 50.5762 38.3559 50.6935 38.1596 50.7325C37.7474 50.8302 37.3155 50.8107 36.9033 50.7521C36.707 50.713 36.5892 50.5567 36.5892 50.3614C36.5892 50.1856 36.5892 50.0293 36.5892 49.8535H36.5696V49.7363C36.5696 49.0135 36.9229 48.7205 37.6296 48.8768C37.767 48.9159 37.9044 48.9354 38.0418 48.9159C38.2774 48.8963 38.4344 49.0331 38.4933 49.2284C38.5718 49.6191 38.5914 50.0098 38.5129 50.4004Z" fill="#0E2E5C"/>
<path d="M125.826 96.4623C125.826 96.6577 125.099 97.3609 124.942 97.3218C124.746 97.2828 124.687 97.0874 124.569 96.9702C124.197 96.56 124.157 96.5405 123.745 96.9311C123.195 97.4586 123.215 97.4195 122.665 96.8726C122.351 96.56 122.371 96.4037 122.685 96.1889C122.783 96.1107 122.862 96.0131 122.94 95.9154C123.117 95.7005 123.294 95.6615 123.509 95.8959C123.588 95.9935 123.686 96.0717 123.784 96.1498C124.098 96.4428 124.255 96.4428 124.55 96.1303C124.589 96.0912 124.628 96.0521 124.648 95.9935C124.864 95.6615 125.099 95.6028 125.355 95.9545C125.472 96.1498 125.747 96.2279 125.826 96.4623Z" fill="#0E2E5C"/>
<path d="M35.0583 97.048C34.7835 97.302 34.5675 97.302 34.3123 97.0285C34.1749 96.8722 34.0375 96.6769 33.7627 96.6378C33.5272 96.6769 33.429 96.9113 33.272 97.048C33.0364 97.2824 32.8794 97.3801 32.5849 97.0676C31.8586 96.3058 31.9372 96.6378 32.6635 95.8369C32.8205 95.6611 32.9972 95.6221 33.1346 95.876C33.1542 95.9151 33.2131 95.9541 33.2523 95.9932C33.7038 96.462 33.9197 96.4425 34.3123 95.9151C34.5283 95.6416 34.7246 95.6611 34.9601 95.876C34.9994 95.9151 35.0386 95.9541 35.0779 95.9932C35.6275 96.5402 35.6275 96.5402 35.0583 97.048Z" fill="#0E2E5C"/>
<path d="M82.1508 96.5793C82.1116 96.7747 81.8171 96.8919 81.6797 97.0677C81.4834 97.3021 81.3264 97.3021 81.1301 97.0872C80.9534 96.8723 80.7179 96.7161 80.4627 96.6184C80.286 96.6379 80.2271 96.7942 80.129 96.9114C79.6775 97.4388 79.6382 97.4388 79.1475 96.9505C79.0494 96.8528 78.9708 96.7747 78.8727 96.677C78.7156 96.5403 78.696 96.4231 78.8923 96.2668C79.1279 96.091 79.2849 95.7589 79.5401 95.6808C79.8345 95.6026 79.9523 96.0324 80.1879 96.2082C80.4038 96.3645 80.5805 96.4621 80.7768 96.1691C80.8553 96.0519 80.9731 95.9543 81.0712 95.8761C81.3068 95.6808 81.5227 95.5831 81.6994 95.9347C81.6994 95.9543 81.719 95.9543 81.719 95.9738C81.8368 96.2277 82.2097 96.3059 82.1508 96.5793Z" fill="#0E2E5C"/>
<path d="M144.238 96.5802C144.238 96.6583 144.16 96.6779 144.101 96.7169C143.865 96.8927 143.669 97.1662 143.414 97.2443C143.1 97.3225 142.982 96.9123 142.746 96.756C142.511 96.5997 142.373 96.6193 142.197 96.8146C141.647 97.4006 141.647 97.3616 141.038 96.8732C140.685 96.5997 140.705 96.463 141.019 96.1895C141.588 95.6621 141.568 95.6426 142.138 96.17C142.53 96.5411 142.53 96.5411 142.884 96.1309C142.962 96.0332 143.06 95.9551 143.139 95.8574C143.217 95.7793 143.296 95.7402 143.394 95.7402C143.472 95.7402 144.218 96.5021 144.238 96.5802Z" fill="#0E2E5C"/>
<path d="M39.5338 104.784C39.4749 104.862 39.416 104.979 39.3178 105.057C39.1804 105.213 39.0038 105.35 38.8664 105.506C38.7486 105.643 38.6308 105.663 38.513 105.506C38.4541 105.428 38.3953 105.35 38.3364 105.272C37.7867 104.647 37.8064 104.588 38.4738 104.08C38.5327 104.041 38.5915 104.002 38.6504 103.983C38.8271 103.944 39.5534 104.588 39.5338 104.784Z" fill="#0E2E5C"/>
<path d="M86.1747 104.725C86.1747 104.882 85.5465 105.585 85.3895 105.604C85.3699 105.604 85.3502 105.624 85.3502 105.624C85.095 105.331 84.781 105.077 84.565 104.745C84.4473 104.569 84.7417 104.432 84.8791 104.315C85.0558 104.178 85.1932 103.846 85.4288 103.964C85.7036 104.1 85.8999 104.393 86.1158 104.628C86.1551 104.667 86.1551 104.706 86.1747 104.725Z" fill="#0E2E5C"/>
<path d="M88.0199 104.764C88.0199 104.861 87.3132 105.584 87.2151 105.584C87.0777 105.584 86.3906 104.881 86.3906 104.725C86.3906 104.549 86.9795 103.963 87.1562 103.963C87.3525 103.963 88.0199 104.588 88.0199 104.764Z" fill="#0E2E5C"/>
<path d="M92.7889 104.921C92.7889 105.057 92.0823 105.741 91.9449 105.741C91.7878 105.741 91.1597 105.057 91.1597 104.901C91.1597 104.784 91.8467 104.139 91.9645 104.139C92.1804 104.139 92.7889 104.725 92.7889 104.921Z" fill="#0E2E5C"/>
<path d="M40.8097 105.312C40.7115 105.41 40.633 105.527 40.4956 105.566C40.3386 105.508 40.2797 105.351 40.1619 105.234C39.9852 105.058 39.6908 104.902 39.6712 104.707C39.6515 104.492 40.0245 104.375 40.1619 104.179C40.3975 103.808 40.5545 103.886 40.8293 104.16C41.3789 104.746 41.3986 104.726 40.8097 105.312Z" fill="#0E2E5C"/>
<path d="M114.814 96.4811C114.814 96.6178 114.127 97.282 114.009 97.2624C113.852 97.2429 113.204 96.5983 113.204 96.4811C113.224 96.3053 113.911 95.7192 114.087 95.7192C114.225 95.7388 114.814 96.3248 114.814 96.4811Z" fill="#0E2E5C"/>
</svg>
