<svg width="375" height="444" viewBox="0 0 375 444" fill="none" xmlns="http://www.w3.org/2000/svg">
<path opacity="0.56" d="M199.831 116.23L212.384 145.893L199.831 175.548H174.719L162.167 145.893L174.719 116.23H199.831Z" stroke="url(#paint0_linear_1147_23516)" stroke-miterlimit="10"/>
<path opacity="0.56" d="M174.675 229.009L187.228 258.663L174.675 288.326H149.563L137.011 258.663L149.563 229.009H174.675Z" stroke="url(#paint1_linear_1147_23516)" stroke-miterlimit="10"/>
<path opacity="0.56" d="M87.9766 145.65L100.529 175.304L87.9766 204.967H62.8649L50.3123 175.304L62.8649 145.65H87.9766Z" stroke="url(#paint2_linear_1147_23516)" stroke-miterlimit="10"/>
<path opacity="0.56" d="M362.448 111.326L375 140.981L362.448 170.644H337.336L324.783 140.981L337.336 111.326H362.448Z" stroke="url(#paint3_linear_1147_23516)" stroke-miterlimit="10"/>
<path opacity="0.56" d="M229.03 277.429L241.583 307.084L229.03 336.747H203.925L191.366 307.084L203.925 277.429H229.03Z" stroke="url(#paint4_linear_1147_23516)" stroke-miterlimit="10"/>
<path opacity="0.56" d="M125.711 195.297L138.263 224.96L125.711 254.614H100.599L88.0464 224.96L100.599 195.297H125.711Z" stroke="url(#paint5_linear_1147_23516)" stroke-miterlimit="10"/>
<path opacity="0.56" d="M263.17 117.456L275.723 147.119L263.17 176.774H238.065L225.506 147.119L238.065 117.456H263.17Z" stroke="url(#paint6_linear_1147_23516)" stroke-miterlimit="10"/>
<path opacity="0.56" d="M223.19 202.04L235.743 231.694L223.19 261.357H198.079L185.526 231.694L198.079 202.04H223.19Z" stroke="url(#paint7_linear_1147_23516)" stroke-miterlimit="10"/>
<path d="M216.384 227.959C217.16 223.493 215.135 219.015 211.861 217.956C208.587 216.897 205.303 219.659 204.527 224.124C203.751 228.59 205.776 233.068 209.05 234.127C212.324 235.186 215.607 232.425 216.384 227.959Z" stroke="#334061" stroke-opacity="0.5" stroke-width="1.15" stroke-miterlimit="10"/>
<path d="M208.403 218.314V233.777" stroke="#334061" stroke-opacity="0.5" stroke-width="1.15" stroke-miterlimit="10"/>
<path d="M212.398 218.314V233.777" stroke="#334061" stroke-opacity="0.5" stroke-width="1.15" stroke-miterlimit="10"/>
<path d="M216.598 226.244H204.406" stroke="#334061" stroke-opacity="0.5" stroke-width="1.15" stroke-miterlimit="10"/>
<path d="M205.476 221.234C207.763 223.722 213.076 223.739 215.458 221.303" stroke="#334061" stroke-opacity="0.5" stroke-width="1.15" stroke-miterlimit="10"/>
<path d="M205.476 230.933C207.782 228.428 213.216 228.428 215.521 230.933" stroke="#334061" stroke-opacity="0.5" stroke-width="1.15" stroke-miterlimit="10"/>
<path d="M204.893 242.215V239.581H216.376V242.215" stroke="#334061" stroke-opacity="0.5" stroke-width="1.15" stroke-miterlimit="10"/>
<path opacity="0.56" d="M362.448 1L375 30.6631L362.448 60.3176H337.336L324.783 30.6631L337.336 1H362.448Z" stroke="url(#paint8_linear_1147_23516)" stroke-miterlimit="10"/>
<path opacity="0.56" d="M277.546 235.75L290.098 265.404L277.546 295.068H252.434L239.881 265.404L252.434 235.75H277.546Z" stroke="url(#paint9_linear_1147_23516)" stroke-miterlimit="10"/>
<path opacity="0.56" d="M306.295 164.038L318.848 193.693L306.295 223.356H281.184L268.631 193.693L281.184 164.038H306.295Z" stroke="url(#paint10_linear_1147_23516)" stroke-miterlimit="10"/>
<path d="M300.538 195.282H300.38C300.636 194.463 300.766 193.581 300.76 192.691C300.763 191.276 300.429 189.898 299.809 188.764C299.189 187.63 298.316 186.801 297.322 186.401C296.327 186.001 295.264 186.052 294.292 186.546C293.32 187.04 292.492 187.95 291.931 189.14C291.322 188.756 290.639 188.65 289.982 188.838C289.325 189.027 288.731 189.499 288.287 190.185C287.843 190.871 287.573 191.735 287.518 192.647C287.462 193.559 287.624 194.471 287.979 195.247H286.934C286.352 195.247 285.793 195.563 285.38 196.125C284.968 196.688 284.737 197.45 284.737 198.245C284.737 199.04 284.968 199.802 285.38 200.364C285.793 200.926 286.352 201.242 286.934 201.242H300.538C301.121 201.242 301.68 200.926 302.092 200.364C302.505 199.802 302.736 199.04 302.736 198.245C302.736 197.45 302.505 196.688 302.092 196.125C301.68 195.563 301.121 195.247 300.538 195.247V195.282Z" stroke="#334061" stroke-opacity="0.5" stroke-width="1.15" stroke-miterlimit="10"/>
<path opacity="0.56" d="M69.5586 235.75L82.1113 265.413L69.5586 295.068H44.447L31.8943 265.413L44.447 235.75H69.5586Z" stroke="url(#paint11_linear_1147_23516)" stroke-miterlimit="10"/>
<path opacity="0.56" d="M122.566 261.493L135.125 291.147L122.566 320.802H97.4609L84.9019 291.147L97.4609 261.493H122.566Z" stroke="url(#paint12_linear_1147_23516)" stroke-miterlimit="10"/>
<path d="M109.652 306.419C114.983 306.419 119.304 300.525 119.304 293.254C119.304 285.984 114.983 280.09 109.652 280.09C104.322 280.09 100 285.984 100 293.254C100 300.525 104.322 306.419 109.652 306.419Z" stroke="#999FB0" stroke-width="1.15" stroke-miterlimit="10"/>
<path d="M103.078 292.062C103.044 291.929 103.025 291.789 103.021 291.647C103.026 291.508 103.071 291.376 103.145 291.279C103.219 291.183 103.318 291.129 103.42 291.129C103.724 291.129 103.769 291.354 103.826 291.673L104.263 294.126L104.611 291.898C104.681 291.457 104.75 291.112 105.13 291.129C105.51 291.146 105.599 291.449 105.669 291.898L106.023 294.126L106.429 291.673C106.479 291.354 106.53 291.129 106.834 291.129C106.937 291.129 107.035 291.183 107.11 291.279C107.184 291.376 107.228 291.508 107.233 291.647C107.23 291.789 107.211 291.929 107.176 292.062L106.574 294.731C106.454 295.267 106.365 295.336 106.042 295.336C105.719 295.336 105.612 295.206 105.529 294.757L105.124 292.554L104.719 294.757C104.636 295.206 104.554 295.336 104.206 295.336C103.857 295.336 103.794 295.267 103.674 294.731L103.078 292.062Z" fill="#999FB0"/>
<path d="M107.594 292.062C107.556 291.93 107.537 291.789 107.537 291.647C107.542 291.508 107.586 291.376 107.66 291.279C107.735 291.183 107.834 291.129 107.936 291.129C108.24 291.129 108.284 291.354 108.341 291.673L108.772 294.126L109.12 291.898C109.19 291.457 109.253 291.112 109.64 291.129C110.026 291.146 110.102 291.449 110.178 291.898L110.533 294.126L110.938 291.673C110.989 291.354 111.039 291.129 111.337 291.129C111.44 291.129 111.54 291.182 111.615 291.279C111.69 291.375 111.736 291.507 111.742 291.647C111.739 291.789 111.72 291.929 111.685 292.062L111.084 294.731C110.963 295.267 110.875 295.336 110.545 295.336C110.216 295.336 110.121 295.206 110.032 294.757L109.633 292.554L109.228 294.757C109.139 295.206 109.057 295.336 108.715 295.336C108.373 295.336 108.297 295.267 108.183 294.731L107.594 292.062Z" fill="#999FB0"/>
<path d="M112.103 292.062C112.069 291.929 112.05 291.789 112.046 291.647C112.051 291.508 112.095 291.376 112.17 291.279C112.244 291.183 112.343 291.129 112.445 291.129C112.749 291.129 112.794 291.354 112.851 291.673L113.288 294.126L113.642 291.898C113.706 291.457 113.775 291.112 114.155 291.129C114.535 291.146 114.624 291.449 114.694 291.898L115.048 294.126L115.454 291.673C115.504 291.354 115.555 291.129 115.859 291.129C115.962 291.129 116.06 291.183 116.135 291.279C116.209 291.376 116.253 291.508 116.258 291.647C116.258 291.789 116.239 291.93 116.201 292.062L115.599 294.731C115.485 295.267 115.39 295.336 115.067 295.336C114.744 295.336 114.637 295.206 114.554 294.757L114.149 292.554L113.744 294.757C113.661 295.206 113.579 295.336 113.237 295.336C112.895 295.336 112.819 295.267 112.699 294.731L112.103 292.062Z" fill="#999FB0"/>
<path opacity="0.56" d="M257.78 45.7437L270.333 75.3981L257.78 105.053H232.669L220.116 75.3981L232.669 45.7437H257.78Z" stroke="url(#paint13_linear_1147_23516)" stroke-miterlimit="10"/>
<path opacity="0.56" d="M231.276 352.819L243.829 382.474L231.276 412.128H206.164L193.612 382.474L206.164 352.819H231.276Z" stroke="url(#paint14_linear_1147_23516)" stroke-miterlimit="10"/>
<path opacity="0.56" d="M356.607 229.009L369.16 258.663L356.607 288.318H331.502L318.943 258.663L331.502 229.009H356.607Z" stroke="url(#paint15_linear_1147_23516)" stroke-miterlimit="10"/>
<path opacity="0.56" d="M59.2266 308.688L71.7792 338.342L59.2266 368.006H34.1149L21.5623 338.342L34.1149 308.688H59.2266Z" stroke="url(#paint16_linear_1147_23516)" stroke-miterlimit="10"/>
<path opacity="0.56" d="M113.493 331.531L126.046 361.186L113.493 390.84H88.3881L75.8291 361.186L88.3881 331.531H113.493Z" stroke="url(#paint17_linear_1147_23516)" stroke-miterlimit="10"/>
<path d="M109.491 349.929H91.9665C91.176 349.929 90.5352 350.803 90.5352 351.881V368.32C90.5352 369.398 91.176 370.272 91.9665 370.272H109.491C110.281 370.272 110.922 369.398 110.922 368.32V351.881C110.922 350.803 110.281 349.929 109.491 349.929Z" stroke="#334061" stroke-opacity="0.5" stroke-width="1.15" stroke-miterlimit="10"/>
<path d="M108.946 352.849H92.511V367.352H108.946V352.849Z" stroke="#334061" stroke-opacity="0.5" stroke-width="1.15" stroke-miterlimit="10"/>
<path d="M93.385 374.012H108.078" stroke="#334061" stroke-opacity="0.5" stroke-width="1.15" stroke-miterlimit="10"/>
<path opacity="0.56" d="M178.718 301.333L191.271 330.988L178.718 360.651H153.613L141.054 330.988L153.613 301.333H178.718Z" stroke="url(#paint18_linear_1147_23516)" stroke-miterlimit="10"/>
<path opacity="0.56" d="M295.065 312.979L307.618 342.633L295.065 372.287H269.953L257.401 342.633L269.953 312.979H295.065Z" stroke="url(#paint19_linear_1147_23516)" stroke-miterlimit="10"/>
<path d="M270.967 338.287L282.569 329.589L293.627 338.287V340.594L282.588 331.662L270.967 340.594V338.287Z" stroke="#334061" stroke-opacity="0.5" stroke-width="1.15" stroke-miterlimit="10"/>
<path d="M274.925 337.544V355.676H289.973V337.743" stroke="#334061" stroke-opacity="0.5" stroke-width="1.08" stroke-miterlimit="10"/>
<path d="M280.093 355.676V344.101H284.748V355.676" stroke="#334061" stroke-opacity="0.5" stroke-width="1.15" stroke-miterlimit="10"/>
<path d="M286.515 332.699V330.375H289.276V334.867" stroke="#334061" stroke-opacity="0.5" stroke-width="1.15" stroke-miterlimit="10"/>
<path d="M183.549 148.044L191.371 153.867" stroke="#999FB0" stroke-width="1.15" stroke-miterlimit="10"/>
<path d="M187.882 134.803L182.929 144.417" stroke="#999FB0" stroke-width="1.15" stroke-miterlimit="10"/>
<path d="M189.066 135.312C190.199 135.312 191.118 134.059 191.118 132.513C191.118 130.967 190.199 129.714 189.066 129.714C187.932 129.714 187.014 130.967 187.014 132.513C187.014 134.059 187.932 135.312 189.066 135.312Z" stroke="#999FB0" stroke-width="1.15" stroke-miterlimit="10"/>
<path d="M179.687 146.696C179.685 146.141 179.805 145.597 180.03 145.134C180.256 144.672 180.577 144.31 180.953 144.097C181.329 143.883 181.743 143.826 182.143 143.933C182.542 144.041 182.91 144.307 183.198 144.7C183.487 145.092 183.683 145.592 183.763 146.137C183.843 146.682 183.803 147.247 183.647 147.76C183.492 148.274 183.228 148.713 182.889 149.021C182.55 149.33 182.152 149.495 181.745 149.495C181.2 149.495 180.677 149.201 180.292 148.676C179.906 148.151 179.688 147.439 179.687 146.696Z" stroke="#999FB0" stroke-width="1.15" stroke-miterlimit="10"/>
<path d="M191.118 155.206C191.117 154.65 191.236 154.106 191.462 153.643C191.688 153.18 192.009 152.819 192.386 152.605C192.762 152.392 193.176 152.336 193.576 152.444C193.976 152.552 194.343 152.819 194.632 153.212C194.92 153.606 195.116 154.107 195.195 154.652C195.275 155.197 195.233 155.762 195.077 156.276C194.92 156.789 194.655 157.228 194.316 157.535C193.976 157.843 193.578 158.007 193.17 158.005C192.626 158.003 192.105 157.707 191.721 157.183C191.336 156.658 191.12 155.948 191.118 155.206Z" stroke="#999FB0" stroke-width="1.15" stroke-miterlimit="10"/>
<path opacity="0.56" d="M320.221 64.1318L332.774 93.7863L320.221 123.449H295.11L282.557 93.7863L295.11 64.1318H320.221Z" stroke="url(#paint20_linear_1147_23516)" stroke-miterlimit="10"/>
<g style="mix-blend-mode:multiply">
<path d="M172.769 233.5L183.428 258.662L172.769 283.825H151.47L140.818 258.662L151.47 233.5H172.769Z" fill="#4C5A80" fill-opacity="0.2"/>
</g>
<g style="mix-blend-mode:color-burn" opacity="0.3">
<path d="M274.092 241.106H275.675L276.467 242.98" stroke="#334061" stroke-width="2" stroke-miterlimit="10" stroke-linecap="round"/>
<path d="M278.519 247.817L284.51 261.984" stroke="#334061" stroke-width="2" stroke-miterlimit="10" stroke-linecap="round" stroke-dasharray="4.62 6.47"/>
<path d="M285.536 264.402L286.328 266.268L285.536 268.143" stroke="#334061" stroke-width="2" stroke-miterlimit="10" stroke-linecap="round"/>
<path d="M283.491 272.98L277.493 287.146" stroke="#334061" stroke-width="2" stroke-miterlimit="10" stroke-linecap="round" stroke-dasharray="4.62 6.47"/>
<path d="M276.467 289.565L275.675 291.431H274.092" stroke="#334061" stroke-width="2" stroke-miterlimit="10" stroke-linecap="round"/>
<path d="M270 291.43H258.005" stroke="#334061" stroke-width="2" stroke-miterlimit="10" stroke-linecap="round" stroke-dasharray="4.62 6.47"/>
<path d="M255.953 291.431H254.37L253.578 289.565" stroke="#334061" stroke-width="2" stroke-miterlimit="10" stroke-linecap="round"/>
<path d="M251.533 284.727L245.535 270.561" stroke="#334061" stroke-width="2" stroke-miterlimit="10" stroke-linecap="round" stroke-dasharray="4.62 6.47"/>
<path d="M244.509 268.143L243.718 266.268L244.509 264.402" stroke="#334061" stroke-width="2" stroke-miterlimit="10" stroke-linecap="round"/>
<path d="M246.561 259.565L252.559 245.399" stroke="#334061" stroke-width="2" stroke-miterlimit="10" stroke-linecap="round" stroke-dasharray="4.62 6.47"/>
<path d="M253.578 242.98L254.37 241.106H255.953" stroke="#334061" stroke-width="2" stroke-miterlimit="10" stroke-linecap="round"/>
<path d="M260.051 241.106H272.046" stroke="#334061" stroke-width="2" stroke-miterlimit="10" stroke-linecap="round" stroke-dasharray="4.62 6.47"/>
</g>
<g style="mix-blend-mode:multiply">
<path d="M86.0703 150.141L96.7293 175.304L86.0703 200.466H64.7713L54.1187 175.304L64.7713 150.141H86.0703Z" fill="#4C5A80" fill-opacity="0.2"/>
</g>
<g style="mix-blend-mode:multiply">
<path d="M229.371 357.31L240.023 382.473L229.371 407.635H208.065L197.413 382.473L208.065 357.31H229.371Z" fill="#4C5A80" fill-opacity="0.2"/>
</g>
<path d="M299.308 86.8413L307.757 96.8269L316.212 86.8413" stroke="#999FB0" stroke-width="1.15" stroke-miterlimit="10"/>
<path d="M299.308 101.11L305.357 94.6572" stroke="#999FB0" stroke-width="1.15" stroke-miterlimit="10"/>
<path d="M316.212 101.112L310.17 93.9766" stroke="#999FB0" stroke-width="1.15" stroke-miterlimit="10"/>
<path d="M316.205 86.8413H299.308V101.111H316.205V86.8413Z" stroke="url(#paint21_linear_1147_23516)" stroke-width="1.15" stroke-miterlimit="10"/>
<path opacity="0.56" d="M164.793 384.691L177.345 414.346L164.793 444H139.687L127.128 414.346L139.687 384.691H164.793Z" stroke="url(#paint22_linear_1147_23516)" stroke-miterlimit="10"/>
<path d="M160.79 403.089H143.265C142.475 403.089 141.834 403.963 141.834 405.042V421.48C141.834 422.558 142.475 423.432 143.265 423.432H160.79C161.58 423.432 162.221 422.558 162.221 421.48V405.042C162.221 403.963 161.58 403.089 160.79 403.089Z" stroke="#334061" stroke-opacity="0.5" stroke-width="1.15" stroke-miterlimit="10"/>
<path d="M160.245 406.009H143.81V420.513H160.245V406.009Z" stroke="#334061" stroke-opacity="0.5" stroke-width="1.15" stroke-miterlimit="10"/>
<path d="M144.684 427.172H159.377" stroke="#334061" stroke-opacity="0.5" stroke-width="1.15" stroke-miterlimit="10"/>
<path d="M57.0002 254.228C51.2558 254.228 46.6008 258.547 46.6008 263.868C46.6008 266.814 48.0322 269.448 50.2805 271.219L49.0582 275.374C48.9979 275.548 48.9821 275.745 49.0131 275.932C49.0441 276.12 49.1202 276.289 49.2293 276.411C49.3385 276.533 49.4744 276.601 49.6155 276.606C49.7566 276.611 49.8948 276.551 50.0082 276.436L53.8082 273.042C54.8484 273.352 55.9101 273.508 56.9748 273.508C62.7128 273.508 67.3678 269.189 67.3678 263.868C67.3678 258.547 62.7635 254.228 57.0002 254.228Z" stroke="#999FB0" stroke-width="1.15" stroke-miterlimit="10"/>
<path opacity="0.56" d="M37.6643 174.458L50.2233 204.112L37.6643 233.776H12.559L0 204.112L12.559 174.458H37.6643Z" stroke="url(#paint23_linear_1147_23516)" stroke-miterlimit="10"/>
<path opacity="0.56" d="M72.2539 377.949L84.8066 407.612L72.2539 437.266H47.1423L34.5896 407.612L47.1423 377.949H72.2539Z" stroke="url(#paint24_linear_1147_23516)" stroke-miterlimit="10"/>
<defs>
<linearGradient id="paint0_linear_1147_23516" x1="187.275" y1="116.23" x2="187.275" y2="175.548" gradientUnits="userSpaceOnUse">
<stop stop-color="#252E4A"/>
<stop offset="1" stop-color="#252E4A" stop-opacity="0"/>
</linearGradient>
<linearGradient id="paint1_linear_1147_23516" x1="162.119" y1="229.009" x2="162.119" y2="288.326" gradientUnits="userSpaceOnUse">
<stop stop-color="#252E4A"/>
<stop offset="1" stop-color="#252E4A" stop-opacity="0"/>
</linearGradient>
<linearGradient id="paint2_linear_1147_23516" x1="75.4208" y1="145.65" x2="75.4208" y2="204.967" gradientUnits="userSpaceOnUse">
<stop stop-color="#252E4A"/>
<stop offset="1" stop-color="#252E4A" stop-opacity="0"/>
</linearGradient>
<linearGradient id="paint3_linear_1147_23516" x1="349.892" y1="111.326" x2="349.892" y2="170.644" gradientUnits="userSpaceOnUse">
<stop stop-color="#252E4A"/>
<stop offset="1" stop-color="#252E4A" stop-opacity="0"/>
</linearGradient>
<linearGradient id="paint4_linear_1147_23516" x1="216.474" y1="277.429" x2="216.474" y2="336.747" gradientUnits="userSpaceOnUse">
<stop stop-color="#252E4A"/>
<stop offset="1" stop-color="#252E4A" stop-opacity="0"/>
</linearGradient>
<linearGradient id="paint5_linear_1147_23516" x1="113.155" y1="195.297" x2="113.155" y2="254.614" gradientUnits="userSpaceOnUse">
<stop stop-color="#252E4A"/>
<stop offset="1" stop-color="#252E4A" stop-opacity="0"/>
</linearGradient>
<linearGradient id="paint6_linear_1147_23516" x1="250.615" y1="117.456" x2="250.615" y2="176.774" gradientUnits="userSpaceOnUse">
<stop stop-color="#252E4A"/>
<stop offset="1" stop-color="#252E4A" stop-opacity="0"/>
</linearGradient>
<linearGradient id="paint7_linear_1147_23516" x1="210.634" y1="202.04" x2="210.634" y2="261.357" gradientUnits="userSpaceOnUse">
<stop stop-color="#252E4A"/>
<stop offset="1" stop-color="#252E4A" stop-opacity="0"/>
</linearGradient>
<linearGradient id="paint8_linear_1147_23516" x1="349.892" y1="1" x2="349.892" y2="60.3176" gradientUnits="userSpaceOnUse">
<stop stop-color="#252E4A"/>
<stop offset="1" stop-color="#252E4A" stop-opacity="0"/>
</linearGradient>
<linearGradient id="paint9_linear_1147_23516" x1="264.99" y1="235.75" x2="264.99" y2="295.068" gradientUnits="userSpaceOnUse">
<stop stop-color="#252E4A"/>
<stop offset="1" stop-color="#252E4A" stop-opacity="0"/>
</linearGradient>
<linearGradient id="paint10_linear_1147_23516" x1="293.739" y1="164.038" x2="293.739" y2="223.356" gradientUnits="userSpaceOnUse">
<stop stop-color="#252E4A"/>
<stop offset="1" stop-color="#252E4A" stop-opacity="0"/>
</linearGradient>
<linearGradient id="paint11_linear_1147_23516" x1="57.0028" y1="235.75" x2="57.0028" y2="295.068" gradientUnits="userSpaceOnUse">
<stop stop-color="#252E4A"/>
<stop offset="1" stop-color="#252E4A" stop-opacity="0"/>
</linearGradient>
<linearGradient id="paint12_linear_1147_23516" x1="110.014" y1="261.493" x2="110.014" y2="320.802" gradientUnits="userSpaceOnUse">
<stop stop-color="#252E4A"/>
<stop offset="1" stop-color="#252E4A" stop-opacity="0"/>
</linearGradient>
<linearGradient id="paint13_linear_1147_23516" x1="245.224" y1="45.7437" x2="245.224" y2="105.053" gradientUnits="userSpaceOnUse">
<stop stop-color="#252E4A"/>
<stop offset="1" stop-color="#252E4A" stop-opacity="0"/>
</linearGradient>
<linearGradient id="paint14_linear_1147_23516" x1="218.72" y1="352.819" x2="218.72" y2="412.128" gradientUnits="userSpaceOnUse">
<stop stop-color="#252E4A"/>
<stop offset="1" stop-color="#252E4A" stop-opacity="0"/>
</linearGradient>
<linearGradient id="paint15_linear_1147_23516" x1="344.051" y1="229.009" x2="344.051" y2="288.318" gradientUnits="userSpaceOnUse">
<stop stop-color="#252E4A"/>
<stop offset="1" stop-color="#252E4A" stop-opacity="0"/>
</linearGradient>
<linearGradient id="paint16_linear_1147_23516" x1="46.6707" y1="308.688" x2="46.6707" y2="368.006" gradientUnits="userSpaceOnUse">
<stop stop-color="#252E4A"/>
<stop offset="1" stop-color="#252E4A" stop-opacity="0"/>
</linearGradient>
<linearGradient id="paint17_linear_1147_23516" x1="100.938" y1="331.531" x2="100.938" y2="390.84" gradientUnits="userSpaceOnUse">
<stop stop-color="#252E4A"/>
<stop offset="1" stop-color="#252E4A" stop-opacity="0"/>
</linearGradient>
<linearGradient id="paint18_linear_1147_23516" x1="166.162" y1="301.333" x2="166.162" y2="360.651" gradientUnits="userSpaceOnUse">
<stop stop-color="#252E4A"/>
<stop offset="1" stop-color="#252E4A" stop-opacity="0"/>
</linearGradient>
<linearGradient id="paint19_linear_1147_23516" x1="282.509" y1="312.979" x2="282.509" y2="372.287" gradientUnits="userSpaceOnUse">
<stop stop-color="#252E4A"/>
<stop offset="1" stop-color="#252E4A" stop-opacity="0"/>
</linearGradient>
<linearGradient id="paint20_linear_1147_23516" x1="307.666" y1="64.1318" x2="307.666" y2="123.449" gradientUnits="userSpaceOnUse">
<stop stop-color="#252E4A"/>
<stop offset="1" stop-color="#252E4A" stop-opacity="0"/>
</linearGradient>
<linearGradient id="paint21_linear_1147_23516" x1="307.757" y1="86.8413" x2="307.757" y2="101.111" gradientUnits="userSpaceOnUse">
<stop stop-color="#252E4A"/>
<stop offset="1" stop-color="#252E4A" stop-opacity="0"/>
</linearGradient>
<linearGradient id="paint22_linear_1147_23516" x1="152.237" y1="384.691" x2="152.237" y2="444" gradientUnits="userSpaceOnUse">
<stop stop-color="#252E4A"/>
<stop offset="1" stop-color="#252E4A" stop-opacity="0"/>
</linearGradient>
<linearGradient id="paint23_linear_1147_23516" x1="25.1117" y1="174.458" x2="25.1117" y2="233.776" gradientUnits="userSpaceOnUse">
<stop stop-color="#252E4A"/>
<stop offset="1" stop-color="#252E4A" stop-opacity="0"/>
</linearGradient>
<linearGradient id="paint24_linear_1147_23516" x1="59.6981" y1="377.949" x2="59.6981" y2="437.266" gradientUnits="userSpaceOnUse">
<stop stop-color="#252E4A"/>
<stop offset="1" stop-color="#252E4A" stop-opacity="0"/>
</linearGradient>
</defs>
</svg>
