<svg width="360" height="212" viewBox="0 0 360 212" fill="none" xmlns="http://www.w3.org/2000/svg">
<path d="M99 158.483L98.5975 158.779L99 158.483ZM268 99.4831L267.503 99.541L268 99.4831ZM3.33333 91.2026C3.33333 92.6753 4.52724 93.8692 6 93.8692C7.47276 93.8692 8.66667 92.6753 8.66667 91.2026C8.66667 89.7298 7.47276 88.5359 6 88.5359C4.52724 88.5359 3.33333 89.7298 3.33333 91.2026ZM5.85417 91.6808C7.38698 92.1482 8.92661 92.6409 10.472 93.1598L10.7903 92.2118C9.23599 91.6899 7.68748 91.1944 6.14583 90.7243L5.85417 91.6808ZM19.5822 96.5057C22.5406 97.6874 25.5121 98.9693 28.4897 100.357L28.9122 99.451C25.9174 98.0549 22.9286 96.7656 19.9531 95.577L19.5822 96.5057ZM37.1666 104.703C39.9762 106.21 42.7849 107.817 45.5868 109.529L46.1081 108.675C43.2901 106.954 40.4652 105.338 37.6393 103.822L37.1666 104.703ZM53.7273 114.817C56.3513 116.628 58.964 118.535 61.5604 120.545L62.1725 119.754C59.5615 117.733 56.934 115.815 54.2952 113.994L53.7273 114.817ZM69.0724 126.689C71.485 128.773 73.8789 130.951 76.2497 133.227L76.9422 132.505C74.5587 130.217 72.1519 128.028 69.7261 125.932L69.0724 126.689ZM83.0773 140.125C85.2602 142.446 87.4192 144.856 89.5508 147.358L90.3121 146.71C88.1698 144.195 85.9998 141.773 83.8057 139.44L83.0773 140.125ZM95.6707 154.901C96.6533 156.172 97.629 157.465 98.5975 158.779L99.4025 158.186C98.4296 156.866 97.4492 155.567 96.4619 154.29L95.6707 154.901ZM98.5975 158.779C99.6254 160.174 100.662 161.54 101.708 162.876L102.496 162.26C101.456 160.931 100.425 159.573 99.4025 158.186L98.5975 158.779ZM108.207 170.688C110.503 173.28 112.832 175.742 115.191 178.074L115.894 177.363C113.552 175.046 111.237 172.601 108.956 170.025L108.207 170.688ZM122.67 184.965C125.302 187.219 127.963 189.322 130.645 191.277L131.234 190.469C128.573 188.529 125.933 186.442 123.32 184.205L122.67 184.965ZM139.106 196.917C142.065 198.711 145.041 200.333 148.026 201.786L148.464 200.887C145.507 199.448 142.557 197.84 139.624 196.062L139.106 196.917ZM157.387 205.788C160.638 206.988 163.889 207.994 167.13 208.81L167.374 207.84C164.169 207.033 160.951 206.038 157.733 204.85L157.387 205.788ZM177.131 210.734C180.545 211.189 183.934 211.433 187.285 211.472L187.297 210.472C183.987 210.433 180.638 210.192 177.263 209.743L177.131 210.734ZM197.475 210.948C200.878 210.554 204.224 209.943 207.498 209.119L207.254 208.149C204.022 208.962 200.719 209.566 197.36 209.955L197.475 210.948ZM217.2 205.975C220.358 204.712 223.426 203.236 226.39 201.556L225.896 200.686C222.972 202.344 219.945 203.8 216.828 205.047L217.2 205.975ZM234.899 195.943C237.584 193.902 240.153 191.671 242.591 189.254L241.887 188.544C239.48 190.93 236.944 193.133 234.294 195.147L234.899 195.943ZM249.365 181.625C251.424 178.99 253.351 176.195 255.135 173.244L254.279 172.727C252.516 175.644 250.611 178.407 248.577 181.009L249.365 181.625ZM259.901 164.236C261.295 161.203 262.553 158.038 263.665 154.747L262.718 154.427C261.617 157.685 260.371 160.817 258.992 163.818L259.901 164.236ZM266.442 144.973C267.195 141.744 267.818 138.412 268.303 134.981L267.313 134.841C266.832 138.244 266.215 141.546 265.468 144.746L266.442 144.973ZM269.308 124.862C269.503 121.553 269.576 118.164 269.521 114.696L268.521 114.712C268.576 118.155 268.503 121.52 268.309 124.804L269.308 124.862ZM269.01 104.543C268.869 102.854 268.697 101.147 268.497 99.4252L267.503 99.541C267.703 101.253 267.873 102.948 268.014 104.627L269.01 104.543ZM268.497 99.4252C268.294 97.6859 268.161 95.9674 268.094 94.2699L267.095 94.3089C267.163 96.0323 267.298 97.7764 267.503 99.541L268.497 99.4252ZM268.52 83.9535C268.948 80.489 269.656 77.1213 270.617 73.8516L269.658 73.5697C268.682 76.8902 267.962 80.3112 267.528 83.8311L268.52 83.9535ZM274.291 64.2043C275.752 61.096 277.444 58.0889 279.335 55.1847L278.496 54.6391C276.582 57.5793 274.868 60.6264 273.386 63.7787L274.291 64.2043ZM285.499 46.876C287.697 44.247 290.057 41.7175 292.551 39.2888L291.854 38.5723C289.337 41.0231 286.953 43.5776 284.732 46.2345L285.499 46.876ZM300.297 32.3985C302.966 30.2216 305.737 28.1427 308.585 26.1634L308.014 25.3423C305.147 27.3353 302.355 29.4295 299.665 31.6236L300.297 32.3985ZM317.306 20.5389C320.288 18.7542 323.321 17.0713 326.377 15.4915L325.918 14.6031C322.844 16.192 319.794 17.885 316.793 19.6808L317.306 20.5389ZM335.734 11.0004C338.951 9.57 342.165 8.25398 345.345 7.05384L344.992 6.11823C341.794 7.32504 338.562 8.64834 335.328 10.0866L335.734 11.0004ZM355.163 3.67656C356.84 3.1555 358.499 2.66933 360.133 2.21831L359.867 1.25435C358.222 1.70824 356.554 2.1974 354.866 2.72158L355.163 3.67656ZM99 158.483L98.1949 159.076L99 158.483ZM268 99.4831L267.007 99.5989L268 99.4831ZM0.666667 91.2026C0.666667 94.1481 3.05448 96.5359 6 96.5359C8.94552 96.5359 11.3333 94.1481 11.3333 91.2026C11.3333 88.2571 8.94552 85.8692 6 85.8692C3.05448 85.8692 0.666667 88.2571 0.666667 91.2026ZM5.70834 92.1591C7.23673 92.6251 8.77191 93.1164 10.3128 93.6338L10.9494 91.7378C9.39068 91.2144 7.83773 90.7175 6.29166 90.2461L5.70834 92.1591ZM19.3967 96.97C22.3465 98.1483 25.3095 99.4265 28.2785 100.811L29.1235 98.9978C26.1201 97.5977 23.1227 96.3047 20.1386 95.1127L19.3967 96.97ZM36.9302 105.144C39.7317 106.647 42.5323 108.249 45.3262 109.955L46.3687 108.249C43.5427 106.522 40.7097 104.902 37.8757 103.381L36.9302 105.144ZM53.4434 115.229C56.0599 117.034 58.6652 118.936 61.2544 120.94L62.4785 119.358C59.8602 117.332 57.2254 115.408 54.5791 113.583L53.4434 115.229ZM68.7456 127.068C71.1516 129.146 73.5389 131.318 75.9035 133.588L77.2885 132.145C74.8986 129.851 72.4853 127.655 70.0529 125.554L68.7456 127.068ZM82.7131 140.468C84.8903 142.782 87.0439 145.186 89.1702 147.683L90.6927 146.386C88.5451 143.864 86.3697 141.436 84.1698 139.098L82.7131 140.468ZM95.2751 155.207C96.2554 156.475 97.2288 157.765 98.1949 159.076L99.8051 157.889C98.8298 156.566 97.8472 155.264 96.8575 153.984L95.2751 155.207ZM98.1949 159.076C99.2257 160.475 100.266 161.844 101.314 163.184L102.889 161.952C101.853 160.627 100.824 159.273 99.8051 157.889L98.1949 159.076ZM107.833 171.019C110.136 173.62 112.473 176.089 114.839 178.43L116.246 177.008C113.911 174.699 111.604 172.261 109.33 169.693L107.833 171.019ZM122.344 185.345C124.987 187.607 127.657 189.718 130.35 191.681L131.528 190.065C128.878 188.133 126.248 186.054 123.645 183.825L122.344 185.345ZM138.847 197.345C141.818 199.146 144.808 200.776 147.808 202.236L148.683 200.438C145.74 199.005 142.804 197.405 139.883 195.635L138.847 197.345ZM157.213 206.257C160.481 207.463 163.75 208.474 167.008 209.294L167.496 207.355C164.308 206.553 161.108 205.563 157.906 204.381L157.213 206.257ZM177.065 211.229C180.499 211.687 183.908 211.933 187.279 211.972L187.303 209.972C184.013 209.934 180.684 209.694 177.329 209.247L177.065 211.229ZM197.532 211.445C200.957 211.049 204.324 210.433 207.62 209.604L207.132 207.664C203.922 208.472 200.64 209.072 197.302 209.458L197.532 211.445ZM217.386 206.439C220.565 205.167 223.653 203.682 226.636 201.991L225.65 200.251C222.745 201.898 219.738 203.344 216.643 204.583L217.386 206.439ZM235.202 196.341C237.905 194.287 240.49 192.041 242.943 189.609L241.535 188.189C239.143 190.559 236.624 192.748 233.992 194.749L235.202 196.341ZM249.759 181.932C251.83 179.282 253.769 176.471 255.563 173.503L253.851 172.468C252.098 175.369 250.205 178.115 248.183 180.701L249.759 181.932ZM260.355 164.444C261.757 161.395 263.021 158.214 264.139 154.907L262.244 154.267C261.148 157.509 259.91 160.625 258.538 163.609L260.355 164.444ZM266.929 145.087C267.686 141.843 268.311 138.497 268.798 135.051L266.818 134.771C266.339 138.159 265.724 141.448 264.981 144.632L266.929 145.087ZM269.807 124.892C270.002 121.57 270.076 118.168 270.021 114.688L268.022 114.72C268.075 118.151 268.003 121.503 267.81 124.774L269.807 124.892ZM269.509 104.501C269.366 102.806 269.195 101.095 268.993 99.3673L267.007 99.5989C267.206 101.305 267.375 102.995 267.516 104.669L269.509 104.501ZM268.993 99.3673C268.792 97.6406 268.66 95.935 268.594 94.2504L266.596 94.3284C266.663 96.0648 266.8 97.8216 267.007 99.5989L268.993 99.3673ZM269.017 84.0148C269.441 80.5779 270.143 77.2368 271.097 73.9926L269.178 73.4287C268.195 76.7746 267.469 80.2224 267.032 83.7699L269.017 84.0148ZM274.743 64.417C276.195 61.3307 277.874 58.3437 279.754 55.4575L278.077 54.3662C276.151 57.3245 274.426 60.3916 272.933 63.5659L274.743 64.417ZM285.882 47.1967C288.069 44.5818 290.417 42.0646 292.9 39.647L291.505 38.2141C288.977 40.6759 286.581 43.2429 284.348 45.9137L285.882 47.1967ZM300.613 32.786C303.272 30.6176 306.033 28.5464 308.87 26.5739L307.728 24.9318C304.852 26.9316 302.05 29.0334 299.349 31.2361L300.613 32.786ZM317.563 20.9679C320.536 19.1888 323.559 17.5109 326.607 15.9357L325.689 14.159C322.606 15.7524 319.546 17.4504 316.536 19.2518L317.563 20.9679ZM335.937 11.4572C339.145 10.0308 342.35 8.71845 345.522 7.52165L344.816 5.65042C341.608 6.86057 338.368 8.18751 335.125 9.62975L335.937 11.4572ZM355.311 4.15406C356.984 3.63454 358.637 3.14988 360.266 2.70029L359.734 0.772363C358.084 1.22769 356.41 1.71835 354.718 2.24408L355.311 4.15406Z" fill="#8696AD"/>
</svg>
