<svg width="328" height="133" viewBox="0 0 328 133" fill="none" xmlns="http://www.w3.org/2000/svg">
<path d="M197 77.4998L197.413 77.2181L197.42 77.2292L197 77.4998ZM319.333 110.249C319.333 108.777 320.527 107.583 322 107.583C323.473 107.583 324.667 108.777 324.667 110.249C324.667 111.722 323.473 112.916 322 112.916C320.527 112.916 319.333 111.722 319.333 110.249ZM-0.247076 44.8768C1.21291 44.047 2.65934 43.2188 4.09276 42.3932L4.59185 43.2597C3.15696 44.0862 1.70887 44.9153 0.247076 45.7462L-0.247076 44.8768ZM12.6859 37.3941C15.5933 35.689 18.4474 34.0044 21.2538 32.349L21.7618 33.2103C18.9559 34.8654 16.1005 36.5508 13.1918 38.2567L12.6859 37.3941ZM29.8533 27.2931C32.7762 25.5852 35.6492 23.9223 38.478 22.3161L38.9718 23.1857C36.1478 24.7892 33.2785 26.4499 30.3579 28.1565L29.8533 27.2931ZM47.1858 17.491C50.1857 15.877 53.1408 14.3447 56.0587 12.9091L56.5002 13.8063C53.5951 15.2356 50.6509 16.7623 47.6596 18.3717L47.1858 17.491ZM65.1101 8.73535C68.2497 7.39449 71.3549 6.18995 74.4358 5.14217L74.7578 6.08891C71.704 7.12747 68.6226 8.32263 65.5029 9.65499L65.1101 8.73535ZM84.0523 2.38832C87.3541 1.63173 90.6407 1.08495 93.925 0.774246L94.0192 1.76981C90.7822 2.07602 87.5389 2.61531 84.2757 3.36305L84.0523 2.38832ZM103.943 0.585968C107.235 0.782135 110.537 1.24089 113.862 1.98782L113.642 2.9635C110.371 2.22852 107.122 1.77719 103.883 1.5842L103.943 0.585968ZM123.421 4.92359C126.421 6.09386 129.447 7.50986 132.509 9.18893L132.028 10.0657C129.002 8.40631 126.015 7.00892 123.058 5.85522L123.421 4.92359ZM140.967 14.4414C143.592 16.2606 146.247 18.2753 148.94 20.4958L148.304 21.2673C145.631 19.0633 142.997 17.0655 140.397 15.2633L140.967 14.4414ZM156.452 27.1391C158.771 29.326 161.12 31.6645 163.501 34.1606L162.777 34.8509C160.407 32.3667 158.071 30.0407 155.766 27.8666L156.452 27.1391ZM170.219 41.5235C172.337 43.9435 174.482 46.4861 176.655 49.1553L175.88 49.7868C173.713 47.1262 171.576 44.5926 169.467 42.182L170.219 41.5235ZM182.848 57.0002C184.8 59.5471 186.776 62.1939 188.777 64.9433L187.968 65.5318C185.972 62.7887 184.001 60.1485 182.054 57.6084L182.848 57.0002ZM194.529 73.0296C195.484 74.4029 196.446 75.799 197.413 77.2182L196.587 77.7814C195.621 76.3648 194.662 74.9714 193.708 73.6008L194.529 73.0296ZM197.42 77.2292C198.277 78.5606 199.146 79.8726 200.025 81.1646L199.198 81.7272C198.314 80.4281 197.441 79.1089 196.58 77.7704L197.42 77.2292ZM205.54 88.8137C207.476 91.3475 209.457 93.787 211.48 96.1262L210.723 96.7802C208.687 94.4252 206.693 91.9701 204.745 89.4209L205.54 88.8137ZM217.868 103.041C220.114 105.312 222.403 107.46 224.729 109.48L224.074 110.235C221.727 108.198 219.42 106.032 217.157 103.744L217.868 103.041ZM232.085 115.342C234.67 117.222 237.293 118.943 239.948 120.497L239.443 121.36C236.758 119.789 234.107 118.049 231.497 116.151L232.085 115.342ZM248.307 124.782C251.216 126.064 254.155 127.143 257.117 128.009L256.836 128.969C253.83 128.09 250.851 126.996 247.904 125.697L248.307 124.782ZM266.276 129.985C269.376 130.416 272.494 130.607 275.622 130.546L275.642 131.546C272.46 131.608 269.289 131.413 266.138 130.975L266.276 129.985ZM284.937 129.613C287.953 129.064 290.972 128.272 293.988 127.225L294.316 128.169C291.252 129.233 288.183 130.039 285.116 130.597L284.937 129.613ZM302.598 123.526C305.294 122.141 307.982 120.542 310.658 118.721L311.221 119.547C308.512 121.391 305.789 123.011 303.055 124.416L302.598 123.526ZM318.135 113.017C319.313 112.018 320.488 110.974 321.659 109.883L322.341 110.615C321.158 111.716 319.972 112.771 318.781 113.779L318.135 113.017ZM197 77.4998L197.826 76.9366L197.834 76.9475L197.841 76.9586L197 77.4998ZM316.667 110.249C316.667 107.304 319.054 104.916 322 104.916C324.946 104.916 327.333 107.304 327.333 110.249C327.333 113.195 324.946 115.583 322 115.583C319.054 115.583 316.667 113.195 316.667 110.249ZM-0.494152 44.4421C0.964925 43.6128 2.41054 42.7851 3.84322 41.9599L4.84139 43.693C3.40577 44.5199 1.95685 45.3495 0.494152 46.1809L-0.494152 44.4421ZM12.4329 36.9628C15.3397 35.258 18.1932 33.5738 20.9997 31.9183L22.0159 33.641C19.2101 35.296 16.3541 36.9817 13.4447 38.688L12.4329 36.9628ZM29.6011 26.8614C32.5251 25.1529 35.4 23.4889 38.2311 21.8813L39.2187 23.6205C36.397 25.2227 33.5297 26.8823 30.6101 28.5882L29.6011 26.8614ZM46.9489 17.0507C49.9531 15.4344 52.9137 13.8992 55.838 12.4604L56.7209 14.255C53.8222 15.6811 50.8835 17.2049 47.8965 18.812L46.9489 17.0507ZM64.9137 8.27553C68.0633 6.93041 71.1803 5.72118 74.2748 4.66879L74.9188 6.56229C71.8785 7.59624 68.809 8.78671 65.6992 10.1148L64.9137 8.27553ZM83.9406 1.90094C87.2618 1.13994 90.5699 0.589401 93.8779 0.276474L94.0663 2.26758C90.8529 2.57156 87.6313 3.1071 84.3873 3.85042L83.9406 1.90094ZM103.972 0.086853C107.291 0.284592 110.62 0.747086 113.971 1.49998L113.533 3.45135C110.288 2.72232 107.066 2.27472 103.853 2.08331L103.972 0.086853ZM123.603 4.45778C126.624 5.63632 129.67 7.06163 132.75 8.75053L131.788 10.5042C128.78 8.85455 125.812 7.46645 122.876 6.32102L123.603 4.45778ZM141.251 14.0304C143.889 15.8581 146.556 17.8814 149.258 20.1101L147.986 21.6531C145.323 19.4572 142.7 17.468 140.112 15.6743L141.251 14.0304ZM156.795 26.7753C159.121 28.9687 161.476 31.3135 163.863 33.8155L162.416 35.1961C160.051 32.7178 157.721 30.398 155.423 28.2304L156.795 26.7753ZM170.595 41.1942C172.717 43.6189 174.866 46.1661 177.043 48.8396L175.492 50.1025C173.329 47.4462 171.196 44.9172 169.09 42.5113L170.595 41.1942ZM183.245 56.696C185.199 59.2464 187.178 61.8966 189.181 64.6491L187.564 65.826C185.57 63.0861 183.601 60.4492 181.657 57.9126L183.245 56.696ZM194.939 72.744C195.896 74.1186 196.858 75.5161 197.826 76.9366L196.174 78.063C195.209 76.6477 194.25 75.2556 193.297 73.8864L194.939 72.744ZM197.841 76.9586C198.695 78.2865 199.561 79.5949 200.438 80.8832L198.785 82.0086C197.898 80.7058 197.023 79.3831 196.159 78.041L197.841 76.9586ZM205.937 88.5101C207.868 91.0362 209.842 93.4678 211.858 95.7991L210.345 97.1072C208.302 94.7444 206.302 92.2814 204.348 89.7245L205.937 88.5101ZM218.224 102.689C220.461 104.951 222.741 107.092 225.057 109.103L223.746 110.613C221.39 108.567 219.074 106.392 216.802 104.096L218.224 102.689ZM232.379 114.938C234.951 116.808 237.56 118.52 240.2 120.065L239.19 121.791C236.49 120.211 233.826 118.463 231.203 116.556L232.379 114.938ZM248.509 124.324C251.399 125.598 254.317 126.67 257.257 127.529L256.696 129.449C253.668 128.564 250.668 127.462 247.702 126.154L248.509 124.324ZM266.345 129.489C269.42 129.917 272.511 130.106 275.613 130.046L275.651 132.046C272.443 132.108 269.246 131.912 266.069 131.47L266.345 129.489ZM284.848 129.121C287.838 128.577 290.832 127.791 293.824 126.752L294.48 128.642C291.392 129.714 288.298 130.526 285.206 131.089L284.848 129.121ZM302.37 123.081C305.046 121.706 307.717 120.118 310.377 118.307L311.502 119.961C308.777 121.815 306.036 123.446 303.283 124.86L302.37 123.081ZM317.811 112.635C318.984 111.642 320.153 110.603 321.319 109.517L322.681 110.981C321.494 112.087 320.301 113.147 319.105 114.161L317.811 112.635Z" fill="#8696AD"/>
</svg>
