<svg width="375" height="444" viewBox="0 0 375 444" fill="none" xmlns="http://www.w3.org/2000/svg">
<path opacity="0.56" d="M206.474 131.056L225.788 164.536L206.474 198.006H167.835L148.521 164.536L167.835 131.056H206.474Z" stroke="url(#paint0_linear_1147_23516)" stroke-miterlimit="10"/>
<path opacity="0.56" d="M167.767 258.346L187.081 291.816L167.767 325.296H129.128L109.814 291.816L129.128 258.346H167.767Z" stroke="url(#paint1_linear_1147_23516)" stroke-miterlimit="10"/>
<path opacity="0.56" d="M34.3667 164.262L53.681 197.732L34.3667 231.212H-4.27181L-23.5862 197.732L-4.27181 164.262H34.3667Z" stroke="url(#paint2_linear_1147_23516)" stroke-miterlimit="10"/>
<path opacity="0.56" d="M251.401 312.997L270.716 346.467L251.401 379.947H212.773L193.448 346.467L212.773 312.997H251.401Z" stroke="url(#paint3_linear_1147_23516)" stroke-miterlimit="10"/>
<path opacity="0.56" d="M92.427 220.297L111.741 253.777L92.427 287.247H53.7885L34.4741 253.777L53.7885 220.297H92.427Z" stroke="url(#paint4_linear_1147_23516)" stroke-miterlimit="10"/>
<path opacity="0.56" d="M303.932 132.44L323.246 165.92L303.932 199.39H265.303L245.979 165.92L265.303 132.44H303.932Z" stroke="url(#paint5_linear_1147_23516)" stroke-miterlimit="10"/>
<path opacity="0.56" d="M242.415 227.907L261.73 261.377L242.415 294.857H203.777L184.462 261.377L203.777 227.907H242.415Z" stroke="url(#paint6_linear_1147_23516)" stroke-miterlimit="10"/>
<path d="M231.942 257.162C233.137 252.121 230.021 247.067 224.984 245.872C219.946 244.676 214.893 247.793 213.699 252.834C212.504 257.874 215.62 262.928 220.658 264.123C225.695 265.319 230.748 262.202 231.942 257.162Z" stroke="#334061" stroke-opacity="0.5" stroke-width="1.15" stroke-miterlimit="10"/>
<path d="M219.662 246.276V263.727" stroke="#334061" stroke-opacity="0.5" stroke-width="1.15" stroke-miterlimit="10"/>
<path d="M225.81 246.276V263.727" stroke="#334061" stroke-opacity="0.5" stroke-width="1.15" stroke-miterlimit="10"/>
<path d="M232.271 255.226H213.512" stroke="#334061" stroke-opacity="0.5" stroke-width="1.15" stroke-miterlimit="10"/>
<path d="M215.159 249.572C218.677 252.38 226.853 252.399 230.517 249.65" stroke="#334061" stroke-opacity="0.5" stroke-width="1.15" stroke-miterlimit="10"/>
<path d="M215.159 260.518C218.707 257.691 227.068 257.691 230.615 260.518" stroke="#334061" stroke-opacity="0.5" stroke-width="1.15" stroke-miterlimit="10"/>
<path d="M214.262 273.252V270.278H231.93V273.252" stroke="#334061" stroke-opacity="0.5" stroke-width="1.15" stroke-miterlimit="10"/>
<path opacity="0.56" d="M326.05 265.955L345.364 299.425L326.05 332.905H287.412L268.097 299.425L287.412 265.955H326.05Z" stroke="url(#paint7_linear_1147_23516)" stroke-miterlimit="10"/>
<path opacity="0.56" d="M370.286 185.016L389.6 218.486L370.286 251.966H331.648L312.333 218.486L331.648 185.016H370.286Z" stroke="url(#paint8_linear_1147_23516)" stroke-miterlimit="10"/>
<path d="M361.428 220.28H361.185C361.579 219.356 361.778 218.36 361.769 217.355C361.774 215.758 361.26 214.204 360.306 212.924C359.352 211.644 358.009 210.708 356.479 210.256C354.948 209.805 353.312 209.862 351.817 210.42C350.322 210.977 349.047 212.004 348.185 213.348C347.248 212.914 346.196 212.795 345.185 213.007C344.175 213.219 343.26 213.753 342.577 214.527C341.894 215.302 341.479 216.276 341.393 217.306C341.308 218.335 341.557 219.365 342.104 220.241H340.496C339.599 220.241 338.739 220.597 338.105 221.232C337.471 221.866 337.115 222.727 337.115 223.624C337.115 224.521 337.471 225.382 338.105 226.016C338.739 226.651 339.599 227.007 340.496 227.007H361.428C362.325 227.007 363.185 226.651 363.819 226.016C364.453 225.382 364.81 224.521 364.81 223.624C364.81 222.727 364.453 221.866 363.819 221.232C363.185 220.597 362.325 220.241 361.428 220.241V220.28Z" stroke="#334061" stroke-opacity="0.5" stroke-width="1.15" stroke-miterlimit="10"/>
<path opacity="0.56" d="M6.02731 265.955L25.3417 299.435L6.02731 332.905H-32.6112L-51.9255 299.435L-32.6112 265.955H6.02731Z" stroke="url(#paint9_linear_1147_23516)" stroke-miterlimit="10"/>
<path opacity="0.56" d="M87.5886 295.01L106.913 328.48L87.5886 361.95H48.9599L29.6357 328.48L48.9599 295.01H87.5886Z" stroke="url(#paint10_linear_1147_23516)" stroke-miterlimit="10"/>
<path d="M67.7186 345.716C75.9207 345.716 82.5698 339.064 82.5698 330.858C82.5698 322.652 75.9207 316 67.7186 316C59.5166 316 52.8674 322.652 52.8674 330.858C52.8674 339.064 59.5166 345.716 67.7186 345.716Z" stroke="#999FB0" stroke-width="1.15" stroke-miterlimit="10"/>
<path d="M57.6033 329.512C57.55 329.362 57.5204 329.204 57.5156 329.044C57.5231 328.886 57.5911 328.738 57.7055 328.629C57.8198 328.52 57.9717 328.459 58.1296 328.459C58.5973 328.459 58.6655 328.713 58.7532 329.073L59.4256 331.842L59.9616 329.327C60.0688 328.83 60.176 328.44 60.7607 328.459C61.3454 328.479 61.4818 328.82 61.589 329.327L62.1347 331.842L62.7584 329.073C62.8363 328.713 62.9143 328.459 63.3821 328.459C63.5399 328.459 63.6918 328.52 63.8061 328.629C63.9205 328.738 63.9885 328.886 63.996 329.044C63.9912 329.204 63.9616 329.362 63.9083 329.512L62.9825 332.525C62.7974 333.129 62.6609 333.207 62.1639 333.207C61.667 333.207 61.5013 333.061 61.3746 332.554L60.7509 330.068L60.1273 332.554C60.0006 333.061 59.8739 333.207 59.3379 333.207C58.802 333.207 58.7045 333.129 58.5193 332.525L57.6033 329.512Z" fill="#999FB0"/>
<path d="M64.5516 329.512C64.4935 329.363 64.4638 329.204 64.4639 329.044C64.4714 328.886 64.5394 328.738 64.6537 328.629C64.768 328.52 64.9199 328.459 65.0778 328.459C65.5456 328.459 65.6138 328.713 65.7015 329.073L66.3641 331.842L66.9001 329.327C67.0073 328.83 67.1047 328.44 67.6992 328.459C68.2936 328.479 68.4105 328.82 68.5275 329.327L69.0732 331.842L69.6969 329.073C69.7748 328.713 69.8528 328.459 70.3108 328.459C70.4697 328.459 70.6227 328.519 70.7386 328.628C70.8545 328.737 70.9245 328.886 70.9345 329.044C70.9297 329.204 70.9001 329.362 70.8468 329.512L69.921 332.525C69.7359 333.129 69.5994 333.207 69.0927 333.207C68.586 333.207 68.4398 333.061 68.3034 332.554L67.6894 330.068L67.0658 332.554C66.9293 333.061 66.8026 333.207 66.2764 333.207C65.7502 333.207 65.6333 333.129 65.4579 332.525L64.5516 329.512Z" fill="#999FB0"/>
<path d="M71.4896 329.512C71.4363 329.362 71.4067 329.204 71.4019 329.044C71.4094 328.886 71.4774 328.738 71.5917 328.629C71.706 328.52 71.8579 328.459 72.0158 328.459C72.4835 328.459 72.5518 328.713 72.6395 329.073L73.3119 331.842L73.8576 329.327C73.955 328.83 74.0622 328.44 74.6469 328.459C75.2316 328.479 75.368 328.82 75.4752 329.327L76.0209 331.842L76.6446 329.073C76.7226 328.713 76.8005 328.459 77.2683 328.459C77.4262 328.459 77.578 328.52 77.6924 328.629C77.8067 328.738 77.8747 328.886 77.8822 329.044C77.8823 329.204 77.8526 329.363 77.7945 329.512L76.8687 332.525C76.6933 333.129 76.5472 333.207 76.0502 333.207C75.5532 333.207 75.3875 333.061 75.2608 332.554L74.6372 330.068L74.0135 332.554C73.8868 333.061 73.7601 333.207 73.2339 333.207C72.7077 333.207 72.5907 333.129 72.4056 332.525L71.4896 329.512Z" fill="#999FB0"/>
<path opacity="0.56" d="M295.638 51.5005L314.952 84.9705L295.638 118.441H256.999L237.685 84.9705L256.999 51.5005H295.638Z" stroke="url(#paint11_linear_1147_23516)" stroke-miterlimit="10"/>
<path opacity="0.56" d="M254.857 398.087L274.172 431.557L254.857 465.028H216.219L196.904 431.557L216.219 398.087H254.857Z" stroke="url(#paint12_linear_1147_23516)" stroke-miterlimit="10"/>
<path opacity="0.56" d="M-9.87015 348.278L9.44421 381.748L-9.87015 415.228H-48.5086L-67.823 381.748L-48.5086 348.278H-9.87015Z" stroke="url(#paint13_linear_1147_23516)" stroke-miterlimit="10"/>
<path opacity="0.56" d="M73.6286 374.06L92.943 407.53L73.6286 441H34.9999L15.6758 407.53L34.9999 374.06H73.6286Z" stroke="url(#paint14_linear_1147_23516)" stroke-miterlimit="10"/>
<path d="M67.4697 394.825H40.5056C39.2892 394.825 38.3032 395.812 38.3032 397.029V415.582C38.3032 416.799 39.2892 417.785 40.5056 417.785H67.4697C68.686 417.785 69.672 416.799 69.672 415.582V397.029C69.672 395.812 68.686 394.825 67.4697 394.825Z" stroke="#334061" stroke-opacity="0.5" stroke-width="1.15" stroke-miterlimit="10"/>
<path d="M66.6315 398.121H41.3435V414.491H66.6315V398.121Z" stroke="#334061" stroke-opacity="0.5" stroke-width="1.15" stroke-miterlimit="10"/>
<path d="M42.6882 422.007H65.2964" stroke="#334061" stroke-opacity="0.5" stroke-width="1.15" stroke-miterlimit="10"/>
<path opacity="0.56" d="M173.988 339.977L193.302 373.447L173.988 406.927H135.359L116.035 373.447L135.359 339.977H173.988Z" stroke="url(#paint15_linear_1147_23516)" stroke-miterlimit="10"/>
<path opacity="0.56" d="M353.007 353.12L372.321 386.59L353.007 420.06H314.368L295.054 386.59L314.368 353.12H353.007Z" stroke="url(#paint16_linear_1147_23516)" stroke-miterlimit="10"/>
<path d="M315.927 381.685L333.78 371.868L350.794 381.685V384.289L333.809 374.208L315.927 384.289V381.685Z" stroke="#334061" stroke-opacity="0.5" stroke-width="1.15" stroke-miterlimit="10"/>
<path d="M322.018 380.847V401.311H345.172V381.071" stroke="#334061" stroke-opacity="0.5" stroke-width="1.08" stroke-miterlimit="10"/>
<path d="M329.97 401.311V388.247H337.133V401.311" stroke="#334061" stroke-opacity="0.5" stroke-width="1.15" stroke-miterlimit="10"/>
<path d="M339.851 375.378V372.755H344.1V377.825" stroke="#334061" stroke-opacity="0.5" stroke-width="1.15" stroke-miterlimit="10"/>
<path d="M181.421 166.964L193.456 173.536" stroke="#999FB0" stroke-width="1.15" stroke-miterlimit="10"/>
<path d="M188.088 152.02L180.467 162.871" stroke="#999FB0" stroke-width="1.15" stroke-miterlimit="10"/>
<path d="M189.909 152.594C191.653 152.594 193.067 151.179 193.067 149.435C193.067 147.69 191.653 146.276 189.909 146.276C188.166 146.276 186.752 147.69 186.752 149.435C186.752 151.179 188.166 152.594 189.909 152.594Z" stroke="#999FB0" stroke-width="1.15" stroke-miterlimit="10"/>
<path d="M175.478 165.443C175.476 164.816 175.66 164.202 176.007 163.68C176.353 163.158 176.847 162.75 177.426 162.509C178.004 162.267 178.642 162.203 179.257 162.324C179.872 162.446 180.437 162.747 180.881 163.189C181.325 163.632 181.627 164.197 181.75 164.811C181.873 165.426 181.811 166.064 181.572 166.644C181.332 167.223 180.926 167.719 180.405 168.067C179.884 168.416 179.271 168.602 178.645 168.602C177.806 168.602 177.002 168.269 176.409 167.677C175.815 167.085 175.48 166.282 175.478 165.443Z" stroke="#999FB0" stroke-width="1.15" stroke-miterlimit="10"/>
<path d="M193.067 175.047C193.065 174.42 193.249 173.806 193.596 173.283C193.944 172.761 194.438 172.353 195.017 172.112C195.596 171.871 196.234 171.808 196.849 171.93C197.464 172.052 198.03 172.353 198.473 172.797C198.917 173.241 199.219 173.806 199.34 174.422C199.462 175.038 199.399 175.675 199.158 176.255C198.917 176.834 198.51 177.329 197.987 177.676C197.465 178.024 196.851 178.208 196.224 178.206C195.387 178.204 194.586 177.87 193.994 177.278C193.403 176.686 193.069 175.884 193.067 175.047Z" stroke="#999FB0" stroke-width="1.15" stroke-miterlimit="10"/>
<path opacity="0.56" d="M391.714 72.2549L411.028 105.725L391.714 139.205H353.076L333.761 105.725L353.076 72.2549H391.714Z" stroke="url(#paint17_linear_1147_23516)" stroke-miterlimit="10"/>
<g style="mix-blend-mode:multiply">
<path d="M164.834 263.415L181.235 291.815L164.834 320.215H132.062L115.671 291.815L132.062 263.415H164.834Z" fill="#4C5A80" fill-opacity="0.2"/>
</g>
<g style="mix-blend-mode:color-burn" opacity="0.3">
<path d="M320.736 272H323.172L324.39 274.116" stroke="#334061" stroke-width="2" stroke-miterlimit="10" stroke-linecap="round"/>
<path d="M327.548 279.575L336.767 295.564" stroke="#334061" stroke-width="2" stroke-miterlimit="10" stroke-linecap="round" stroke-dasharray="4.62 6.47"/>
<path d="M338.345 298.294L339.563 300.4L338.345 302.515" stroke="#334061" stroke-width="2" stroke-miterlimit="10" stroke-linecap="round"/>
<path d="M335.198 307.975L325.969 323.964" stroke="#334061" stroke-width="2" stroke-miterlimit="10" stroke-linecap="round" stroke-dasharray="4.62 6.47"/>
<path d="M324.39 326.694L323.172 328.8H320.736" stroke="#334061" stroke-width="2" stroke-miterlimit="10" stroke-linecap="round"/>
<path d="M314.441 328.799H295.984" stroke="#334061" stroke-width="2" stroke-miterlimit="10" stroke-linecap="round" stroke-dasharray="4.62 6.47"/>
<path d="M292.827 328.8H290.39L289.172 326.694" stroke="#334061" stroke-width="2" stroke-miterlimit="10" stroke-linecap="round"/>
<path d="M286.025 321.234L276.797 305.245" stroke="#334061" stroke-width="2" stroke-miterlimit="10" stroke-linecap="round" stroke-dasharray="4.62 6.47"/>
<path d="M275.218 302.515L274 300.4L275.218 298.294" stroke="#334061" stroke-width="2" stroke-miterlimit="10" stroke-linecap="round"/>
<path d="M278.375 292.834L287.603 276.845" stroke="#334061" stroke-width="2" stroke-miterlimit="10" stroke-linecap="round" stroke-dasharray="4.62 6.47"/>
<path d="M289.172 274.116L290.39 272H292.827" stroke="#334061" stroke-width="2" stroke-miterlimit="10" stroke-linecap="round"/>
<path d="M299.132 272H317.588" stroke="#334061" stroke-width="2" stroke-miterlimit="10" stroke-linecap="round" stroke-dasharray="4.62 6.47"/>
</g>
<g style="mix-blend-mode:multiply">
<path d="M31.4335 169.331L47.8341 197.731L31.4335 226.132H-1.3386L-17.7295 197.731L-1.3386 169.331H31.4335Z" fill="#4C5A80" fill-opacity="0.2"/>
</g>
<g style="mix-blend-mode:multiply">
<path d="M251.925 403.156L268.316 431.556L251.925 459.956H219.143L202.752 431.556L219.143 403.156H251.925Z" fill="#4C5A80" fill-opacity="0.2"/>
</g>
<path d="M359.536 97.8862L372.535 109.157L385.545 97.8862" stroke="#999FB0" stroke-width="1.15" stroke-miterlimit="10"/>
<path d="M359.536 113.991L368.842 106.708" stroke="#999FB0" stroke-width="1.15" stroke-miterlimit="10"/>
<path d="M385.535 97.8862H359.536V113.992H385.535V97.8862Z" stroke="url(#paint18_linear_1147_23516)" stroke-width="1.15" stroke-miterlimit="10"/>
<path opacity="0.56" d="M152.561 434.06L171.875 467.53L152.561 501H113.932L94.6079 467.53L113.932 434.06H152.561Z" stroke="url(#paint19_linear_1147_23516)" stroke-miterlimit="10"/>
<path d="M-13.296 286.811C-22.1346 286.811 -29.2971 291.685 -29.2971 297.691C-29.2971 301.016 -27.0948 303.989 -23.6353 305.988L-25.5161 310.677C-25.6088 310.874 -25.6332 311.096 -25.5855 311.308C-25.5378 311.52 -25.4206 311.71 -25.2527 311.847C-25.0848 311.985 -24.8757 312.063 -24.6586 312.068C-24.4415 312.073 -24.2288 312.006 -24.0544 311.877L-18.2074 308.045C-16.6069 308.395 -14.9733 308.571 -13.335 308.571C-4.50613 308.571 2.65636 303.697 2.65636 297.691C2.65636 291.685 -4.42817 286.811 -13.296 286.811Z" stroke="#999FB0" stroke-width="1.15" stroke-miterlimit="10"/>
<path opacity="0.56" d="M10.1748 426.45L29.4891 459.93L10.1748 493.4H-28.4637L-47.7781 459.93L-28.4637 426.45H10.1748Z" stroke="url(#paint20_linear_1147_23516)" stroke-miterlimit="10"/>
<defs>
<linearGradient id="paint0_linear_1147_23516" x1="187.154" y1="131.056" x2="187.154" y2="198.006" gradientUnits="userSpaceOnUse">
<stop stop-color="#252E4A"/>
<stop offset="1" stop-color="#252E4A" stop-opacity="0"/>
</linearGradient>
<linearGradient id="paint1_linear_1147_23516" x1="148.448" y1="258.346" x2="148.448" y2="325.296" gradientUnits="userSpaceOnUse">
<stop stop-color="#252E4A"/>
<stop offset="1" stop-color="#252E4A" stop-opacity="0"/>
</linearGradient>
<linearGradient id="paint2_linear_1147_23516" x1="15.0474" y1="164.262" x2="15.0474" y2="231.212" gradientUnits="userSpaceOnUse">
<stop stop-color="#252E4A"/>
<stop offset="1" stop-color="#252E4A" stop-opacity="0"/>
</linearGradient>
<linearGradient id="paint3_linear_1147_23516" x1="232.082" y1="312.997" x2="232.082" y2="379.947" gradientUnits="userSpaceOnUse">
<stop stop-color="#252E4A"/>
<stop offset="1" stop-color="#252E4A" stop-opacity="0"/>
</linearGradient>
<linearGradient id="paint4_linear_1147_23516" x1="73.1077" y1="220.297" x2="73.1077" y2="287.247" gradientUnits="userSpaceOnUse">
<stop stop-color="#252E4A"/>
<stop offset="1" stop-color="#252E4A" stop-opacity="0"/>
</linearGradient>
<linearGradient id="paint5_linear_1147_23516" x1="284.612" y1="132.44" x2="284.612" y2="199.39" gradientUnits="userSpaceOnUse">
<stop stop-color="#252E4A"/>
<stop offset="1" stop-color="#252E4A" stop-opacity="0"/>
</linearGradient>
<linearGradient id="paint6_linear_1147_23516" x1="223.096" y1="227.907" x2="223.096" y2="294.857" gradientUnits="userSpaceOnUse">
<stop stop-color="#252E4A"/>
<stop offset="1" stop-color="#252E4A" stop-opacity="0"/>
</linearGradient>
<linearGradient id="paint7_linear_1147_23516" x1="306.731" y1="265.955" x2="306.731" y2="332.905" gradientUnits="userSpaceOnUse">
<stop stop-color="#252E4A"/>
<stop offset="1" stop-color="#252E4A" stop-opacity="0"/>
</linearGradient>
<linearGradient id="paint8_linear_1147_23516" x1="350.967" y1="185.016" x2="350.967" y2="251.966" gradientUnits="userSpaceOnUse">
<stop stop-color="#252E4A"/>
<stop offset="1" stop-color="#252E4A" stop-opacity="0"/>
</linearGradient>
<linearGradient id="paint9_linear_1147_23516" x1="-13.2919" y1="265.955" x2="-13.2919" y2="332.905" gradientUnits="userSpaceOnUse">
<stop stop-color="#252E4A"/>
<stop offset="1" stop-color="#252E4A" stop-opacity="0"/>
</linearGradient>
<linearGradient id="paint10_linear_1147_23516" x1="68.2742" y1="295.01" x2="68.2742" y2="361.95" gradientUnits="userSpaceOnUse">
<stop stop-color="#252E4A"/>
<stop offset="1" stop-color="#252E4A" stop-opacity="0"/>
</linearGradient>
<linearGradient id="paint11_linear_1147_23516" x1="276.318" y1="51.5005" x2="276.318" y2="118.441" gradientUnits="userSpaceOnUse">
<stop stop-color="#252E4A"/>
<stop offset="1" stop-color="#252E4A" stop-opacity="0"/>
</linearGradient>
<linearGradient id="paint12_linear_1147_23516" x1="235.538" y1="398.087" x2="235.538" y2="465.028" gradientUnits="userSpaceOnUse">
<stop stop-color="#252E4A"/>
<stop offset="1" stop-color="#252E4A" stop-opacity="0"/>
</linearGradient>
<linearGradient id="paint13_linear_1147_23516" x1="-29.1894" y1="348.278" x2="-29.1894" y2="415.228" gradientUnits="userSpaceOnUse">
<stop stop-color="#252E4A"/>
<stop offset="1" stop-color="#252E4A" stop-opacity="0"/>
</linearGradient>
<linearGradient id="paint14_linear_1147_23516" x1="54.3094" y1="374.06" x2="54.3094" y2="441" gradientUnits="userSpaceOnUse">
<stop stop-color="#252E4A"/>
<stop offset="1" stop-color="#252E4A" stop-opacity="0"/>
</linearGradient>
<linearGradient id="paint15_linear_1147_23516" x1="154.668" y1="339.977" x2="154.668" y2="406.927" gradientUnits="userSpaceOnUse">
<stop stop-color="#252E4A"/>
<stop offset="1" stop-color="#252E4A" stop-opacity="0"/>
</linearGradient>
<linearGradient id="paint16_linear_1147_23516" x1="333.688" y1="353.12" x2="333.688" y2="420.06" gradientUnits="userSpaceOnUse">
<stop stop-color="#252E4A"/>
<stop offset="1" stop-color="#252E4A" stop-opacity="0"/>
</linearGradient>
<linearGradient id="paint17_linear_1147_23516" x1="372.395" y1="72.2549" x2="372.395" y2="139.205" gradientUnits="userSpaceOnUse">
<stop stop-color="#252E4A"/>
<stop offset="1" stop-color="#252E4A" stop-opacity="0"/>
</linearGradient>
<linearGradient id="paint18_linear_1147_23516" x1="372.535" y1="97.8862" x2="372.535" y2="113.992" gradientUnits="userSpaceOnUse">
<stop stop-color="#252E4A"/>
<stop offset="1" stop-color="#252E4A" stop-opacity="0"/>
</linearGradient>
<linearGradient id="paint19_linear_1147_23516" x1="133.242" y1="434.06" x2="133.242" y2="501" gradientUnits="userSpaceOnUse">
<stop stop-color="#252E4A"/>
<stop offset="1" stop-color="#252E4A" stop-opacity="0"/>
</linearGradient>
<linearGradient id="paint20_linear_1147_23516" x1="-9.14447" y1="426.45" x2="-9.14447" y2="493.4" gradientUnits="userSpaceOnUse">
<stop stop-color="#252E4A"/>
<stop offset="1" stop-color="#252E4A" stop-opacity="0"/>
</linearGradient>
</defs>
</svg>
